<?xml version="1.0" encoding="utf-8"?>
<svg xmlns="http://www.w3.org/2000/svg" xmlns:xlink="http://www.w3.org/1999/xlink" width="600" height="400" viewBox="0 0 2400 1600">
<defs>
  <clipPath id="clip810">
    <rect x="0" y="0" width="2400" height="1600"/>
  </clipPath>
</defs>
<path clip-path="url(#clip810)" d="
M0 1600 L2400 1600 L2400 0 L0 0  Z
  " fill="#ffffff" fill-rule="evenodd" fill-opacity="1"/>
<defs>
  <clipPath id="clip811">
    <rect x="480" y="0" width="1681" height="1600"/>
  </clipPath>
</defs>
<path clip-path="url(#clip810)" d="
M102.74 1505.26 L2352.76 1505.26 L2352.76 47.2441 L102.74 47.2441  Z
  " fill="#ffffff" fill-rule="evenodd" fill-opacity="1"/>
<defs>
  <clipPath id="clip812">
    <rect x="102" y="47" width="2251" height="1459"/>
  </clipPath>
</defs>
<polyline clip-path="url(#clip812)" style="stroke:#000000; stroke-width:2; stroke-opacity:0.1; fill:none" points="
  138.263,1505.26 138.263,47.2441 
  "/>
<polyline clip-path="url(#clip812)" style="stroke:#000000; stroke-width:2; stroke-opacity:0.1; fill:none" points="
  630.546,1505.26 630.546,47.2441 
  "/>
<polyline clip-path="url(#clip812)" style="stroke:#000000; stroke-width:2; stroke-opacity:0.1; fill:none" points="
  1122.83,1505.26 1122.83,47.2441 
  "/>
<polyline clip-path="url(#clip812)" style="stroke:#000000; stroke-width:2; stroke-opacity:0.1; fill:none" points="
  1615.11,1505.26 1615.11,47.2441 
  "/>
<polyline clip-path="url(#clip812)" style="stroke:#000000; stroke-width:2; stroke-opacity:0.1; fill:none" points="
  2107.4,1505.26 2107.4,47.2441 
  "/>
<polyline clip-path="url(#clip810)" style="stroke:#000000; stroke-width:4; stroke-opacity:1; fill:none" points="
  102.74,1505.26 2352.76,1505.26 
  "/>
<polyline clip-path="url(#clip810)" style="stroke:#000000; stroke-width:4; stroke-opacity:1; fill:none" points="
  138.263,1505.26 138.263,1487.76 
  "/>
<polyline clip-path="url(#clip810)" style="stroke:#000000; stroke-width:4; stroke-opacity:1; fill:none" points="
  630.546,1505.26 630.546,1487.76 
  "/>
<polyline clip-path="url(#clip810)" style="stroke:#000000; stroke-width:4; stroke-opacity:1; fill:none" points="
  1122.83,1505.26 1122.83,1487.76 
  "/>
<polyline clip-path="url(#clip810)" style="stroke:#000000; stroke-width:4; stroke-opacity:1; fill:none" points="
  1615.11,1505.26 1615.11,1487.76 
  "/>
<polyline clip-path="url(#clip810)" style="stroke:#000000; stroke-width:4; stroke-opacity:1; fill:none" points="
  2107.4,1505.26 2107.4,1487.76 
  "/>
<path clip-path="url(#clip810)" d="M 0 0 M83.6916 1562 L91.3304 1562 L91.3304 1535.63 L83.0203 1537.3 L83.0203 1533.04 L91.2842 1531.37 L95.9601 1531.37 L95.9601 1562 L103.599 1562 L103.599 1565.93 L83.6916 1565.93 L83.6916 1562 Z" fill="#000000" fill-rule="evenodd" fill-opacity="1" /><path clip-path="url(#clip810)" d="M 0 0 M108.715 1531.37 L127.071 1531.37 L127.071 1535.31 L112.997 1535.31 L112.997 1543.78 Q114.016 1543.43 115.034 1543.27 Q116.053 1543.08 117.071 1543.08 Q122.858 1543.08 126.238 1546.26 Q129.617 1549.43 129.617 1554.84 Q129.617 1560.42 126.145 1563.52 Q122.673 1566.6 116.353 1566.6 Q114.178 1566.6 111.909 1566.23 Q109.664 1565.86 107.256 1565.12 L107.256 1560.42 Q109.34 1561.56 111.562 1562.11 Q113.784 1562.67 116.261 1562.67 Q120.265 1562.67 122.603 1560.56 Q124.941 1558.46 124.941 1554.84 Q124.941 1551.23 122.603 1549.13 Q120.265 1547.02 116.261 1547.02 Q114.386 1547.02 112.511 1547.44 Q110.659 1547.85 108.715 1548.73 L108.715 1531.37 Z" fill="#000000" fill-rule="evenodd" fill-opacity="1" /><path clip-path="url(#clip810)" d="M 0 0 M144.687 1549.52 Q141.353 1549.52 139.432 1551.3 Q137.534 1553.08 137.534 1556.21 Q137.534 1559.33 139.432 1561.12 Q141.353 1562.9 144.687 1562.9 Q148.02 1562.9 149.941 1561.12 Q151.863 1559.31 151.863 1556.21 Q151.863 1553.08 149.941 1551.3 Q148.043 1549.52 144.687 1549.52 M140.011 1547.53 Q137.002 1546.79 135.312 1544.73 Q133.645 1542.67 133.645 1539.71 Q133.645 1535.56 136.585 1533.15 Q139.548 1530.75 144.687 1530.75 Q149.849 1530.75 152.788 1533.15 Q155.728 1535.56 155.728 1539.71 Q155.728 1542.67 154.038 1544.73 Q152.372 1546.79 149.386 1547.53 Q152.765 1548.32 154.64 1550.61 Q156.538 1552.9 156.538 1556.21 Q156.538 1561.23 153.46 1563.92 Q150.404 1566.6 144.687 1566.6 Q138.969 1566.6 135.89 1563.92 Q132.835 1561.23 132.835 1556.21 Q132.835 1552.9 134.733 1550.61 Q136.631 1548.32 140.011 1547.53 M138.298 1540.14 Q138.298 1542.83 139.964 1544.33 Q141.654 1545.84 144.687 1545.84 Q147.696 1545.84 149.386 1544.33 Q151.099 1542.83 151.099 1540.14 Q151.099 1537.46 149.386 1535.96 Q147.696 1534.45 144.687 1534.45 Q141.654 1534.45 139.964 1535.96 Q138.298 1537.46 138.298 1540.14 Z" fill="#000000" fill-rule="evenodd" fill-opacity="1" /><path clip-path="url(#clip810)" d="M 0 0 M161.608 1560.05 L166.492 1560.05 L166.492 1565.93 L161.608 1565.93 L161.608 1560.05 Z" fill="#000000" fill-rule="evenodd" fill-opacity="1" /><path clip-path="url(#clip810)" d="M 0 0 M181.561 1534.45 Q177.95 1534.45 176.122 1538.02 Q174.316 1541.56 174.316 1548.69 Q174.316 1555.79 176.122 1559.36 Q177.95 1562.9 181.561 1562.9 Q185.196 1562.9 187.001 1559.36 Q188.83 1555.79 188.83 1548.69 Q188.83 1541.56 187.001 1538.02 Q185.196 1534.45 181.561 1534.45 M181.561 1530.75 Q187.372 1530.75 190.427 1535.35 Q193.506 1539.94 193.506 1548.69 Q193.506 1557.41 190.427 1562.02 Q187.372 1566.6 181.561 1566.6 Q175.751 1566.6 172.673 1562.02 Q169.617 1557.41 169.617 1548.69 Q169.617 1539.94 172.673 1535.35 Q175.751 1530.75 181.561 1530.75 Z" fill="#000000" fill-rule="evenodd" fill-opacity="1" /><path clip-path="url(#clip810)" d="M 0 0 M576.472 1562 L584.111 1562 L584.111 1535.63 L575.801 1537.3 L575.801 1533.04 L584.065 1531.37 L588.741 1531.37 L588.741 1562 L596.38 1562 L596.38 1565.93 L576.472 1565.93 L576.472 1562 Z" fill="#000000" fill-rule="evenodd" fill-opacity="1" /><path clip-path="url(#clip810)" d="M 0 0 M601.495 1531.37 L619.852 1531.37 L619.852 1535.31 L605.778 1535.31 L605.778 1543.78 Q606.796 1543.43 607.815 1543.27 Q608.833 1543.08 609.852 1543.08 Q615.639 1543.08 619.018 1546.26 Q622.398 1549.43 622.398 1554.84 Q622.398 1560.42 618.926 1563.52 Q615.454 1566.6 609.134 1566.6 Q606.958 1566.6 604.69 1566.23 Q602.444 1565.86 600.037 1565.12 L600.037 1560.42 Q602.12 1561.56 604.343 1562.11 Q606.565 1562.67 609.042 1562.67 Q613.046 1562.67 615.384 1560.56 Q617.722 1558.46 617.722 1554.84 Q617.722 1551.23 615.384 1549.13 Q613.046 1547.02 609.042 1547.02 Q607.167 1547.02 605.292 1547.44 Q603.44 1547.85 601.495 1548.73 L601.495 1531.37 Z" fill="#000000" fill-rule="evenodd" fill-opacity="1" /><path clip-path="url(#clip810)" d="M 0 0 M637.467 1549.52 Q634.134 1549.52 632.213 1551.3 Q630.315 1553.08 630.315 1556.21 Q630.315 1559.33 632.213 1561.12 Q634.134 1562.9 637.467 1562.9 Q640.801 1562.9 642.722 1561.12 Q644.643 1559.31 644.643 1556.21 Q644.643 1553.08 642.722 1551.3 Q640.824 1549.52 637.467 1549.52 M632.791 1547.53 Q629.782 1546.79 628.092 1544.73 Q626.426 1542.67 626.426 1539.71 Q626.426 1535.56 629.366 1533.15 Q632.329 1530.75 637.467 1530.75 Q642.629 1530.75 645.569 1533.15 Q648.509 1535.56 648.509 1539.71 Q648.509 1542.67 646.819 1544.73 Q645.153 1546.79 642.166 1547.53 Q645.546 1548.32 647.421 1550.61 Q649.319 1552.9 649.319 1556.21 Q649.319 1561.23 646.24 1563.92 Q643.185 1566.6 637.467 1566.6 Q631.75 1566.6 628.671 1563.92 Q625.616 1561.23 625.616 1556.21 Q625.616 1552.9 627.514 1550.61 Q629.412 1548.32 632.791 1547.53 M631.079 1540.14 Q631.079 1542.83 632.745 1544.33 Q634.435 1545.84 637.467 1545.84 Q640.477 1545.84 642.166 1544.33 Q643.879 1542.83 643.879 1540.14 Q643.879 1537.46 642.166 1535.96 Q640.477 1534.45 637.467 1534.45 Q634.435 1534.45 632.745 1535.96 Q631.079 1537.46 631.079 1540.14 Z" fill="#000000" fill-rule="evenodd" fill-opacity="1" /><path clip-path="url(#clip810)" d="M 0 0 M654.389 1560.05 L659.273 1560.05 L659.273 1565.93 L654.389 1565.93 L654.389 1560.05 Z" fill="#000000" fill-rule="evenodd" fill-opacity="1" /><path clip-path="url(#clip810)" d="M 0 0 M664.389 1531.37 L682.745 1531.37 L682.745 1535.31 L668.671 1535.31 L668.671 1543.78 Q669.689 1543.43 670.708 1543.27 Q671.726 1543.08 672.745 1543.08 Q678.532 1543.08 681.912 1546.26 Q685.291 1549.43 685.291 1554.84 Q685.291 1560.42 681.819 1563.52 Q678.347 1566.6 672.027 1566.6 Q669.851 1566.6 667.583 1566.23 Q665.338 1565.86 662.93 1565.12 L662.93 1560.42 Q665.014 1561.56 667.236 1562.11 Q669.458 1562.67 671.935 1562.67 Q675.939 1562.67 678.277 1560.56 Q680.615 1558.46 680.615 1554.84 Q680.615 1551.23 678.277 1549.13 Q675.939 1547.02 671.935 1547.02 Q670.06 1547.02 668.185 1547.44 Q666.333 1547.85 664.389 1548.73 L664.389 1531.37 Z" fill="#000000" fill-rule="evenodd" fill-opacity="1" /><path clip-path="url(#clip810)" d="M 0 0 M1068.3 1562 L1075.94 1562 L1075.94 1535.63 L1067.63 1537.3 L1067.63 1533.04 L1075.9 1531.37 L1080.57 1531.37 L1080.57 1562 L1088.21 1562 L1088.21 1565.93 L1068.3 1565.93 L1068.3 1562 Z" fill="#000000" fill-rule="evenodd" fill-opacity="1" /><path clip-path="url(#clip810)" d="M 0 0 M1093.33 1531.37 L1111.68 1531.37 L1111.68 1535.31 L1097.61 1535.31 L1097.61 1543.78 Q1098.63 1543.43 1099.65 1543.27 Q1100.66 1543.08 1101.68 1543.08 Q1107.47 1543.08 1110.85 1546.26 Q1114.23 1549.43 1114.23 1554.84 Q1114.23 1560.42 1110.76 1563.52 Q1107.29 1566.6 1100.97 1566.6 Q1098.79 1566.6 1096.52 1566.23 Q1094.28 1565.86 1091.87 1565.12 L1091.87 1560.42 Q1093.95 1561.56 1096.17 1562.11 Q1098.4 1562.67 1100.87 1562.67 Q1104.88 1562.67 1107.22 1560.56 Q1109.55 1558.46 1109.55 1554.84 Q1109.55 1551.23 1107.22 1549.13 Q1104.88 1547.02 1100.87 1547.02 Q1099 1547.02 1097.12 1547.44 Q1095.27 1547.85 1093.33 1548.73 L1093.33 1531.37 Z" fill="#000000" fill-rule="evenodd" fill-opacity="1" /><path clip-path="url(#clip810)" d="M 0 0 M1119.44 1565.21 L1119.44 1560.96 Q1121.2 1561.79 1123 1562.23 Q1124.81 1562.67 1126.54 1562.67 Q1131.17 1562.67 1133.6 1559.57 Q1136.06 1556.44 1136.41 1550.1 Q1135.06 1552.09 1133 1553.15 Q1130.94 1554.22 1128.44 1554.22 Q1123.26 1554.22 1120.23 1551.09 Q1117.22 1547.95 1117.22 1542.51 Q1117.22 1537.18 1120.36 1533.96 Q1123.51 1530.75 1128.74 1530.75 Q1134.74 1530.75 1137.89 1535.35 Q1141.06 1539.94 1141.06 1548.69 Q1141.06 1556.86 1137.17 1561.74 Q1133.3 1566.6 1126.75 1566.6 Q1124.99 1566.6 1123.19 1566.26 Q1121.38 1565.91 1119.44 1565.21 M1128.74 1550.56 Q1131.89 1550.56 1133.72 1548.41 Q1135.57 1546.26 1135.57 1542.51 Q1135.57 1538.78 1133.72 1536.63 Q1131.89 1534.45 1128.74 1534.45 Q1125.6 1534.45 1123.74 1536.63 Q1121.91 1538.78 1121.91 1542.51 Q1121.91 1546.26 1123.74 1548.41 Q1125.6 1550.56 1128.74 1550.56 Z" fill="#000000" fill-rule="evenodd" fill-opacity="1" /><path clip-path="url(#clip810)" d="M 0 0 M1146.13 1560.05 L1151.01 1560.05 L1151.01 1565.93 L1146.13 1565.93 L1146.13 1560.05 Z" fill="#000000" fill-rule="evenodd" fill-opacity="1" /><path clip-path="url(#clip810)" d="M 0 0 M1166.08 1534.45 Q1162.47 1534.45 1160.64 1538.02 Q1158.84 1541.56 1158.84 1548.69 Q1158.84 1555.79 1160.64 1559.36 Q1162.47 1562.9 1166.08 1562.9 Q1169.72 1562.9 1171.52 1559.36 Q1173.35 1555.79 1173.35 1548.69 Q1173.35 1541.56 1171.52 1538.02 Q1169.72 1534.45 1166.08 1534.45 M1166.08 1530.75 Q1171.89 1530.75 1174.95 1535.35 Q1178.03 1539.94 1178.03 1548.69 Q1178.03 1557.41 1174.95 1562.02 Q1171.89 1566.6 1166.08 1566.6 Q1160.27 1566.6 1157.19 1562.02 Q1154.14 1557.41 1154.14 1548.69 Q1154.14 1539.94 1157.19 1535.35 Q1160.27 1530.75 1166.08 1530.75 Z" fill="#000000" fill-rule="evenodd" fill-opacity="1" /><path clip-path="url(#clip810)" d="M 0 0 M1561.08 1562 L1568.72 1562 L1568.72 1535.63 L1560.41 1537.3 L1560.41 1533.04 L1568.68 1531.37 L1573.35 1531.37 L1573.35 1562 L1580.99 1562 L1580.99 1565.93 L1561.08 1565.93 L1561.08 1562 Z" fill="#000000" fill-rule="evenodd" fill-opacity="1" /><path clip-path="url(#clip810)" d="M 0 0 M1586.11 1531.37 L1604.46 1531.37 L1604.46 1535.31 L1590.39 1535.31 L1590.39 1543.78 Q1591.41 1543.43 1592.43 1543.27 Q1593.45 1543.08 1594.46 1543.08 Q1600.25 1543.08 1603.63 1546.26 Q1607.01 1549.43 1607.01 1554.84 Q1607.01 1560.42 1603.54 1563.52 Q1600.07 1566.6 1593.75 1566.6 Q1591.57 1566.6 1589.3 1566.23 Q1587.06 1565.86 1584.65 1565.12 L1584.65 1560.42 Q1586.73 1561.56 1588.95 1562.11 Q1591.18 1562.67 1593.65 1562.67 Q1597.66 1562.67 1600 1560.56 Q1602.33 1558.46 1602.33 1554.84 Q1602.33 1551.23 1600 1549.13 Q1597.66 1547.02 1593.65 1547.02 Q1591.78 1547.02 1589.9 1547.44 Q1588.05 1547.85 1586.11 1548.73 L1586.11 1531.37 Z" fill="#000000" fill-rule="evenodd" fill-opacity="1" /><path clip-path="url(#clip810)" d="M 0 0 M1612.22 1565.21 L1612.22 1560.96 Q1613.98 1561.79 1615.78 1562.23 Q1617.59 1562.67 1619.33 1562.67 Q1623.95 1562.67 1626.39 1559.57 Q1628.84 1556.44 1629.19 1550.1 Q1627.84 1552.09 1625.78 1553.15 Q1623.72 1554.22 1621.22 1554.22 Q1616.04 1554.22 1613.01 1551.09 Q1610 1547.95 1610 1542.51 Q1610 1537.18 1613.14 1533.96 Q1616.29 1530.75 1621.52 1530.75 Q1627.52 1530.75 1630.67 1535.35 Q1633.84 1539.94 1633.84 1548.69 Q1633.84 1556.86 1629.95 1561.74 Q1626.08 1566.6 1619.53 1566.6 Q1617.77 1566.6 1615.97 1566.26 Q1614.16 1565.91 1612.22 1565.21 M1621.52 1550.56 Q1624.67 1550.56 1626.5 1548.41 Q1628.35 1546.26 1628.35 1542.51 Q1628.35 1538.78 1626.5 1536.63 Q1624.67 1534.45 1621.52 1534.45 Q1618.38 1534.45 1616.52 1536.63 Q1614.7 1538.78 1614.7 1542.51 Q1614.7 1546.26 1616.52 1548.41 Q1618.38 1550.56 1621.52 1550.56 Z" fill="#000000" fill-rule="evenodd" fill-opacity="1" /><path clip-path="url(#clip810)" d="M 0 0 M1638.91 1560.05 L1643.79 1560.05 L1643.79 1565.93 L1638.91 1565.93 L1638.91 1560.05 Z" fill="#000000" fill-rule="evenodd" fill-opacity="1" /><path clip-path="url(#clip810)" d="M 0 0 M1648.91 1531.37 L1667.26 1531.37 L1667.26 1535.31 L1653.19 1535.31 L1653.19 1543.78 Q1654.21 1543.43 1655.23 1543.27 Q1656.25 1543.08 1657.26 1543.08 Q1663.05 1543.08 1666.43 1546.26 Q1669.81 1549.43 1669.81 1554.84 Q1669.81 1560.42 1666.34 1563.52 Q1662.87 1566.6 1656.55 1566.6 Q1654.37 1566.6 1652.1 1566.23 Q1649.86 1565.86 1647.45 1565.12 L1647.45 1560.42 Q1649.53 1561.56 1651.76 1562.11 Q1653.98 1562.67 1656.45 1562.67 Q1660.46 1562.67 1662.8 1560.56 Q1665.14 1558.46 1665.14 1554.84 Q1665.14 1551.23 1662.8 1549.13 Q1660.46 1547.02 1656.45 1547.02 Q1654.58 1547.02 1652.7 1547.44 Q1650.85 1547.85 1648.91 1548.73 L1648.91 1531.37 Z" fill="#000000" fill-rule="evenodd" fill-opacity="1" /><path clip-path="url(#clip810)" d="M 0 0 M2052.2 1562 L2059.84 1562 L2059.84 1535.63 L2051.53 1537.3 L2051.53 1533.04 L2059.79 1531.37 L2064.47 1531.37 L2064.47 1562 L2072.11 1562 L2072.11 1565.93 L2052.2 1565.93 L2052.2 1562 Z" fill="#000000" fill-rule="evenodd" fill-opacity="1" /><path clip-path="url(#clip810)" d="M 0 0 M2087.75 1546.79 Q2084.61 1546.79 2082.75 1548.94 Q2080.93 1551.09 2080.93 1554.84 Q2080.93 1558.57 2082.75 1560.75 Q2084.61 1562.9 2087.75 1562.9 Q2090.9 1562.9 2092.73 1560.75 Q2094.58 1558.57 2094.58 1554.84 Q2094.58 1551.09 2092.73 1548.94 Q2090.9 1546.79 2087.75 1546.79 M2097.04 1532.14 L2097.04 1536.39 Q2095.28 1535.56 2093.47 1535.12 Q2091.69 1534.68 2089.93 1534.68 Q2085.3 1534.68 2082.85 1537.81 Q2080.42 1540.93 2080.07 1547.25 Q2081.43 1545.24 2083.49 1544.17 Q2085.56 1543.08 2088.03 1543.08 Q2093.24 1543.08 2096.25 1546.26 Q2099.28 1549.4 2099.28 1554.84 Q2099.28 1560.17 2096.13 1563.39 Q2092.99 1566.6 2087.75 1566.6 Q2081.76 1566.6 2078.59 1562.02 Q2075.42 1557.41 2075.42 1548.69 Q2075.42 1540.49 2079.31 1535.63 Q2083.19 1530.75 2089.74 1530.75 Q2091.5 1530.75 2093.29 1531.09 Q2095.09 1531.44 2097.04 1532.14 Z" fill="#000000" fill-rule="evenodd" fill-opacity="1" /><path clip-path="url(#clip810)" d="M 0 0 M2114.35 1534.45 Q2110.74 1534.45 2108.91 1538.02 Q2107.11 1541.56 2107.11 1548.69 Q2107.11 1555.79 2108.91 1559.36 Q2110.74 1562.9 2114.35 1562.9 Q2117.99 1562.9 2119.79 1559.36 Q2121.62 1555.79 2121.62 1548.69 Q2121.62 1541.56 2119.79 1538.02 Q2117.99 1534.45 2114.35 1534.45 M2114.35 1530.75 Q2120.16 1530.75 2123.22 1535.35 Q2126.3 1539.94 2126.3 1548.69 Q2126.3 1557.41 2123.22 1562.02 Q2120.16 1566.6 2114.35 1566.6 Q2108.54 1566.6 2105.46 1562.02 Q2102.41 1557.41 2102.41 1548.69 Q2102.41 1539.94 2105.46 1535.35 Q2108.54 1530.75 2114.35 1530.75 Z" fill="#000000" fill-rule="evenodd" fill-opacity="1" /><path clip-path="url(#clip810)" d="M 0 0 M2131.37 1560.05 L2136.25 1560.05 L2136.25 1565.93 L2131.37 1565.93 L2131.37 1560.05 Z" fill="#000000" fill-rule="evenodd" fill-opacity="1" /><path clip-path="url(#clip810)" d="M 0 0 M2151.32 1534.45 Q2147.71 1534.45 2145.88 1538.02 Q2144.07 1541.56 2144.07 1548.69 Q2144.07 1555.79 2145.88 1559.36 Q2147.71 1562.9 2151.32 1562.9 Q2154.95 1562.9 2156.76 1559.36 Q2158.59 1555.79 2158.59 1548.69 Q2158.59 1541.56 2156.76 1538.02 Q2154.95 1534.45 2151.32 1534.45 M2151.32 1530.75 Q2157.13 1530.75 2160.18 1535.35 Q2163.26 1539.94 2163.26 1548.69 Q2163.26 1557.41 2160.18 1562.02 Q2157.13 1566.6 2151.32 1566.6 Q2145.51 1566.6 2142.43 1562.02 Q2139.37 1557.41 2139.37 1548.69 Q2139.37 1539.94 2142.43 1535.35 Q2145.51 1530.75 2151.32 1530.75 Z" fill="#000000" fill-rule="evenodd" fill-opacity="1" /><path clip-path="url(#clip810)" d="M 0 0 M1004.76 1663.68 L1004.76 1614.48 L1010.61 1614.48 L1010.61 1636.63 Q1010.61 1641.24 1012.81 1643.6 Q1015.01 1645.95 1019.3 1645.95 Q1024.01 1645.95 1026.37 1643.28 Q1028.76 1640.61 1028.76 1635.26 L1028.76 1614.48 L1034.61 1614.48 L1034.61 1641.91 Q1034.61 1643.82 1035.15 1644.74 Q1035.73 1645.64 1036.9 1645.64 Q1037.19 1645.64 1037.7 1645.48 Q1038.21 1645.29 1039.1 1644.9 L1039.1 1649.61 Q1037.8 1650.35 1036.62 1650.7 Q1035.47 1651.05 1034.36 1651.05 Q1032.16 1651.05 1030.86 1649.81 Q1029.55 1648.56 1029.07 1646.02 Q1027.48 1648.53 1025.16 1649.81 Q1022.87 1651.05 1019.75 1651.05 Q1016.5 1651.05 1014.21 1649.81 Q1011.95 1648.56 1010.61 1646.08 L1010.61 1663.68 L1004.76 1663.68 Z" fill="#000000" fill-rule="evenodd" fill-opacity="1" /><path clip-path="url(#clip810)" d="M 0 0 M1073.51 1600.31 L1073.51 1665.5 L1068.1 1665.5 L1068.1 1600.31 L1073.51 1600.31 Z" fill="#000000" fill-rule="evenodd" fill-opacity="1" /><path clip-path="url(#clip810)" d="M 0 0 M1096.96 1614.48 L1102.82 1614.48 L1110.14 1642.29 L1117.43 1614.48 L1124.34 1614.48 L1131.66 1642.29 L1138.95 1614.48 L1144.8 1614.48 L1135.48 1650.12 L1128.57 1650.12 L1120.9 1620.91 L1113.2 1650.12 L1106.29 1650.12 L1096.96 1614.48 Z" fill="#000000" fill-rule="evenodd" fill-opacity="1" /><path clip-path="url(#clip810)" d="M 0 0 M1181.44 1630.84 L1181.44 1633.7 L1154.51 1633.7 Q1154.89 1639.75 1158.14 1642.93 Q1161.42 1646.08 1167.24 1646.08 Q1170.62 1646.08 1173.77 1645.25 Q1176.95 1644.43 1180.07 1642.77 L1180.07 1648.31 Q1176.92 1649.65 1173.61 1650.35 Q1170.3 1651.05 1166.89 1651.05 Q1158.36 1651.05 1153.36 1646.08 Q1148.4 1641.12 1148.4 1632.65 Q1148.4 1623.9 1153.11 1618.77 Q1157.85 1613.62 1165.87 1613.62 Q1173.07 1613.62 1177.24 1618.26 Q1181.44 1622.88 1181.44 1630.84 M1175.58 1629.12 Q1175.52 1624.31 1172.88 1621.45 Q1170.27 1618.58 1165.94 1618.58 Q1161.04 1618.58 1158.08 1621.35 Q1155.15 1624.12 1154.7 1629.15 L1175.58 1629.12 Z" fill="#000000" fill-rule="evenodd" fill-opacity="1" /><path clip-path="url(#clip810)" d="M 0 0 M1187.58 1614.48 L1193.44 1614.48 L1193.44 1650.12 L1187.58 1650.12 L1187.58 1614.48 M1187.58 1600.6 L1193.44 1600.6 L1193.44 1608.01 L1187.58 1608.01 L1187.58 1600.6 Z" fill="#000000" fill-rule="evenodd" fill-opacity="1" /><path clip-path="url(#clip810)" d="M 0 0 M1223.04 1631.89 Q1223.04 1625.52 1220.4 1622.02 Q1217.79 1618.52 1213.04 1618.52 Q1208.33 1618.52 1205.69 1622.02 Q1203.08 1625.52 1203.08 1631.89 Q1203.08 1638.22 1205.69 1641.72 Q1208.33 1645.22 1213.04 1645.22 Q1217.79 1645.22 1220.4 1641.72 Q1223.04 1638.22 1223.04 1631.89 M1228.89 1645.7 Q1228.89 1654.8 1224.85 1659.23 Q1220.81 1663.68 1212.47 1663.68 Q1209.38 1663.68 1206.65 1663.21 Q1203.91 1662.76 1201.33 1661.8 L1201.33 1656.11 Q1203.91 1657.51 1206.42 1658.18 Q1208.94 1658.84 1211.55 1658.84 Q1217.31 1658.84 1220.17 1655.82 Q1223.04 1652.83 1223.04 1646.75 L1223.04 1643.85 Q1221.22 1647 1218.39 1648.56 Q1215.56 1650.12 1211.61 1650.12 Q1205.05 1650.12 1201.04 1645.13 Q1197.03 1640.13 1197.03 1631.89 Q1197.03 1623.61 1201.04 1618.61 Q1205.05 1613.62 1211.61 1613.62 Q1215.56 1613.62 1218.39 1615.18 Q1221.22 1616.74 1223.04 1619.89 L1223.04 1614.48 L1228.89 1614.48 L1228.89 1645.7 Z" fill="#000000" fill-rule="evenodd" fill-opacity="1" /><path clip-path="url(#clip810)" d="M 0 0 M1264.67 1628.61 L1264.67 1650.12 L1258.81 1650.12 L1258.81 1628.8 Q1258.81 1623.74 1256.84 1621.22 Q1254.87 1618.71 1250.92 1618.71 Q1246.18 1618.71 1243.44 1621.73 Q1240.7 1624.76 1240.7 1629.98 L1240.7 1650.12 L1234.81 1650.12 L1234.81 1600.6 L1240.7 1600.6 L1240.7 1620.01 Q1242.8 1616.8 1245.64 1615.21 Q1248.5 1613.62 1252.22 1613.62 Q1258.37 1613.62 1261.52 1617.44 Q1264.67 1621.22 1264.67 1628.61 Z" fill="#000000" fill-rule="evenodd" fill-opacity="1" /><path clip-path="url(#clip810)" d="M 0 0 M1276.6 1604.35 L1276.6 1614.48 L1288.67 1614.48 L1288.67 1619.03 L1276.6 1619.03 L1276.6 1638.38 Q1276.6 1642.74 1277.78 1643.98 Q1278.99 1645.22 1282.65 1645.22 L1288.67 1645.22 L1288.67 1650.12 L1282.65 1650.12 Q1275.87 1650.12 1273.29 1647.61 Q1270.72 1645.06 1270.72 1638.38 L1270.72 1619.03 L1266.42 1619.03 L1266.42 1614.48 L1270.72 1614.48 L1270.72 1604.35 L1276.6 1604.35 Z" fill="#000000" fill-rule="evenodd" fill-opacity="1" /><path clip-path="url(#clip810)" d="M 0 0 M1316.3 1620.52 L1357.1 1620.52 L1357.1 1625.87 L1316.3 1625.87 L1316.3 1620.52 M1316.3 1633.51 L1357.1 1633.51 L1357.1 1638.92 L1316.3 1638.92 L1316.3 1633.51 Z" fill="#000000" fill-rule="evenodd" fill-opacity="1" /><path clip-path="url(#clip810)" d="M 0 0 M1384.85 1602.6 L1410.09 1602.6 L1410.09 1608.01 L1390.74 1608.01 L1390.74 1619.66 Q1392.14 1619.19 1393.54 1618.96 Q1394.94 1618.71 1396.34 1618.71 Q1404.3 1618.71 1408.95 1623.07 Q1413.59 1627.43 1413.59 1634.88 Q1413.59 1642.55 1408.82 1646.81 Q1404.05 1651.05 1395.36 1651.05 Q1392.37 1651.05 1389.25 1650.54 Q1386.16 1650.03 1382.85 1649.01 L1382.85 1642.55 Q1385.71 1644.11 1388.77 1644.87 Q1391.82 1645.64 1395.23 1645.64 Q1400.74 1645.64 1403.95 1642.74 Q1407.17 1639.84 1407.17 1634.88 Q1407.17 1629.91 1403.95 1627.02 Q1400.74 1624.12 1395.23 1624.12 Q1392.65 1624.12 1390.07 1624.69 Q1387.53 1625.27 1384.85 1626.48 L1384.85 1602.6 Z" fill="#000000" fill-rule="evenodd" fill-opacity="1" /><path clip-path="url(#clip810)" d="M 0 0 M1434.32 1606.84 Q1429.35 1606.84 1426.84 1611.74 Q1424.35 1616.61 1424.35 1626.41 Q1424.35 1636.18 1426.84 1641.08 Q1429.35 1645.95 1434.32 1645.95 Q1439.31 1645.95 1441.79 1641.08 Q1444.31 1636.18 1444.31 1626.41 Q1444.31 1616.61 1441.79 1611.74 Q1439.31 1606.84 1434.32 1606.84 M1434.32 1601.74 Q1442.3 1601.74 1446.51 1608.08 Q1450.74 1614.38 1450.74 1626.41 Q1450.74 1638.41 1446.51 1644.74 Q1442.3 1651.05 1434.32 1651.05 Q1426.33 1651.05 1422.09 1644.74 Q1417.89 1638.41 1417.89 1626.41 Q1417.89 1614.38 1422.09 1608.08 Q1426.33 1601.74 1434.32 1601.74 Z" fill="#000000" fill-rule="evenodd" fill-opacity="1" /><polyline clip-path="url(#clip812)" style="stroke:#000000; stroke-width:2; stroke-opacity:0.1; fill:none" points="
  102.74,1464.09 2352.76,1464.09 
  "/>
<polyline clip-path="url(#clip812)" style="stroke:#000000; stroke-width:2; stroke-opacity:0.1; fill:none" points="
  102.74,1247.7 2352.76,1247.7 
  "/>
<polyline clip-path="url(#clip812)" style="stroke:#000000; stroke-width:2; stroke-opacity:0.1; fill:none" points="
  102.74,1031.3 2352.76,1031.3 
  "/>
<polyline clip-path="url(#clip812)" style="stroke:#000000; stroke-width:2; stroke-opacity:0.1; fill:none" points="
  102.74,814.91 2352.76,814.91 
  "/>
<polyline clip-path="url(#clip812)" style="stroke:#000000; stroke-width:2; stroke-opacity:0.1; fill:none" points="
  102.74,598.516 2352.76,598.516 
  "/>
<polyline clip-path="url(#clip812)" style="stroke:#000000; stroke-width:2; stroke-opacity:0.1; fill:none" points="
  102.74,382.122 2352.76,382.122 
  "/>
<polyline clip-path="url(#clip812)" style="stroke:#000000; stroke-width:2; stroke-opacity:0.1; fill:none" points="
  102.74,165.728 2352.76,165.728 
  "/>
<polyline clip-path="url(#clip810)" style="stroke:#000000; stroke-width:4; stroke-opacity:1; fill:none" points="
  102.74,1505.26 102.74,47.2441 
  "/>
<polyline clip-path="url(#clip810)" style="stroke:#000000; stroke-width:4; stroke-opacity:1; fill:none" points="
  102.74,1464.09 129.74,1464.09 
  "/>
<polyline clip-path="url(#clip810)" style="stroke:#000000; stroke-width:4; stroke-opacity:1; fill:none" points="
  102.74,1247.7 129.74,1247.7 
  "/>
<polyline clip-path="url(#clip810)" style="stroke:#000000; stroke-width:4; stroke-opacity:1; fill:none" points="
  102.74,1031.3 129.74,1031.3 
  "/>
<polyline clip-path="url(#clip810)" style="stroke:#000000; stroke-width:4; stroke-opacity:1; fill:none" points="
  102.74,814.91 129.74,814.91 
  "/>
<polyline clip-path="url(#clip810)" style="stroke:#000000; stroke-width:4; stroke-opacity:1; fill:none" points="
  102.74,598.516 129.74,598.516 
  "/>
<polyline clip-path="url(#clip810)" style="stroke:#000000; stroke-width:4; stroke-opacity:1; fill:none" points="
  102.74,382.122 129.74,382.122 
  "/>
<polyline clip-path="url(#clip810)" style="stroke:#000000; stroke-width:4; stroke-opacity:1; fill:none" points="
  102.74,165.728 129.74,165.728 
  "/>
<path clip-path="url(#clip810)" d="M 0 0 M17.8284 1449.89 Q14.2173 1449.89 12.3886 1453.46 Q10.5831 1457 10.5831 1464.13 Q10.5831 1471.23 12.3886 1474.8 Q14.2173 1478.34 17.8284 1478.34 Q21.4626 1478.34 23.2682 1474.8 Q25.0969 1471.23 25.0969 1464.13 Q25.0969 1457 23.2682 1453.46 Q21.4626 1449.89 17.8284 1449.89 M17.8284 1446.19 Q23.6385 1446.19 26.6941 1450.79 Q29.7728 1455.38 29.7728 1464.13 Q29.7728 1472.85 26.6941 1477.46 Q23.6385 1482.04 17.8284 1482.04 Q12.0182 1482.04 8.93954 1477.46 Q5.884 1472.85 5.884 1464.13 Q5.884 1455.38 8.93954 1450.79 Q12.0182 1446.19 17.8284 1446.19 Z" fill="#000000" fill-rule="evenodd" fill-opacity="1" /><path clip-path="url(#clip810)" d="M 0 0 M34.8422 1475.49 L39.7264 1475.49 L39.7264 1481.37 L34.8422 1481.37 L34.8422 1475.49 Z" fill="#000000" fill-rule="evenodd" fill-opacity="1" /><path clip-path="url(#clip810)" d="M 0 0 M54.7958 1449.89 Q51.1847 1449.89 49.356 1453.46 Q47.5504 1457 47.5504 1464.13 Q47.5504 1471.23 49.356 1474.8 Q51.1847 1478.34 54.7958 1478.34 Q58.43 1478.34 60.2356 1474.8 Q62.0643 1471.23 62.0643 1464.13 Q62.0643 1457 60.2356 1453.46 Q58.43 1449.89 54.7958 1449.89 M54.7958 1446.19 Q60.6059 1446.19 63.6615 1450.79 Q66.7402 1455.38 66.7402 1464.13 Q66.7402 1472.85 63.6615 1477.46 Q60.6059 1482.04 54.7958 1482.04 Q48.9856 1482.04 45.9069 1477.46 Q42.8514 1472.85 42.8514 1464.13 Q42.8514 1455.38 45.9069 1450.79 Q48.9856 1446.19 54.7958 1446.19 Z" fill="#000000" fill-rule="evenodd" fill-opacity="1" /><path clip-path="url(#clip810)" d="M 0 0 M19.4256 1233.5 Q15.8145 1233.5 13.9858 1237.06 Q12.1803 1240.6 12.1803 1247.73 Q12.1803 1254.84 13.9858 1258.4 Q15.8145 1261.95 19.4256 1261.95 Q23.0598 1261.95 24.8654 1258.4 Q26.6941 1254.84 26.6941 1247.73 Q26.6941 1240.6 24.8654 1237.06 Q23.0598 1233.5 19.4256 1233.5 M19.4256 1229.79 Q25.2358 1229.79 28.2913 1234.4 Q31.37 1238.98 31.37 1247.73 Q31.37 1256.46 28.2913 1261.07 Q25.2358 1265.65 19.4256 1265.65 Q13.6154 1265.65 10.5368 1261.07 Q7.48122 1256.46 7.48122 1247.73 Q7.48122 1238.98 10.5368 1234.4 Q13.6154 1229.79 19.4256 1229.79 Z" fill="#000000" fill-rule="evenodd" fill-opacity="1" /><path clip-path="url(#clip810)" d="M 0 0 M36.4394 1259.1 L41.3236 1259.1 L41.3236 1264.98 L36.4394 1264.98 L36.4394 1259.1 Z" fill="#000000" fill-rule="evenodd" fill-opacity="1" /><path clip-path="url(#clip810)" d="M 0 0 M50.4208 1261.04 L66.7402 1261.04 L66.7402 1264.98 L44.7958 1264.98 L44.7958 1261.04 Q47.4579 1258.29 52.0412 1253.66 Q56.6476 1249.01 57.8282 1247.66 Q60.0735 1245.14 60.9532 1243.4 Q61.8559 1241.64 61.8559 1239.96 Q61.8559 1237.2 59.9115 1235.46 Q57.9902 1233.73 54.8884 1233.73 Q52.6893 1233.73 50.2356 1234.49 Q47.8051 1235.26 45.0273 1236.81 L45.0273 1232.08 Q47.8514 1230.95 50.3051 1230.37 Q52.7588 1229.79 54.7958 1229.79 Q60.1661 1229.79 63.3605 1232.48 Q66.555 1235.16 66.555 1239.65 Q66.555 1241.78 65.7448 1243.71 Q64.9578 1245.6 62.8513 1248.2 Q62.2726 1248.87 59.1708 1252.08 Q56.0689 1255.28 50.4208 1261.04 Z" fill="#000000" fill-rule="evenodd" fill-opacity="1" /><path clip-path="url(#clip810)" d="M 0 0 M17.3423 1017.1 Q13.7312 1017.1 11.9025 1020.67 Q10.0969 1024.21 10.0969 1031.34 Q10.0969 1038.45 11.9025 1042.01 Q13.7312 1045.55 17.3423 1045.55 Q20.9765 1045.55 22.7821 1042.01 Q24.6108 1038.45 24.6108 1031.34 Q24.6108 1024.21 22.7821 1020.67 Q20.9765 1017.1 17.3423 1017.1 M17.3423 1013.4 Q23.1524 1013.4 26.208 1018.01 Q29.2867 1022.59 29.2867 1031.34 Q29.2867 1040.07 26.208 1044.67 Q23.1524 1049.26 17.3423 1049.26 Q11.5321 1049.26 8.45343 1044.67 Q5.39789 1040.07 5.39789 1031.34 Q5.39789 1022.59 8.45343 1018.01 Q11.5321 1013.4 17.3423 1013.4 Z" fill="#000000" fill-rule="evenodd" fill-opacity="1" /><path clip-path="url(#clip810)" d="M 0 0 M34.3561 1042.7 L39.2403 1042.7 L39.2403 1048.58 L34.3561 1048.58 L34.3561 1042.7 Z" fill="#000000" fill-rule="evenodd" fill-opacity="1" /><path clip-path="url(#clip810)" d="M 0 0 M57.1569 1018.1 L45.3514 1036.55 L57.1569 1036.55 L57.1569 1018.1 M55.93 1014.02 L61.8096 1014.02 L61.8096 1036.55 L66.7402 1036.55 L66.7402 1040.44 L61.8096 1040.44 L61.8096 1048.58 L57.1569 1048.58 L57.1569 1040.44 L41.5551 1040.44 L41.5551 1035.92 L55.93 1014.02 Z" fill="#000000" fill-rule="evenodd" fill-opacity="1" /><path clip-path="url(#clip810)" d="M 0 0 M17.6663 800.709 Q14.0553 800.709 12.2266 804.274 Q10.421 807.815 10.421 814.945 Q10.421 822.051 12.2266 825.616 Q14.0553 829.158 17.6663 829.158 Q21.3006 829.158 23.1061 825.616 Q24.9348 822.051 24.9348 814.945 Q24.9348 807.815 23.1061 804.274 Q21.3006 800.709 17.6663 800.709 M17.6663 797.005 Q23.4765 797.005 26.532 801.612 Q29.6107 806.195 29.6107 814.945 Q29.6107 823.672 26.532 828.278 Q23.4765 832.862 17.6663 832.862 Q11.8562 832.862 8.77751 828.278 Q5.72197 823.672 5.72197 814.945 Q5.72197 806.195 8.77751 801.612 Q11.8562 797.005 17.6663 797.005 Z" fill="#000000" fill-rule="evenodd" fill-opacity="1" /><path clip-path="url(#clip810)" d="M 0 0 M34.6801 826.311 L39.5644 826.311 L39.5644 832.19 L34.6801 832.19 L34.6801 826.311 Z" fill="#000000" fill-rule="evenodd" fill-opacity="1" /><path clip-path="url(#clip810)" d="M 0 0 M55.2124 813.047 Q52.0643 813.047 50.2125 815.2 Q48.3838 817.352 48.3838 821.102 Q48.3838 824.829 50.2125 827.005 Q52.0643 829.158 55.2124 829.158 Q58.3606 829.158 60.1893 827.005 Q62.0411 824.829 62.0411 821.102 Q62.0411 817.352 60.1893 815.2 Q58.3606 813.047 55.2124 813.047 M64.4948 798.394 L64.4948 802.653 Q62.7355 801.82 60.93 801.38 Q59.1476 800.94 57.3884 800.94 Q52.7588 800.94 50.3051 804.065 Q47.8745 807.19 47.5273 813.51 Q48.893 811.496 50.9532 810.431 Q53.0134 809.343 55.4902 809.343 Q60.6985 809.343 63.7078 812.514 Q66.7402 815.663 66.7402 821.102 Q66.7402 826.426 63.592 829.644 Q60.4439 832.862 55.2124 832.862 Q49.2171 832.862 46.0458 828.278 Q42.8745 823.672 42.8745 814.945 Q42.8745 806.751 46.7634 801.889 Q50.6523 797.005 57.2032 797.005 Q58.9624 797.005 60.7448 797.352 Q62.5504 797.7 64.4948 798.394 Z" fill="#000000" fill-rule="evenodd" fill-opacity="1" /><path clip-path="url(#clip810)" d="M 0 0 M17.921 584.315 Q14.3099 584.315 12.4812 587.88 Q10.6756 591.421 10.6756 598.551 Q10.6756 605.657 12.4812 609.222 Q14.3099 612.764 17.921 612.764 Q21.5552 612.764 23.3608 609.222 Q25.1895 605.657 25.1895 598.551 Q25.1895 591.421 23.3608 587.88 Q21.5552 584.315 17.921 584.315 M17.921 580.611 Q23.7311 580.611 26.7867 585.218 Q29.8654 589.801 29.8654 598.551 Q29.8654 607.278 26.7867 611.884 Q23.7311 616.468 17.921 616.468 Q12.1108 616.468 9.03213 611.884 Q5.97659 607.278 5.97659 598.551 Q5.97659 589.801 9.03213 585.218 Q12.1108 580.611 17.921 580.611 Z" fill="#000000" fill-rule="evenodd" fill-opacity="1" /><path clip-path="url(#clip810)" d="M 0 0 M34.9348 609.917 L39.819 609.917 L39.819 615.796 L34.9348 615.796 L34.9348 609.917 Z" fill="#000000" fill-rule="evenodd" fill-opacity="1" /><path clip-path="url(#clip810)" d="M 0 0 M54.8884 599.384 Q51.5551 599.384 49.6338 601.167 Q47.7356 602.949 47.7356 606.074 Q47.7356 609.199 49.6338 610.982 Q51.5551 612.764 54.8884 612.764 Q58.2217 612.764 60.143 610.982 Q62.0643 609.176 62.0643 606.074 Q62.0643 602.949 60.143 601.167 Q58.2448 599.384 54.8884 599.384 M50.2125 597.394 Q47.2032 596.653 45.5134 594.593 Q43.8468 592.533 43.8468 589.57 Q43.8468 585.426 46.7866 583.019 Q49.7495 580.611 54.8884 580.611 Q60.0504 580.611 62.9902 583.019 Q65.93 585.426 65.93 589.57 Q65.93 592.533 64.2402 594.593 Q62.5735 596.653 59.5874 597.394 Q62.967 598.181 64.842 600.472 Q66.7402 602.764 66.7402 606.074 Q66.7402 611.097 63.6615 613.782 Q60.6059 616.468 54.8884 616.468 Q49.1708 616.468 46.0921 613.782 Q43.0366 611.097 43.0366 606.074 Q43.0366 602.764 44.9347 600.472 Q46.8329 598.181 50.2125 597.394 M48.4995 590.009 Q48.4995 592.695 50.1662 594.199 Q51.856 595.704 54.8884 595.704 Q57.8976 595.704 59.5874 594.199 Q61.3004 592.695 61.3004 590.009 Q61.3004 587.324 59.5874 585.82 Q57.8976 584.315 54.8884 584.315 Q51.856 584.315 50.1662 585.82 Q48.4995 587.324 48.4995 590.009 Z" fill="#000000" fill-rule="evenodd" fill-opacity="1" /><path clip-path="url(#clip810)" d="M 0 0 M9.86546 395.467 L17.5043 395.467 L17.5043 369.102 L9.19417 370.768 L9.19417 366.509 L17.458 364.842 L22.1339 364.842 L22.1339 395.467 L29.7728 395.467 L29.7728 399.402 L9.86546 399.402 L9.86546 395.467 Z" fill="#000000" fill-rule="evenodd" fill-opacity="1" /><path clip-path="url(#clip810)" d="M 0 0 M34.8422 393.523 L39.7264 393.523 L39.7264 399.402 L34.8422 399.402 L34.8422 393.523 Z" fill="#000000" fill-rule="evenodd" fill-opacity="1" /><path clip-path="url(#clip810)" d="M 0 0 M54.7958 367.921 Q51.1847 367.921 49.356 371.486 Q47.5504 375.028 47.5504 382.157 Q47.5504 389.264 49.356 392.828 Q51.1847 396.37 54.7958 396.37 Q58.43 396.37 60.2356 392.828 Q62.0643 389.264 62.0643 382.157 Q62.0643 375.028 60.2356 371.486 Q58.43 367.921 54.7958 367.921 M54.7958 364.217 Q60.6059 364.217 63.6615 368.824 Q66.7402 373.407 66.7402 382.157 Q66.7402 390.884 63.6615 395.49 Q60.6059 400.074 54.7958 400.074 Q48.9856 400.074 45.9069 395.49 Q42.8514 390.884 42.8514 382.157 Q42.8514 373.407 45.9069 368.824 Q48.9856 364.217 54.7958 364.217 Z" fill="#000000" fill-rule="evenodd" fill-opacity="1" /><path clip-path="url(#clip810)" d="M 0 0 M11.4627 179.073 L19.1015 179.073 L19.1015 152.708 L10.7914 154.374 L10.7914 150.115 L19.0552 148.448 L23.7311 148.448 L23.7311 179.073 L31.37 179.073 L31.37 183.008 L11.4627 183.008 L11.4627 179.073 Z" fill="#000000" fill-rule="evenodd" fill-opacity="1" /><path clip-path="url(#clip810)" d="M 0 0 M36.4394 177.129 L41.3236 177.129 L41.3236 183.008 L36.4394 183.008 L36.4394 177.129 Z" fill="#000000" fill-rule="evenodd" fill-opacity="1" /><path clip-path="url(#clip810)" d="M 0 0 M50.4208 179.073 L66.7402 179.073 L66.7402 183.008 L44.7958 183.008 L44.7958 179.073 Q47.4579 176.319 52.0412 171.689 Q56.6476 167.036 57.8282 165.694 Q60.0735 163.171 60.9532 161.435 Q61.8559 159.675 61.8559 157.985 Q61.8559 155.231 59.9115 153.495 Q57.9902 151.759 54.8884 151.759 Q52.6893 151.759 50.2356 152.523 Q47.8051 153.286 45.0273 154.837 L45.0273 150.115 Q47.8514 148.981 50.3051 148.402 Q52.7588 147.823 54.7958 147.823 Q60.1661 147.823 63.3605 150.509 Q66.555 153.194 66.555 157.685 Q66.555 159.814 65.7448 161.735 Q64.9578 163.634 62.8513 166.226 Q62.2726 166.897 59.1708 170.115 Q56.0689 173.309 50.4208 179.073 Z" fill="#000000" fill-rule="evenodd" fill-opacity="1" /><path clip-path="url(#clip810)" d="M 0 0 M-87.0946 877.705 L-50.1416 877.705 L-50.1416 869.939 Q-50.1416 860.104 -54.5976 855.553 Q-59.0536 850.969 -68.6658 850.969 Q-78.2144 850.969 -82.6386 855.553 Q-87.0946 860.104 -87.0946 869.939 L-87.0946 877.705 M-92.3781 884.135 L-92.3781 870.926 Q-92.3781 857.112 -86.6171 850.651 Q-80.888 844.19 -68.6658 844.19 Q-56.38 844.19 -50.6191 850.683 Q-44.8581 857.176 -44.8581 870.926 L-44.8581 884.135 L-92.3781 884.135 Z" fill="#000000" fill-rule="evenodd" fill-opacity="1" /><path clip-path="url(#clip810)" d="M 0 0 M-64.1462 807.555 L-61.2816 807.555 L-61.2816 834.482 Q-55.2342 834.1 -52.0514 830.854 Q-48.9003 827.575 -48.9003 821.751 Q-48.9003 818.377 -49.7279 815.226 Q-50.5554 812.043 -52.2105 808.924 L-46.6723 808.924 Q-45.3355 812.075 -44.6353 815.385 Q-43.9351 818.695 -43.9351 822.101 Q-43.9351 830.631 -48.9003 835.628 Q-53.8656 840.593 -62.332 840.593 Q-71.0848 840.593 -76.2092 835.883 Q-81.3654 831.14 -81.3654 823.119 Q-81.3654 815.926 -76.7185 811.757 Q-72.1033 807.555 -64.1462 807.555 M-65.8649 813.412 Q-70.671 813.475 -73.5356 816.117 Q-76.4002 818.727 -76.4002 823.056 Q-76.4002 827.957 -73.6311 830.917 Q-70.862 833.846 -65.8331 834.291 L-65.8649 813.412 Z" fill="#000000" fill-rule="evenodd" fill-opacity="1" /><path clip-path="url(#clip810)" d="M 0 0 M-66.3742 771.78 L-44.8581 771.78 L-44.8581 777.637 L-66.1832 777.637 Q-71.244 777.637 -73.7584 779.61 Q-76.2729 781.583 -76.2729 785.53 Q-76.2729 790.272 -73.2492 793.01 Q-70.2254 795.747 -65.0056 795.747 L-44.8581 795.747 L-44.8581 801.635 L-80.5061 801.635 L-80.5061 795.747 L-74.9679 795.747 Q-78.1826 793.646 -79.774 790.814 Q-81.3654 787.949 -81.3654 784.225 Q-81.3654 778.082 -77.546 774.931 Q-73.7584 771.78 -66.3742 771.78 Z" fill="#000000" fill-rule="evenodd" fill-opacity="1" /><path clip-path="url(#clip810)" d="M 0 0 M-79.4557 742.912 L-73.9176 742.912 Q-75.1907 745.394 -75.8273 748.068 Q-76.4638 750.741 -76.4638 753.606 Q-76.4638 757.966 -75.127 760.163 Q-73.7902 762.327 -71.1166 762.327 Q-69.0796 762.327 -67.902 760.767 Q-66.7561 759.208 -65.7058 754.497 L-65.2602 752.492 Q-63.9234 746.254 -61.4726 743.644 Q-59.0536 741.002 -54.6931 741.002 Q-49.7279 741.002 -46.8315 744.949 Q-43.9351 748.864 -43.9351 755.738 Q-43.9351 758.603 -44.508 761.722 Q-45.0491 764.81 -46.1631 768.247 L-52.2105 768.247 Q-50.5236 765.001 -49.6642 761.85 Q-48.8367 758.699 -48.8367 755.611 Q-48.8367 751.473 -50.2371 749.245 Q-51.6694 747.017 -54.2475 747.017 Q-56.6347 747.017 -57.9078 748.641 Q-59.1809 750.232 -60.3586 755.675 L-60.836 757.712 Q-61.9819 763.155 -64.3372 765.573 Q-66.7243 767.992 -70.862 767.992 Q-75.8909 767.992 -78.6282 764.428 Q-81.3654 760.863 -81.3654 754.306 Q-81.3654 751.06 -80.888 748.195 Q-80.4106 745.331 -79.4557 742.912 Z" fill="#000000" fill-rule="evenodd" fill-opacity="1" /><path clip-path="url(#clip810)" d="M 0 0 M-80.5061 734.859 L-80.5061 729.003 L-44.8581 729.003 L-44.8581 734.859 L-80.5061 734.859 M-94.3833 734.859 L-94.3833 729.003 L-86.9673 729.003 L-86.9673 734.859 L-94.3833 734.859 Z" fill="#000000" fill-rule="evenodd" fill-opacity="1" /><path clip-path="url(#clip810)" d="M 0 0 M-90.6275 717.067 L-80.5061 717.067 L-80.5061 705.004 L-75.9546 705.004 L-75.9546 717.067 L-56.6028 717.067 Q-52.2423 717.067 -51.001 715.889 Q-49.7597 714.68 -49.7597 711.019 L-49.7597 705.004 L-44.8581 705.004 L-44.8581 711.019 Q-44.8581 717.799 -47.3726 720.377 Q-49.9188 722.955 -56.6028 722.955 L-75.9546 722.955 L-75.9546 727.252 L-80.5061 727.252 L-80.5061 722.955 L-90.6275 722.955 L-90.6275 717.067 Z" fill="#000000" fill-rule="evenodd" fill-opacity="1" /><path clip-path="url(#clip810)" d="M 0 0 M-41.5479 684.029 Q-35.1822 686.511 -33.2407 688.867 Q-31.2992 691.222 -31.2992 695.169 L-31.2992 699.848 L-36.2007 699.848 L-36.2007 696.41 Q-36.2007 693.991 -37.3466 692.654 Q-38.4924 691.318 -42.7574 689.694 L-45.431 688.644 L-80.5061 703.062 L-80.5061 696.856 L-52.6243 685.716 L-80.5061 674.576 L-80.5061 668.369 L-41.5479 684.029 Z" fill="#000000" fill-rule="evenodd" fill-opacity="1" /><polyline clip-path="url(#clip812)" style="stroke:#009af9; stroke-width:4; stroke-opacity:1; fill:none" points="
  166.42,1464 177.086,1463.99 187.753,1463.97 198.42,1463.93 209.086,1463.89 219.753,1463.82 230.42,1463.74 241.086,1463.62 251.753,1463.48 262.419,1463.29 
  273.086,1463.04 283.753,1462.73 294.419,1462.34 305.086,1461.86 315.752,1461.25 326.419,1460.5 337.086,1459.57 347.752,1458.44 358.419,1457.08 369.086,1455.43 
  379.752,1453.45 390.419,1451.1 401.085,1448.32 411.752,1445.06 422.419,1441.25 433.085,1436.82 443.752,1431.72 454.418,1425.88 465.085,1419.22 475.752,1411.69 
  486.418,1403.21 497.085,1393.74 507.752,1383.2 518.418,1371.57 529.085,1358.8 539.751,1344.86 550.418,1329.74 561.085,1313.42 571.751,1295.93 582.418,1277.29 
  593.084,1257.54 603.751,1236.74 614.418,1214.96 625.084,1192.28 635.751,1168.81 646.418,1144.67 657.084,1119.98 667.751,1094.89 678.417,1069.53 689.084,1044.06 
  699.751,1018.63 710.417,993.398 721.084,968.507 731.75,944.101 742.417,920.311 753.084,897.253 763.75,875.026 774.417,853.712 785.084,833.365 795.75,814.018 
  806.417,795.676 817.083,778.319 827.75,761.896 838.417,746.333 849.083,731.53 859.75,717.362 870.416,703.689 881.083,690.352 891.75,677.182 902.416,664.006 
  913.083,650.649 923.75,636.943 934.416,622.73 945.083,607.871 955.749,592.247 966.416,575.766 977.083,558.366 987.749,540.017 998.416,520.724 1009.08,500.525 
  1019.75,479.492 1030.42,457.726 1041.08,435.359 1051.75,412.544 1062.42,389.451 1073.08,366.266 1083.75,343.179 1094.42,320.379 1105.08,298.052 1115.75,276.37 
  1126.42,255.492 1137.08,235.554 1147.75,216.674 1158.42,198.944 1169.08,182.433 1179.75,167.192 1190.41,153.251 1201.08,140.627 1211.75,129.327 1222.41,119.356 
  1233.08,110.719 1243.75,103.43 1254.41,97.512 1265.08,93.0086 1275.75,89.9803 1286.41,88.5087 1297.08,88.6959 1307.75,90.6625 1318.41,94.544 1329.08,100.486 
  1339.75,108.636 1350.41,119.138 1361.08,132.123 1371.75,147.7 1382.41,165.948 1393.08,186.911 1403.75,210.586 1414.41,236.922 1425.08,265.817 1435.75,297.115 
  1446.41,330.609 1457.08,366.043 1467.75,403.118 1478.41,441.5 1489.08,480.828 1499.75,520.725 1510.41,560.809 1521.08,600.702 1531.75,640.044 1542.41,678.502 
  1553.08,715.778 1563.75,751.619 1574.41,785.819 1585.08,818.227 1595.75,848.747 1606.41,877.336 1617.08,904.006 1627.75,928.814 1638.41,951.862 1649.08,973.289 
  1659.75,993.258 1670.41,1011.96 1681.08,1029.58 1691.75,1046.33 1702.41,1062.41 1713.08,1077.99 1723.75,1093.24 1734.41,1108.32 1745.08,1123.34 1755.75,1138.38 
  1766.41,1153.53 1777.08,1168.8 1787.75,1184.21 1798.41,1199.74 1809.08,1215.35 1819.75,1230.99 1830.41,1246.57 1841.08,1262.02 1851.75,1277.24 1862.41,1292.15 
  1873.08,1306.65 1883.74,1320.67 1894.41,1334.11 1905.08,1346.92 1915.74,1359.03 1926.41,1370.41 1937.08,1381.02 1947.74,1390.83 1958.41,1399.85 1969.08,1408.09 
  1979.74,1415.54 1990.41,1422.25 2001.08,1428.24 2011.74,1433.55 2022.41,1438.23 2033.08,1442.32 2043.74,1445.87 2054.41,1448.94 2065.08,1451.56 2075.74,1453.79 
  2086.41,1455.68 2097.08,1457.26 2107.74,1458.58 2118.41,1459.67 2129.08,1460.56 2139.74,1461.3 2150.41,1461.89 2161.08,1462.37 2171.74,1462.75 2182.41,1463.05 
  2193.08,1463.29 2203.74,1463.48 2214.41,1463.63 2225.08,1463.74 2235.74,1463.82 2246.41,1463.89 2257.08,1463.93 2267.74,1463.97 2278.41,1463.99 2289.08,1464 
  
  "/>
</svg>
