<?xml version="1.0" encoding="utf-8"?>
<svg xmlns="http://www.w3.org/2000/svg" xmlns:xlink="http://www.w3.org/1999/xlink" width="600" height="400" viewBox="0 0 2400 1600">
<defs>
  <clipPath id="clip930">
    <rect x="0" y="0" width="2400" height="1600"/>
  </clipPath>
</defs>
<path clip-path="url(#clip930)" d="
M0 1600 L2400 1600 L2400 0 L0 0  Z
  " fill="#ffffff" fill-rule="evenodd" fill-opacity="1"/>
<defs>
  <clipPath id="clip931">
    <rect x="480" y="0" width="1681" height="1600"/>
  </clipPath>
</defs>
<path clip-path="url(#clip930)" d="
M86.9921 1521.01 L2112.76 1521.01 L2112.76 47.2441 L86.9921 47.2441  Z
  " fill="#ffffff" fill-rule="evenodd" fill-opacity="1"/>
<defs>
  <clipPath id="clip932">
    <rect x="86" y="47" width="2027" height="1475"/>
  </clipPath>
</defs>
<polyline clip-path="url(#clip932)" style="stroke:#000000; stroke-width:2; stroke-opacity:0.1; fill:none" points="
  86.9921,1521.01 86.9921,47.2441 
  "/>
<polyline clip-path="url(#clip932)" style="stroke:#000000; stroke-width:2; stroke-opacity:0.1; fill:none" points="
  593.433,1521.01 593.433,47.2441 
  "/>
<polyline clip-path="url(#clip932)" style="stroke:#000000; stroke-width:2; stroke-opacity:0.1; fill:none" points="
  1099.87,1521.01 1099.87,47.2441 
  "/>
<polyline clip-path="url(#clip932)" style="stroke:#000000; stroke-width:2; stroke-opacity:0.1; fill:none" points="
  1606.31,1521.01 1606.31,47.2441 
  "/>
<polyline clip-path="url(#clip932)" style="stroke:#000000; stroke-width:2; stroke-opacity:0.1; fill:none" points="
  2112.76,1521.01 2112.76,47.2441 
  "/>
<polyline clip-path="url(#clip930)" style="stroke:#000000; stroke-width:4; stroke-opacity:1; fill:none" points="
  86.9921,1521.01 2112.76,1521.01 
  "/>
<polyline clip-path="url(#clip930)" style="stroke:#000000; stroke-width:4; stroke-opacity:1; fill:none" points="
  86.9921,1521.01 86.9921,1503.32 
  "/>
<polyline clip-path="url(#clip930)" style="stroke:#000000; stroke-width:4; stroke-opacity:1; fill:none" points="
  593.433,1521.01 593.433,1503.32 
  "/>
<polyline clip-path="url(#clip930)" style="stroke:#000000; stroke-width:4; stroke-opacity:1; fill:none" points="
  1099.87,1521.01 1099.87,1503.32 
  "/>
<polyline clip-path="url(#clip930)" style="stroke:#000000; stroke-width:4; stroke-opacity:1; fill:none" points="
  1606.31,1521.01 1606.31,1503.32 
  "/>
<polyline clip-path="url(#clip930)" style="stroke:#000000; stroke-width:4; stroke-opacity:1; fill:none" points="
  2112.76,1521.01 2112.76,1503.32 
  "/>
<path clip-path="url(#clip930)" d="M 0 0 M32.3744 1577.74 L40.0132 1577.74 L40.0132 1551.38 L31.7031 1553.05 L31.7031 1548.79 L39.9669 1547.12 L44.6428 1547.12 L44.6428 1577.74 L52.2817 1577.74 L52.2817 1581.68 L32.3744 1581.68 L32.3744 1577.74 Z" fill="#000000" fill-rule="evenodd" fill-opacity="1" /><path clip-path="url(#clip930)" d="M 0 0 M57.3974 1547.12 L75.7538 1547.12 L75.7538 1551.06 L61.6798 1551.06 L61.6798 1559.53 Q62.6983 1559.18 63.7168 1559.02 Q64.7353 1558.83 65.7538 1558.83 Q71.5408 1558.83 74.9204 1562 Q78.3 1565.18 78.3 1570.59 Q78.3 1576.17 74.8278 1579.27 Q71.3556 1582.35 65.0362 1582.35 Q62.8603 1582.35 60.5918 1581.98 Q58.3464 1581.61 55.9391 1580.87 L55.9391 1576.17 Q58.0224 1577.3 60.2446 1577.86 Q62.4668 1578.42 64.9436 1578.42 Q68.9482 1578.42 71.2862 1576.31 Q73.6241 1574.2 73.6241 1570.59 Q73.6241 1566.98 71.2862 1564.87 Q68.9482 1562.77 64.9436 1562.77 Q63.0686 1562.77 61.1937 1563.18 Q59.3418 1563.6 57.3974 1564.48 L57.3974 1547.12 Z" fill="#000000" fill-rule="evenodd" fill-opacity="1" /><path clip-path="url(#clip930)" d="M 0 0 M93.3694 1550.2 Q89.7583 1550.2 87.9296 1553.76 Q86.1241 1557.31 86.1241 1564.43 Q86.1241 1571.54 87.9296 1575.11 Q89.7583 1578.65 93.3694 1578.65 Q97.0036 1578.65 98.8092 1575.11 Q100.638 1571.54 100.638 1564.43 Q100.638 1557.31 98.8092 1553.76 Q97.0036 1550.2 93.3694 1550.2 M93.3694 1546.49 Q99.1796 1546.49 102.235 1551.1 Q105.314 1555.68 105.314 1564.43 Q105.314 1573.16 102.235 1577.77 Q99.1796 1582.35 93.3694 1582.35 Q87.5593 1582.35 84.4806 1577.77 Q81.425 1573.16 81.425 1564.43 Q81.425 1555.68 84.4806 1551.1 Q87.5593 1546.49 93.3694 1546.49 Z" fill="#000000" fill-rule="evenodd" fill-opacity="1" /><path clip-path="url(#clip930)" d="M 0 0 M110.383 1575.8 L115.267 1575.8 L115.267 1581.68 L110.383 1581.68 L110.383 1575.8 Z" fill="#000000" fill-rule="evenodd" fill-opacity="1" /><path clip-path="url(#clip930)" d="M 0 0 M130.337 1550.2 Q126.726 1550.2 124.897 1553.76 Q123.091 1557.31 123.091 1564.43 Q123.091 1571.54 124.897 1575.11 Q126.726 1578.65 130.337 1578.65 Q133.971 1578.65 135.777 1575.11 Q137.605 1571.54 137.605 1564.43 Q137.605 1557.31 135.777 1553.76 Q133.971 1550.2 130.337 1550.2 M130.337 1546.49 Q136.147 1546.49 139.202 1551.1 Q142.281 1555.68 142.281 1564.43 Q142.281 1573.16 139.202 1577.77 Q136.147 1582.35 130.337 1582.35 Q124.527 1582.35 121.448 1577.77 Q118.392 1573.16 118.392 1564.43 Q118.392 1555.68 121.448 1551.1 Q124.527 1546.49 130.337 1546.49 Z" fill="#000000" fill-rule="evenodd" fill-opacity="1" /><path clip-path="url(#clip930)" d="M 0 0 M540.112 1577.74 L547.75 1577.74 L547.75 1551.38 L539.44 1553.05 L539.44 1548.79 L547.704 1547.12 L552.38 1547.12 L552.38 1577.74 L560.019 1577.74 L560.019 1581.68 L540.112 1581.68 L540.112 1577.74 Z" fill="#000000" fill-rule="evenodd" fill-opacity="1" /><path clip-path="url(#clip930)" d="M 0 0 M565.135 1547.12 L583.491 1547.12 L583.491 1551.06 L569.417 1551.06 L569.417 1559.53 Q570.436 1559.18 571.454 1559.02 Q572.473 1558.83 573.491 1558.83 Q579.278 1558.83 582.658 1562 Q586.037 1565.18 586.037 1570.59 Q586.037 1576.17 582.565 1579.27 Q579.093 1582.35 572.773 1582.35 Q570.598 1582.35 568.329 1581.98 Q566.084 1581.61 563.676 1580.87 L563.676 1576.17 Q565.76 1577.3 567.982 1577.86 Q570.204 1578.42 572.681 1578.42 Q576.685 1578.42 579.023 1576.31 Q581.361 1574.2 581.361 1570.59 Q581.361 1566.98 579.023 1564.87 Q576.685 1562.77 572.681 1562.77 Q570.806 1562.77 568.931 1563.18 Q567.079 1563.6 565.135 1564.48 L565.135 1547.12 Z" fill="#000000" fill-rule="evenodd" fill-opacity="1" /><path clip-path="url(#clip930)" d="M 0 0 M595.134 1577.74 L611.454 1577.74 L611.454 1581.68 L589.509 1581.68 L589.509 1577.74 Q592.172 1574.99 596.755 1570.36 Q601.361 1565.71 602.542 1564.37 Q604.787 1561.84 605.667 1560.11 Q606.57 1558.35 606.57 1556.66 Q606.57 1553.9 604.625 1552.17 Q602.704 1550.43 599.602 1550.43 Q597.403 1550.43 594.949 1551.19 Q592.519 1551.96 589.741 1553.51 L589.741 1548.79 Q592.565 1547.65 595.019 1547.07 Q597.472 1546.49 599.509 1546.49 Q604.88 1546.49 608.074 1549.18 Q611.269 1551.87 611.269 1556.36 Q611.269 1558.49 610.458 1560.41 Q609.671 1562.3 607.565 1564.9 Q606.986 1565.57 603.884 1568.79 Q600.783 1571.98 595.134 1577.74 Z" fill="#000000" fill-rule="evenodd" fill-opacity="1" /><path clip-path="url(#clip930)" d="M 0 0 M616.523 1575.8 L621.407 1575.8 L621.407 1581.68 L616.523 1581.68 L616.523 1575.8 Z" fill="#000000" fill-rule="evenodd" fill-opacity="1" /><path clip-path="url(#clip930)" d="M 0 0 M626.523 1547.12 L644.88 1547.12 L644.88 1551.06 L630.806 1551.06 L630.806 1559.53 Q631.824 1559.18 632.843 1559.02 Q633.861 1558.83 634.88 1558.83 Q640.667 1558.83 644.046 1562 Q647.426 1565.18 647.426 1570.59 Q647.426 1576.17 643.954 1579.27 Q640.481 1582.35 634.162 1582.35 Q631.986 1582.35 629.718 1581.98 Q627.472 1581.61 625.065 1580.87 L625.065 1576.17 Q627.148 1577.3 629.37 1577.86 Q631.593 1578.42 634.069 1578.42 Q638.074 1578.42 640.412 1576.31 Q642.75 1574.2 642.75 1570.59 Q642.75 1566.98 640.412 1564.87 Q638.074 1562.77 634.069 1562.77 Q632.194 1562.77 630.319 1563.18 Q628.468 1563.6 626.523 1564.48 L626.523 1547.12 Z" fill="#000000" fill-rule="evenodd" fill-opacity="1" /><path clip-path="url(#clip930)" d="M 0 0 M1045.75 1577.74 L1053.39 1577.74 L1053.39 1551.38 L1045.08 1553.05 L1045.08 1548.79 L1053.35 1547.12 L1058.02 1547.12 L1058.02 1577.74 L1065.66 1577.74 L1065.66 1581.68 L1045.75 1581.68 L1045.75 1577.74 Z" fill="#000000" fill-rule="evenodd" fill-opacity="1" /><path clip-path="url(#clip930)" d="M 0 0 M1070.78 1547.12 L1089.13 1547.12 L1089.13 1551.06 L1075.06 1551.06 L1075.06 1559.53 Q1076.08 1559.18 1077.1 1559.02 Q1078.11 1558.83 1079.13 1558.83 Q1084.92 1558.83 1088.3 1562 Q1091.68 1565.18 1091.68 1570.59 Q1091.68 1576.17 1088.21 1579.27 Q1084.74 1582.35 1078.42 1582.35 Q1076.24 1582.35 1073.97 1581.98 Q1071.73 1581.61 1069.32 1580.87 L1069.32 1576.17 Q1071.4 1577.3 1073.62 1577.86 Q1075.85 1578.42 1078.32 1578.42 Q1082.33 1578.42 1084.67 1576.31 Q1087 1574.2 1087 1570.59 Q1087 1566.98 1084.67 1564.87 Q1082.33 1562.77 1078.32 1562.77 Q1076.45 1562.77 1074.57 1563.18 Q1072.72 1563.6 1070.78 1564.48 L1070.78 1547.12 Z" fill="#000000" fill-rule="evenodd" fill-opacity="1" /><path clip-path="url(#clip930)" d="M 0 0 M1096.8 1547.12 L1115.15 1547.12 L1115.15 1551.06 L1101.08 1551.06 L1101.08 1559.53 Q1102.1 1559.18 1103.11 1559.02 Q1104.13 1558.83 1105.15 1558.83 Q1110.94 1558.83 1114.32 1562 Q1117.7 1565.18 1117.7 1570.59 Q1117.7 1576.17 1114.23 1579.27 Q1110.75 1582.35 1104.43 1582.35 Q1102.26 1582.35 1099.99 1581.98 Q1097.74 1581.61 1095.34 1580.87 L1095.34 1576.17 Q1097.42 1577.3 1099.64 1577.86 Q1101.86 1578.42 1104.34 1578.42 Q1108.35 1578.42 1110.68 1576.31 Q1113.02 1574.2 1113.02 1570.59 Q1113.02 1566.98 1110.68 1564.87 Q1108.35 1562.77 1104.34 1562.77 Q1102.47 1562.77 1100.59 1563.18 Q1098.74 1563.6 1096.8 1564.48 L1096.8 1547.12 Z" fill="#000000" fill-rule="evenodd" fill-opacity="1" /><path clip-path="url(#clip930)" d="M 0 0 M1122.77 1575.8 L1127.65 1575.8 L1127.65 1581.68 L1122.77 1581.68 L1122.77 1575.8 Z" fill="#000000" fill-rule="evenodd" fill-opacity="1" /><path clip-path="url(#clip930)" d="M 0 0 M1142.72 1550.2 Q1139.11 1550.2 1137.28 1553.76 Q1135.48 1557.31 1135.48 1564.43 Q1135.48 1571.54 1137.28 1575.11 Q1139.11 1578.65 1142.72 1578.65 Q1146.36 1578.65 1148.16 1575.11 Q1149.99 1571.54 1149.99 1564.43 Q1149.99 1557.31 1148.16 1553.76 Q1146.36 1550.2 1142.72 1550.2 M1142.72 1546.49 Q1148.53 1546.49 1151.59 1551.1 Q1154.67 1555.68 1154.67 1564.43 Q1154.67 1573.16 1151.59 1577.77 Q1148.53 1582.35 1142.72 1582.35 Q1136.91 1582.35 1133.83 1577.77 Q1130.78 1573.16 1130.78 1564.43 Q1130.78 1555.68 1133.83 1551.1 Q1136.91 1546.49 1142.72 1546.49 Z" fill="#000000" fill-rule="evenodd" fill-opacity="1" /><path clip-path="url(#clip930)" d="M 0 0 M1552.65 1577.74 L1560.29 1577.74 L1560.29 1551.38 L1551.97 1553.05 L1551.97 1548.79 L1560.24 1547.12 L1564.91 1547.12 L1564.91 1577.74 L1572.55 1577.74 L1572.55 1581.68 L1552.65 1581.68 L1552.65 1577.74 Z" fill="#000000" fill-rule="evenodd" fill-opacity="1" /><path clip-path="url(#clip930)" d="M 0 0 M1577.67 1547.12 L1596.03 1547.12 L1596.03 1551.06 L1581.95 1551.06 L1581.95 1559.53 Q1582.97 1559.18 1583.99 1559.02 Q1585.01 1558.83 1586.03 1558.83 Q1591.81 1558.83 1595.19 1562 Q1598.57 1565.18 1598.57 1570.59 Q1598.57 1576.17 1595.1 1579.27 Q1591.63 1582.35 1585.31 1582.35 Q1583.13 1582.35 1580.86 1581.98 Q1578.62 1581.61 1576.21 1580.87 L1576.21 1576.17 Q1578.29 1577.3 1580.52 1577.86 Q1582.74 1578.42 1585.22 1578.42 Q1589.22 1578.42 1591.56 1576.31 Q1593.9 1574.2 1593.9 1570.59 Q1593.9 1566.98 1591.56 1564.87 Q1589.22 1562.77 1585.22 1562.77 Q1583.34 1562.77 1581.47 1563.18 Q1579.61 1563.6 1577.67 1564.48 L1577.67 1547.12 Z" fill="#000000" fill-rule="evenodd" fill-opacity="1" /><path clip-path="url(#clip930)" d="M 0 0 M1602.46 1547.12 L1624.68 1547.12 L1624.68 1549.11 L1612.14 1581.68 L1607.25 1581.68 L1619.06 1551.06 L1602.46 1551.06 L1602.46 1547.12 Z" fill="#000000" fill-rule="evenodd" fill-opacity="1" /><path clip-path="url(#clip930)" d="M 0 0 M1629.75 1575.8 L1634.64 1575.8 L1634.64 1581.68 L1629.75 1581.68 L1629.75 1575.8 Z" fill="#000000" fill-rule="evenodd" fill-opacity="1" /><path clip-path="url(#clip930)" d="M 0 0 M1639.75 1547.12 L1658.11 1547.12 L1658.11 1551.06 L1644.03 1551.06 L1644.03 1559.53 Q1645.05 1559.18 1646.07 1559.02 Q1647.09 1558.83 1648.11 1558.83 Q1653.9 1558.83 1657.28 1562 Q1660.65 1565.18 1660.65 1570.59 Q1660.65 1576.17 1657.18 1579.27 Q1653.71 1582.35 1647.39 1582.35 Q1645.22 1582.35 1642.95 1581.98 Q1640.7 1581.61 1638.29 1580.87 L1638.29 1576.17 Q1640.38 1577.3 1642.6 1577.86 Q1644.82 1578.42 1647.3 1578.42 Q1651.3 1578.42 1653.64 1576.31 Q1655.98 1574.2 1655.98 1570.59 Q1655.98 1566.98 1653.64 1564.87 Q1651.3 1562.77 1647.3 1562.77 Q1645.42 1562.77 1643.55 1563.18 Q1641.7 1563.6 1639.75 1564.48 L1639.75 1547.12 Z" fill="#000000" fill-rule="evenodd" fill-opacity="1" /><path clip-path="url(#clip930)" d="M 0 0 M2057.56 1577.74 L2065.2 1577.74 L2065.2 1551.38 L2056.89 1553.05 L2056.89 1548.79 L2065.15 1547.12 L2069.83 1547.12 L2069.83 1577.74 L2077.47 1577.74 L2077.47 1581.68 L2057.56 1581.68 L2057.56 1577.74 Z" fill="#000000" fill-rule="evenodd" fill-opacity="1" /><path clip-path="url(#clip930)" d="M 0 0 M2093.11 1562.54 Q2089.97 1562.54 2088.11 1564.69 Q2086.29 1566.84 2086.29 1570.59 Q2086.29 1574.32 2088.11 1576.49 Q2089.97 1578.65 2093.11 1578.65 Q2096.26 1578.65 2098.09 1576.49 Q2099.94 1574.32 2099.94 1570.59 Q2099.94 1566.84 2098.09 1564.69 Q2096.26 1562.54 2093.11 1562.54 M2102.4 1547.88 L2102.4 1552.14 Q2100.64 1551.31 2098.83 1550.87 Q2097.05 1550.43 2095.29 1550.43 Q2090.66 1550.43 2088.21 1553.56 Q2085.78 1556.68 2085.43 1563 Q2086.8 1560.99 2088.86 1559.92 Q2090.92 1558.83 2093.39 1558.83 Q2098.6 1558.83 2101.61 1562 Q2104.64 1565.15 2104.64 1570.59 Q2104.64 1575.92 2101.49 1579.13 Q2098.35 1582.35 2093.11 1582.35 Q2087.12 1582.35 2083.95 1577.77 Q2080.78 1573.16 2080.78 1564.43 Q2080.78 1556.24 2084.67 1551.38 Q2088.55 1546.49 2095.11 1546.49 Q2096.86 1546.49 2098.65 1546.84 Q2100.45 1547.19 2102.4 1547.88 Z" fill="#000000" fill-rule="evenodd" fill-opacity="1" /><path clip-path="url(#clip930)" d="M 0 0 M2119.71 1550.2 Q2116.1 1550.2 2114.27 1553.76 Q2112.47 1557.31 2112.47 1564.43 Q2112.47 1571.54 2114.27 1575.11 Q2116.1 1578.65 2119.71 1578.65 Q2123.35 1578.65 2125.15 1575.11 Q2126.98 1571.54 2126.98 1564.43 Q2126.98 1557.31 2125.15 1553.76 Q2123.35 1550.2 2119.71 1550.2 M2119.71 1546.49 Q2125.52 1546.49 2128.58 1551.1 Q2131.66 1555.68 2131.66 1564.43 Q2131.66 1573.16 2128.58 1577.77 Q2125.52 1582.35 2119.71 1582.35 Q2113.9 1582.35 2110.82 1577.77 Q2107.77 1573.16 2107.77 1564.43 Q2107.77 1555.68 2110.82 1551.1 Q2113.9 1546.49 2119.71 1546.49 Z" fill="#000000" fill-rule="evenodd" fill-opacity="1" /><path clip-path="url(#clip930)" d="M 0 0 M2136.73 1575.8 L2141.61 1575.8 L2141.61 1581.68 L2136.73 1581.68 L2136.73 1575.8 Z" fill="#000000" fill-rule="evenodd" fill-opacity="1" /><path clip-path="url(#clip930)" d="M 0 0 M2156.68 1550.2 Q2153.07 1550.2 2151.24 1553.76 Q2149.43 1557.31 2149.43 1564.43 Q2149.43 1571.54 2151.24 1575.11 Q2153.07 1578.65 2156.68 1578.65 Q2160.31 1578.65 2162.12 1575.11 Q2163.95 1571.54 2163.95 1564.43 Q2163.95 1557.31 2162.12 1553.76 Q2160.31 1550.2 2156.68 1550.2 M2156.68 1546.49 Q2162.49 1546.49 2165.54 1551.1 Q2168.62 1555.68 2168.62 1564.43 Q2168.62 1573.16 2165.54 1577.77 Q2162.49 1582.35 2156.68 1582.35 Q2150.87 1582.35 2147.79 1577.77 Q2144.73 1573.16 2144.73 1564.43 Q2144.73 1555.68 2147.79 1551.1 Q2150.87 1546.49 2156.68 1546.49 Z" fill="#000000" fill-rule="evenodd" fill-opacity="1" /><polyline clip-path="url(#clip932)" style="stroke:#000000; stroke-width:2; stroke-opacity:0.1; fill:none" points="
  86.9921,1521.01 2112.76,1521.01 
  "/>
<polyline clip-path="url(#clip932)" style="stroke:#000000; stroke-width:2; stroke-opacity:0.1; fill:none" points="
  86.9921,1152.57 2112.76,1152.57 
  "/>
<polyline clip-path="url(#clip932)" style="stroke:#000000; stroke-width:2; stroke-opacity:0.1; fill:none" points="
  86.9921,784.126 2112.76,784.126 
  "/>
<polyline clip-path="url(#clip932)" style="stroke:#000000; stroke-width:2; stroke-opacity:0.1; fill:none" points="
  86.9921,415.685 2112.76,415.685 
  "/>
<polyline clip-path="url(#clip932)" style="stroke:#000000; stroke-width:2; stroke-opacity:0.1; fill:none" points="
  86.9921,47.2441 2112.76,47.2441 
  "/>
<polyline clip-path="url(#clip930)" style="stroke:#000000; stroke-width:4; stroke-opacity:1; fill:none" points="
  86.9921,1521.01 86.9921,47.2441 
  "/>
<polyline clip-path="url(#clip930)" style="stroke:#000000; stroke-width:4; stroke-opacity:1; fill:none" points="
  86.9921,1521.01 111.301,1521.01 
  "/>
<polyline clip-path="url(#clip930)" style="stroke:#000000; stroke-width:4; stroke-opacity:1; fill:none" points="
  86.9921,1152.57 111.301,1152.57 
  "/>
<polyline clip-path="url(#clip930)" style="stroke:#000000; stroke-width:4; stroke-opacity:1; fill:none" points="
  86.9921,784.126 111.301,784.126 
  "/>
<polyline clip-path="url(#clip930)" style="stroke:#000000; stroke-width:4; stroke-opacity:1; fill:none" points="
  86.9921,415.685 111.301,415.685 
  "/>
<polyline clip-path="url(#clip930)" style="stroke:#000000; stroke-width:4; stroke-opacity:1; fill:none" points="
  86.9921,47.2441 111.301,47.2441 
  "/>
<path clip-path="url(#clip930)" d="M 0 0 M-8.19737 1503.73 L14.0247 1503.73 L14.0247 1505.72 L1.4785 1538.29 L-3.40573 1538.29 L8.39976 1507.66 L-8.19737 1507.66 L-8.19737 1503.73 Z" fill="#000000" fill-rule="evenodd" fill-opacity="1" /><path clip-path="url(#clip930)" d="M 0 0 M19.0941 1532.41 L23.9784 1532.41 L23.9784 1538.29 L19.0941 1538.29 L19.0941 1532.41 Z" fill="#000000" fill-rule="evenodd" fill-opacity="1" /><path clip-path="url(#clip930)" d="M 0 0 M39.0477 1506.81 Q35.4367 1506.81 33.608 1510.37 Q31.8024 1513.91 31.8024 1521.04 Q31.8024 1528.15 33.608 1531.71 Q35.4367 1535.26 39.0477 1535.26 Q42.682 1535.26 44.4875 1531.71 Q46.3162 1528.15 46.3162 1521.04 Q46.3162 1513.91 44.4875 1510.37 Q42.682 1506.81 39.0477 1506.81 M39.0477 1503.1 Q44.8579 1503.1 47.9134 1507.71 Q50.9921 1512.29 50.9921 1521.04 Q50.9921 1529.77 47.9134 1534.38 Q44.8579 1538.96 39.0477 1538.96 Q33.2376 1538.96 30.1589 1534.38 Q27.1034 1529.77 27.1034 1521.04 Q27.1034 1512.29 30.1589 1507.71 Q33.2376 1503.1 39.0477 1503.1 Z" fill="#000000" fill-rule="evenodd" fill-opacity="1" /><path clip-path="url(#clip930)" d="M 0 0 M-7.20201 1135.29 L15.0201 1135.29 L15.0201 1137.28 L2.47387 1169.85 L-2.41037 1169.85 L9.39513 1139.22 L-7.20201 1139.22 L-7.20201 1135.29 Z" fill="#000000" fill-rule="evenodd" fill-opacity="1" /><path clip-path="url(#clip930)" d="M 0 0 M20.0895 1163.97 L24.9737 1163.97 L24.9737 1169.85 L20.0895 1169.85 L20.0895 1163.97 Z" fill="#000000" fill-rule="evenodd" fill-opacity="1" /><path clip-path="url(#clip930)" d="M 0 0 M30.0895 1135.29 L48.4458 1135.29 L48.4458 1139.22 L34.3718 1139.22 L34.3718 1147.69 Q35.3904 1147.35 36.4089 1147.19 Q37.4274 1147 38.4459 1147 Q44.2329 1147 47.6125 1150.17 Q50.9921 1153.34 50.9921 1158.76 Q50.9921 1164.34 47.5199 1167.44 Q44.0477 1170.52 37.7283 1170.52 Q35.5524 1170.52 33.2839 1170.15 Q31.0385 1169.78 28.6311 1169.04 L28.6311 1164.34 Q30.7145 1165.47 32.9367 1166.03 Q35.1589 1166.58 37.6357 1166.58 Q41.6403 1166.58 43.9783 1164.48 Q46.3162 1162.37 46.3162 1158.76 Q46.3162 1155.15 43.9783 1153.04 Q41.6403 1150.93 37.6357 1150.93 Q35.7607 1150.93 33.8857 1151.35 Q32.0339 1151.77 30.0895 1152.65 L30.0895 1135.29 Z" fill="#000000" fill-rule="evenodd" fill-opacity="1" /><path clip-path="url(#clip930)" d="M 0 0 M2.17294 784.994 Q-1.16037 784.994 -3.08166 786.776 Q-4.9798 788.559 -4.9798 791.684 Q-4.9798 794.809 -3.08166 796.591 Q-1.16037 798.374 2.17294 798.374 Q5.50626 798.374 7.42754 796.591 Q9.34883 794.786 9.34883 791.684 Q9.34883 788.559 7.42754 786.776 Q5.52941 784.994 2.17294 784.994 M-2.50296 783.003 Q-5.5122 782.263 -7.20201 780.202 Q-8.86866 778.142 -8.86866 775.179 Q-8.86866 771.036 -5.92887 768.628 Q-2.96592 766.221 2.17294 766.221 Q7.33495 766.221 10.2748 768.628 Q13.2146 771.036 13.2146 775.179 Q13.2146 778.142 11.5247 780.202 Q9.85809 782.263 6.87199 783.003 Q10.2516 783.79 12.1266 786.082 Q14.0247 788.374 14.0247 791.684 Q14.0247 796.707 10.946 799.392 Q7.89051 802.077 2.17294 802.077 Q-3.54462 802.077 -6.62331 799.392 Q-9.67885 796.707 -9.67885 791.684 Q-9.67885 788.374 -7.78071 786.082 Q-5.88257 783.79 -2.50296 783.003 M-4.21591 775.619 Q-4.21591 778.304 -2.54925 779.809 Q-0.859448 781.313 2.17294 781.313 Q5.18219 781.313 6.87199 779.809 Q8.58495 778.304 8.58495 775.619 Q8.58495 772.934 6.87199 771.429 Q5.18219 769.925 2.17294 769.925 Q-0.859448 769.925 -2.54925 771.429 Q-4.21591 772.934 -4.21591 775.619 Z" fill="#000000" fill-rule="evenodd" fill-opacity="1" /><path clip-path="url(#clip930)" d="M 0 0 M19.0941 795.526 L23.9784 795.526 L23.9784 801.406 L19.0941 801.406 L19.0941 795.526 Z" fill="#000000" fill-rule="evenodd" fill-opacity="1" /><path clip-path="url(#clip930)" d="M 0 0 M39.0477 769.925 Q35.4367 769.925 33.608 773.489 Q31.8024 777.031 31.8024 784.161 Q31.8024 791.267 33.608 794.832 Q35.4367 798.374 39.0477 798.374 Q42.682 798.374 44.4875 794.832 Q46.3162 791.267 46.3162 784.161 Q46.3162 777.031 44.4875 773.489 Q42.682 769.925 39.0477 769.925 M39.0477 766.221 Q44.8579 766.221 47.9134 770.827 Q50.9921 775.411 50.9921 784.161 Q50.9921 792.888 47.9134 797.494 Q44.8579 802.077 39.0477 802.077 Q33.2376 802.077 30.1589 797.494 Q27.1034 792.888 27.1034 784.161 Q27.1034 775.411 30.1589 770.827 Q33.2376 766.221 39.0477 766.221 Z" fill="#000000" fill-rule="evenodd" fill-opacity="1" /><path clip-path="url(#clip930)" d="M 0 0 M3.16831 416.553 Q-0.165007 416.553 -2.08629 418.335 Q-3.98443 420.118 -3.98443 423.243 Q-3.98443 426.368 -2.08629 428.15 Q-0.165007 429.933 3.16831 429.933 Q6.50162 429.933 8.42291 428.15 Q10.3442 426.345 10.3442 423.243 Q10.3442 420.118 8.42291 418.335 Q6.52477 416.553 3.16831 416.553 M-1.50759 414.562 Q-4.51684 413.822 -6.20664 411.761 Q-7.8733 409.701 -7.8733 406.738 Q-7.8733 402.595 -4.9335 400.187 Q-1.97055 397.78 3.16831 397.78 Q8.33032 397.78 11.2701 400.187 Q14.2099 402.595 14.2099 406.738 Q14.2099 409.701 12.5201 411.761 Q10.8535 413.822 7.86736 414.562 Q11.247 415.349 13.122 417.641 Q15.0201 419.933 15.0201 423.243 Q15.0201 428.266 11.9414 430.951 Q8.88587 433.636 3.16831 433.636 Q-2.54925 433.636 -5.62794 430.951 Q-8.68348 428.266 -8.68348 423.243 Q-8.68348 419.933 -6.78534 417.641 Q-4.8872 415.349 -1.50759 414.562 M-3.22055 407.178 Q-3.22055 409.863 -1.55389 411.368 Q0.135917 412.873 3.16831 412.873 Q6.17755 412.873 7.86736 411.368 Q9.58031 409.863 9.58031 407.178 Q9.58031 404.493 7.86736 402.988 Q6.17755 401.484 3.16831 401.484 Q0.135917 401.484 -1.55389 402.988 Q-3.22055 404.493 -3.22055 407.178 Z" fill="#000000" fill-rule="evenodd" fill-opacity="1" /><path clip-path="url(#clip930)" d="M 0 0 M20.0895 427.085 L24.9737 427.085 L24.9737 432.965 L20.0895 432.965 L20.0895 427.085 Z" fill="#000000" fill-rule="evenodd" fill-opacity="1" /><path clip-path="url(#clip930)" d="M 0 0 M30.0895 398.405 L48.4458 398.405 L48.4458 402.34 L34.3718 402.34 L34.3718 410.812 Q35.3904 410.465 36.4089 410.303 Q37.4274 410.118 38.4459 410.118 Q44.2329 410.118 47.6125 413.289 Q50.9921 416.46 50.9921 421.877 Q50.9921 427.456 47.5199 430.558 Q44.0477 433.636 37.7283 433.636 Q35.5524 433.636 33.2839 433.266 Q31.0385 432.896 28.6311 432.155 L28.6311 427.456 Q30.7145 428.59 32.9367 429.146 Q35.1589 429.701 37.6357 429.701 Q41.6403 429.701 43.9783 427.595 Q46.3162 425.488 46.3162 421.877 Q46.3162 418.266 43.9783 416.16 Q41.6403 414.053 37.6357 414.053 Q35.7607 414.053 33.8857 414.47 Q32.0339 414.886 30.0895 415.766 L30.0895 398.405 Z" fill="#000000" fill-rule="evenodd" fill-opacity="1" /><path clip-path="url(#clip930)" d="M 0 0 M-7.59552 63.8065 L-7.59552 59.5473 Q-5.83627 60.3806 -4.03073 60.8204 Q-2.22518 61.2602 -0.48908 61.2602 Q4.14053 61.2602 6.57107 58.1584 Q9.02476 55.0334 9.37198 48.6908 Q8.02939 50.6816 5.96922 51.7464 Q3.90904 52.8112 1.40906 52.8112 Q-3.7761 52.8112 -6.80849 49.6862 Q-9.81773 46.5381 -9.81773 41.0983 Q-9.81773 35.7742 -6.6696 32.5567 Q-3.52147 29.3391 1.70998 29.3391 Q7.70532 29.3391 10.8535 33.9456 Q14.0247 38.5289 14.0247 47.2788 Q14.0247 55.4501 10.1359 60.3343 Q6.27014 65.1954 -0.280747 65.1954 Q-2.04 65.1954 -3.84554 64.8482 Q-5.65109 64.5009 -7.59552 63.8065 M1.70998 49.1538 Q4.85811 49.1538 6.68681 47.001 Q8.53865 44.8483 8.53865 41.0983 Q8.53865 37.3715 6.68681 35.2187 Q4.85811 33.0428 1.70998 33.0428 Q-1.43815 33.0428 -3.28999 35.2187 Q-5.11868 37.3715 -5.11868 41.0983 Q-5.11868 44.8483 -3.28999 47.001 Q-1.43815 49.1538 1.70998 49.1538 Z" fill="#000000" fill-rule="evenodd" fill-opacity="1" /><path clip-path="url(#clip930)" d="M 0 0 M19.0941 58.6445 L23.9784 58.6445 L23.9784 64.5241 L19.0941 64.5241 L19.0941 58.6445 Z" fill="#000000" fill-rule="evenodd" fill-opacity="1" /><path clip-path="url(#clip930)" d="M 0 0 M39.0477 33.0428 Q35.4367 33.0428 33.608 36.6076 Q31.8024 40.1492 31.8024 47.2788 Q31.8024 54.3853 33.608 57.9501 Q35.4367 61.4917 39.0477 61.4917 Q42.682 61.4917 44.4875 57.9501 Q46.3162 54.3853 46.3162 47.2788 Q46.3162 40.1492 44.4875 36.6076 Q42.682 33.0428 39.0477 33.0428 M39.0477 29.3391 Q44.8579 29.3391 47.9134 33.9456 Q50.9921 38.5289 50.9921 47.2788 Q50.9921 56.0056 47.9134 60.6121 Q44.8579 65.1954 39.0477 65.1954 Q33.2376 65.1954 30.1589 60.6121 Q27.1034 56.0056 27.1034 47.2788 Q27.1034 38.5289 30.1589 33.9456 Q33.2376 29.3391 39.0477 29.3391 Z" fill="#000000" fill-rule="evenodd" fill-opacity="1" /><polyline clip-path="url(#clip932)" style="stroke:#090621; stroke-width:4; stroke-opacity:1; fill:none" points="
  842.901,1163.73 844.096,1168.79 845.715,1178.62 848.468,1193.5 851.644,1208.39 855.32,1223.28 859.588,1238.16 864.558,1253.03 864.562,1253.05 868.58,1267.94 
  873.282,1282.82 878.813,1297.71 885.02,1311.93 885.268,1312.6 891.054,1327.48 897.941,1342.37 905.483,1356.14 906.055,1357.26 914.134,1372.14 923.887,1387.03 
  925.945,1389.97 934.794,1401.92 946.407,1415.38 947.898,1416.8 964.373,1431.69 966.869,1433.82 987.332,1445.84 989.815,1446.58 1007.79,1452.26 1028.26,1452.8 
  1048.72,1447.46 1050.38,1446.58 1069.18,1436.68 1075.36,1431.69 1089.64,1419.45 1092.1,1416.8 1105.11,1401.92 1110.11,1395.53 1116.24,1387.03 1125.74,1372.14 
  1130.57,1363.55 1134.24,1357.26 1142.12,1342.37 1148.71,1327.48 1151.03,1321.71 1155.27,1312.6 1161.42,1297.71 1166.62,1282.82 1171.05,1267.94 1171.49,1266.36 
  1176.26,1253.05 1180.86,1238.16 1184.82,1223.28 1188.23,1208.39 1191.18,1193.5 1191.95,1189.27 1194.68,1178.62 1198.06,1163.73 1200.98,1148.85 1203.53,1133.96 
  1205.74,1119.07 1207.66,1104.19 1209.32,1089.3 1210.77,1074.41 1212.01,1059.53 1212.42,1053.89 1213.46,1044.64 1214.88,1029.75 1216.06,1014.87 1217.01,999.98 
  1217.74,985.094 1218.27,970.207 1218.6,955.321 1218.75,940.434 1218.7,925.548 1218.47,910.661 1218.04,895.775 1217.41,880.888 1216.58,866.002 1215.52,851.115 
  1214.23,836.229 1212.69,821.342 1212.42,818.998 1211.41,806.456 1210.01,791.569 1208.39,776.683 1206.51,761.796 1204.36,746.91 1201.88,732.023 1199.05,717.137 
  1195.81,702.25 1192.11,687.364 1191.95,686.778 1189.03,672.477 1185.55,657.591 1181.55,642.704 1176.96,627.818 1171.68,612.931 1171.49,612.424 1166.92,598.045 
  1161.46,583.158 1155.15,568.272 1151.03,559.476 1148.34,553.385 1141.19,538.499 1132.85,523.612 1130.57,519.781 1123.74,508.726 1113.29,493.839 1110.11,489.577 
  1100.96,478.953 1089.64,467.05 1085.95,464.066 1069.18,451.068 1065.36,449.18 1048.72,440.802 1028.26,436.265 1007.79,436.925 987.332,442.887 976.273,449.18 
  966.869,454.506 955.479,464.066 946.407,472.095 940.255,478.953 928.017,493.839 925.945,496.505 917.441,508.726 908.377,523.612 905.483,528.751 900.051,538.499 
  892.611,553.385 886.213,568.272 885.02,571.224 879.775,583.158 873.987,598.045 868.974,612.931 864.629,627.818 864.558,628.074 859.69,642.704 855.365,657.591 
  851.592,672.477 848.301,687.364 845.428,702.25 844.096,709.893 842.424,717.137 839.301,732.023 836.569,746.91 834.184,761.796 832.108,776.683 830.308,791.569 
  828.756,806.456 827.427,821.342 826.301,836.229 825.362,851.115 824.594,866.002 823.986,880.888 823.634,892.314 823.469,895.775 822.972,910.661 822.689,925.548 
  822.618,940.434 822.758,955.321 823.11,970.207 823.634,983.864 823.663,985.094 824.16,999.98 824.802,1014.87 825.599,1029.75 826.562,1044.64 827.705,1059.53 
  829.048,1074.41 830.61,1089.3 832.421,1104.19 834.512,1119.07 836.922,1133.96 839.699,1148.85 842.901,1163.73 
  "/>
<polyline clip-path="url(#clip932)" style="stroke:#1f0c47; stroke-width:4; stroke-opacity:1; fill:none" points="
  873.382,1178.62 877.064,1193.5 881.316,1208.39 885.02,1219.83 885.943,1223.28 890.26,1238.16 895.272,1253.05 901.115,1267.94 905.483,1277.81 907.52,1282.82 
  914.132,1297.71 921.92,1312.6 925.945,1319.56 930.682,1327.48 940.664,1342.37 946.407,1350.06 952.792,1357.26 966.869,1371.53 967.729,1372.14 987.332,1385.62 
  991.401,1387.03 1007.79,1392.93 1028.26,1393.56 1048.72,1387.47 1049.44,1387.03 1069.18,1374.89 1072.16,1372.14 1087.32,1357.26 1089.64,1354.82 1099.35,1342.37 
  1109.31,1327.48 1110.11,1326.22 1118.24,1312.6 1125.84,1297.71 1130.57,1287.16 1132.63,1282.82 1139.18,1267.94 1144.78,1253.05 1149.59,1238.16 1151.03,1233.3 
  1154.54,1223.28 1159.18,1208.39 1163.19,1193.5 1166.67,1178.62 1169.69,1163.73 1171.49,1153.73 1172.65,1148.85 1175.84,1133.96 1178.6,1119.07 1181,1104.19 
  1183.07,1089.3 1184.85,1074.41 1186.37,1059.53 1187.65,1044.64 1188.72,1029.75 1189.59,1014.87 1190.28,999.98 1190.79,985.094 1191.12,970.207 1191.29,955.321 
  1191.29,940.434 1191.13,925.548 1190.8,910.661 1190.29,895.775 1189.6,880.888 1188.71,866.002 1187.61,851.115 1186.29,836.229 1184.73,821.342 1182.89,806.456 
  1180.76,791.569 1178.3,776.683 1175.46,761.796 1172.22,746.91 1171.49,743.836 1169.21,732.023 1165.96,717.137 1162.24,702.25 1157.97,687.364 1153.09,672.477 
  1151.03,666.691 1148.09,657.591 1142.74,642.704 1136.59,627.818 1130.57,614.973 1129.61,612.931 1122.18,598.045 1113.59,583.158 1110.11,577.56 1103.62,568.272 
  1092.02,553.385 1089.64,550.493 1077.04,538.499 1069.18,531.496 1055.58,523.612 1048.72,519.658 1028.26,514.207 1007.79,514.979 987.332,522.1 985.004,523.612 
  966.869,535.617 963.878,538.499 949.225,553.385 946.407,556.428 937.485,568.272 927.59,583.158 925.945,585.785 918.885,598.045 911.322,612.931 905.483,626.057 
  904.685,627.818 898.279,642.704 892.707,657.591 887.857,672.477 885.02,682.189 883.314,687.364 878.779,702.25 874.815,717.137 871.35,732.023 868.325,746.91 
  865.687,761.796 864.558,768.897 862.996,776.683 860.32,791.569 858,806.456 855.999,821.342 854.288,836.229 852.84,851.115 851.636,866.002 850.655,880.888 
  849.885,895.775 849.312,910.661 848.93,925.548 848.731,940.434 848.712,955.321 848.871,970.207 849.212,985.094 849.737,999.98 850.454,1014.87 851.373,1029.75 
  852.508,1044.64 853.876,1059.53 855.498,1074.41 857.402,1089.3 859.621,1104.19 862.193,1119.07 864.558,1131.04 864.989,1133.96 867.407,1148.85 870.186,1163.73 
  873.382,1178.62 
  "/>
<polyline clip-path="url(#clip932)" style="stroke:#3b0964; stroke-width:4; stroke-opacity:1; fill:none" points="
  892.935,1178.62 897.028,1193.5 901.751,1208.39 905.483,1218.83 906.921,1223.28 912.171,1238.16 918.263,1253.05 925.36,1267.94 925.945,1269.1 933.011,1282.82 
  941.919,1297.71 946.407,1304.51 952.637,1312.6 965.501,1327.48 966.869,1328.98 984.074,1342.37 987.332,1344.78 1007.79,1352.84 1028.26,1353.53 1048.72,1346.98 
  1055.54,1342.37 1069.18,1332.81 1074.33,1327.48 1087.55,1312.6 1089.64,1310.07 1098.15,1297.71 1107.05,1282.82 1110.11,1277.21 1114.95,1267.94 1121.88,1253.05 
  1127.84,1238.16 1130.57,1230.58 1133.41,1223.28 1138.65,1208.39 1143.18,1193.5 1147.12,1178.62 1150.54,1163.73 1151.03,1161.39 1154.22,1148.85 1157.53,1133.96 
  1160.4,1119.07 1162.89,1104.19 1165.04,1089.3 1166.88,1074.41 1168.44,1059.53 1169.76,1044.64 1170.85,1029.75 1171.49,1018.78 1171.8,1014.87 1172.72,999.98 
  1173.37,985.094 1173.76,970.207 1173.9,955.321 1173.79,940.434 1173.43,925.548 1172.82,910.661 1171.94,895.775 1171.49,889.853 1170.97,880.888 1169.88,866.002 
  1168.56,851.115 1166.98,836.229 1165.11,821.342 1162.93,806.456 1160.4,791.569 1157.48,776.683 1154.14,761.796 1151.03,749.598 1150.43,746.91 1146.81,732.023 
  1142.67,717.137 1137.92,702.25 1132.48,687.364 1130.57,682.505 1126.68,672.477 1120.23,657.591 1112.82,642.704 1110.11,637.652 1104.3,627.818 1094.48,612.931 
  1089.64,606.191 1082.3,598.045 1069.18,584.72 1066.85,583.158 1048.72,571.3 1038.36,568.272 1028.26,565.218 1007.79,566.1 1002.16,568.272 987.332,573.874 
  974.708,583.158 966.869,589.155 958.758,598.045 946.474,612.931 946.407,613.016 936.721,627.818 928.27,642.704 925.945,647.12 920.781,657.591 914.201,672.477 
  908.469,687.364 905.483,695.964 903.202,702.25 898.248,717.137 893.918,732.023 890.136,746.91 886.836,761.796 885.02,770.982 883.705,776.683 880.595,791.569 
  877.894,806.456 875.56,821.342 873.557,836.229 871.855,851.115 870.428,866.002 869.255,880.888 868.318,895.775 867.603,910.661 867.099,925.548 866.798,940.434 
  866.694,955.321 866.786,970.207 867.073,985.094 867.559,999.98 868.25,1014.87 869.156,1029.75 870.289,1044.64 871.666,1059.53 873.31,1074.41 875.246,1089.3 
  877.506,1104.19 880.132,1119.07 883.17,1133.96 885.02,1142.02 886.29,1148.85 889.381,1163.73 892.935,1178.62 
  "/>
<polyline clip-path="url(#clip932)" style="stroke:#550f6d; stroke-width:4; stroke-opacity:1; fill:none" points="
  909.02,1178.62 913.485,1193.5 918.632,1208.39 924.58,1223.28 925.945,1226.44 931.03,1238.16 938.385,1253.05 946.407,1267.09 946.966,1267.94 957.376,1282.82 
  966.869,1294.69 970.218,1297.71 987.332,1312.09 988.484,1312.6 1007.79,1321.03 1028.26,1321.8 1048.72,1314.53 1051.35,1312.6 1069.18,1298.84 1070.19,1297.71 
  1082.73,1282.82 1089.64,1273.57 1093.18,1267.94 1101.73,1253.05 1109.09,1238.16 1110.11,1235.95 1115.76,1223.28 1121.58,1208.39 1126.62,1193.5 1130.57,1180.17 
  1131.07,1178.62 1135.53,1163.73 1139.4,1148.85 1142.76,1133.96 1145.68,1119.07 1148.2,1104.19 1150.38,1089.3 1151.03,1084.23 1152.57,1074.41 1154.58,1059.53 
  1156.25,1044.64 1157.61,1029.75 1158.69,1014.87 1159.5,999.98 1160.05,985.094 1160.36,970.207 1160.42,955.321 1160.23,940.434 1159.79,925.548 1159.1,910.661 
  1158.15,895.775 1156.91,880.888 1155.38,866.002 1153.52,851.115 1151.32,836.229 1151.03,834.462 1149.17,821.342 1146.72,806.456 1143.88,791.569 1140.6,776.683 
  1136.85,761.796 1132.54,746.91 1130.57,740.701 1127.92,732.023 1122.85,717.137 1117.05,702.25 1110.41,687.364 1110.11,686.717 1102.84,672.477 1094.15,657.591 
  1089.64,650.525 1083.46,642.704 1070.5,627.818 1069.18,626.378 1050.73,612.931 1048.72,611.521 1028.26,604.716 1007.79,605.649 990.741,612.931 987.332,614.379 
  970.907,627.818 966.869,631.314 957.575,642.704 946.769,657.591 946.407,658.115 938.099,672.477 930.573,687.364 925.945,697.602 923.948,702.25 918.025,717.137 
  912.851,732.023 908.332,746.91 905.483,757.466 904.235,761.796 900.305,776.683 896.88,791.569 893.904,806.456 891.331,821.342 889.12,836.229 887.237,851.115 
  885.653,866.002 885.02,873.072 884.169,880.888 882.837,895.775 881.801,910.661 881.047,925.548 880.564,940.434 880.344,955.321 880.385,970.207 880.687,985.094 
  881.254,999.98 882.095,1014.87 883.222,1029.75 884.653,1044.64 885.02,1047.82 886.098,1059.53 887.729,1074.41 889.655,1089.3 891.906,1104.19 894.522,1119.07 
  897.548,1133.96 901.042,1148.85 905.071,1163.73 905.483,1165.13 909.02,1178.62 
  "/>
<polyline clip-path="url(#clip932)" style="stroke:#6e186e; stroke-width:4; stroke-opacity:1; fill:none" points="
  923.033,1178.62 925.945,1186.76 928.338,1193.5 934.197,1208.39 940.96,1223.28 946.407,1233.91 948.894,1238.16 958.377,1253.05 966.869,1264.77 970.02,1267.94 
  986.01,1282.82 987.332,1283.99 1007.79,1293.68 1028.26,1294.53 1048.72,1286.68 1053.53,1282.82 1069.18,1269.43 1070.39,1267.94 1081.74,1253.05 1089.64,1241.22 
  1091.37,1238.16 1099.2,1223.28 1105.97,1208.39 1110.11,1198.15 1111.94,1193.5 1117.32,1178.62 1122,1163.73 1126.06,1148.85 1129.59,1133.96 1130.57,1129.34 
  1132.99,1119.07 1136.07,1104.19 1138.72,1089.3 1140.98,1074.41 1142.88,1059.53 1144.47,1044.64 1145.75,1029.75 1146.77,1014.87 1147.51,999.98 1148.01,985.094 
  1148.25,970.207 1148.25,955.321 1148.01,940.434 1147.51,925.548 1146.75,910.661 1145.73,895.775 1144.41,880.888 1142.8,866.002 1140.84,851.115 1138.53,836.229 
  1135.83,821.342 1132.69,806.456 1130.57,797.566 1129.22,791.569 1125.5,776.683 1121.22,761.796 1116.32,746.91 1110.7,732.023 1110.11,730.547 1104.33,717.137 
  1097.04,702.25 1089.64,688.938 1088.57,687.364 1077.81,672.477 1069.18,661.8 1064.14,657.591 1048.72,645.414 1041.2,642.704 1028.26,638.007 1007.79,639.031 
  999.817,642.704 987.332,648.488 977.053,657.591 966.869,667.259 962.952,672.477 952.604,687.364 946.407,697.316 943.807,702.25 936.552,717.137 930.216,732.023 
  925.945,743.324 924.637,746.91 919.622,761.796 915.243,776.683 911.427,791.569 908.113,806.456 905.483,820.058 905.212,821.342 902.375,836.229 899.949,851.115 
  897.897,866.002 896.188,880.888 894.798,895.775 893.707,910.661 892.897,925.548 892.357,940.434 892.079,955.321 892.057,970.207 892.291,985.094 892.783,999.98 
  893.54,1014.87 894.573,1029.75 895.896,1044.64 897.529,1059.53 899.499,1074.41 901.836,1089.3 904.581,1104.19 905.483,1108.52 907.416,1119.07 910.531,1133.96 
  914.124,1148.85 918.264,1163.73 923.033,1178.62 
  "/>
<polyline clip-path="url(#clip932)" style="stroke:#88216a; stroke-width:4; stroke-opacity:1; fill:none" points="
  936.224,1178.62 942.248,1193.5 946.407,1202.68 949.329,1208.39 957.728,1223.28 966.869,1237.35 967.583,1238.16 981.601,1253.05 987.332,1258.62 1005.48,1267.94 
  1007.79,1269.1 1028.26,1270.05 1033.37,1267.94 1048.72,1261.53 1058.31,1253.05 1069.18,1242.63 1072.44,1238.16 1082.45,1223.28 1089.64,1211.08 1091,1208.39 
  1097.96,1193.5 1103.99,1178.62 1109.24,1163.73 1110.11,1161.03 1113.99,1148.85 1118.15,1133.96 1121.76,1119.07 1124.87,1104.19 1127.54,1089.3 1129.82,1074.41 
  1130.57,1068.76 1131.93,1059.53 1133.78,1044.64 1135.26,1029.75 1136.41,1014.87 1137.25,999.98 1137.78,985.094 1138.01,970.207 1137.95,955.321 1137.6,940.434 
  1136.94,925.548 1135.97,910.661 1134.68,895.775 1133.04,880.888 1131.04,866.002 1130.57,863.006 1128.86,851.115 1126.34,836.229 1123.39,821.342 1119.97,806.456 
  1116.02,791.569 1111.47,776.683 1110.11,772.584 1106.32,761.796 1100.42,746.91 1093.67,732.023 1089.64,723.977 1085.5,717.137 1075.58,702.25 1069.18,693.563 
  1062.48,687.364 1048.72,675.495 1041.12,672.477 1028.26,667.396 1007.79,668.501 999.842,672.477 987.332,678.849 978.521,687.364 966.869,699.601 965.056,702.25 
  955.509,717.137 947.174,732.023 946.407,733.492 940.391,746.91 934.516,761.796 929.388,776.683 925.945,787.998 924.88,791.569 920.833,806.456 917.324,821.342 
  914.298,836.229 911.708,851.115 909.516,866.002 907.687,880.888 906.194,895.775 905.483,904.668 904.94,910.661 903.911,925.548 903.206,940.434 902.815,955.321 
  902.732,970.207 902.956,985.094 903.49,999.98 904.342,1014.87 905.483,1029.22 905.519,1029.75 906.819,1044.64 908.43,1059.53 910.376,1074.41 912.688,1089.3 
  915.404,1104.19 918.57,1119.07 922.242,1133.96 925.945,1147.03 926.449,1148.85 930.993,1163.73 936.224,1178.62 
  "/>
<polyline clip-path="url(#clip932)" style="stroke:#a12b61; stroke-width:4; stroke-opacity:1; fill:none" points="
  949.336,1178.62 956.629,1193.5 965.036,1208.39 966.869,1211.39 976.681,1223.28 987.332,1234.84 993.066,1238.16 1007.79,1246.37 1028.26,1247.39 1048.41,1238.16 
  1048.72,1238.02 1063.65,1223.28 1069.18,1217.26 1074.95,1208.39 1083.62,1193.5 1089.64,1181.76 1091.03,1178.62 1097.08,1163.73 1102.33,1148.85 1106.88,1133.96 
  1110.11,1121.92 1110.87,1119.07 1114.44,1104.19 1117.5,1089.3 1120.1,1074.41 1122.28,1059.53 1124.09,1044.64 1125.53,1029.75 1126.65,1014.87 1127.45,999.98 
  1127.94,985.094 1128.13,970.207 1128.02,955.321 1127.61,940.434 1126.88,925.548 1125.84,910.661 1124.46,895.775 1122.71,880.888 1120.59,866.002 1118.04,851.115 
  1115.04,836.229 1111.54,821.342 1110.11,815.886 1107.53,806.456 1102.93,791.569 1097.64,776.683 1091.56,761.796 1089.64,757.473 1084.02,746.91 1075.11,732.023 
  1069.18,723.095 1063.43,717.137 1048.72,703.143 1046.7,702.25 1028.26,694.25 1007.79,695.435 995.355,702.25 987.332,706.788 977.613,717.137 966.869,729.758 
  965.471,732.023 956.889,746.91 949.393,761.796 946.407,768.349 943.115,776.683 937.833,791.569 933.237,806.456 929.253,821.342 925.945,835.655 925.813,836.229 
  922.734,851.115 920.119,866.002 917.927,880.888 916.129,895.775 914.695,910.661 913.606,925.548 912.846,940.434 912.402,955.321 912.267,970.207 912.438,985.094 
  912.918,999.98 913.712,1014.87 914.831,1029.75 916.291,1044.64 918.115,1059.53 920.33,1074.41 922.972,1089.3 925.945,1103.54 926.076,1104.19 929.464,1119.07 
  933.392,1133.96 937.929,1148.85 943.163,1163.73 946.407,1171.97 949.336,1178.62 
  "/>
<polyline clip-path="url(#clip932)" style="stroke:#ba3655; stroke-width:4; stroke-opacity:1; fill:none" points="
  962.952,1178.62 966.869,1185.93 972.286,1193.5 984.165,1208.39 987.332,1212.04 1005.46,1223.28 1007.79,1224.65 1028.26,1225.79 1033.45,1223.28 1048.72,1215.61 
  1055.6,1208.39 1068.44,1193.5 1069.18,1192.57 1077.13,1178.62 1084.53,1163.73 1089.64,1152.03 1090.86,1148.85 1096,1133.96 1100.45,1119.07 1104.28,1104.19 
  1107.57,1089.3 1110.11,1075.81 1110.37,1074.41 1112.82,1059.53 1114.83,1044.64 1116.43,1029.75 1117.65,1014.87 1118.51,999.98 1119.02,985.094 1119.19,970.207 
  1119.01,955.321 1118.48,940.434 1117.6,925.548 1116.36,910.661 1114.72,895.775 1112.68,880.888 1110.19,866.002 1110.11,865.541 1107.29,851.115 1103.88,836.229 
  1099.89,821.342 1095.27,806.456 1089.94,791.569 1089.64,790.793 1083.15,776.683 1075.32,761.796 1069.18,751.394 1065.37,746.91 1051.56,732.023 1048.72,729.176 
  1028.26,719.469 1007.79,720.746 989.209,732.023 987.332,733.217 975.8,746.91 966.869,758.81 965.23,761.796 957.674,776.683 951.085,791.569 946.407,803.587 
  945.429,806.456 940.815,821.342 936.828,836.229 933.407,851.115 930.5,866.002 928.062,880.888 926.057,895.775 925.945,896.791 924.376,910.661 923.082,925.548 
  922.164,940.434 921.608,955.321 921.405,970.207 921.553,985.094 922.053,999.98 922.912,1014.87 924.143,1029.75 925.764,1044.64 925.945,1045.99 927.683,1059.53 
  930.004,1074.41 932.775,1089.3 936.039,1104.19 939.853,1119.07 944.283,1133.96 946.407,1140.32 949.566,1148.85 955.786,1163.73 962.952,1178.62 
  "/>
<polyline clip-path="url(#clip932)" style="stroke:#d04544; stroke-width:4; stroke-opacity:1; fill:none" points="
  978.98,1178.62 987.332,1189.63 992.746,1193.5 1007.79,1203.57 1028.26,1204.81 1048.72,1193.6 1048.81,1193.5 1061.24,1178.62 1069.18,1167.85 1071.36,1163.73 
  1078.52,1148.85 1084.72,1133.96 1089.64,1120.38 1090.06,1119.07 1094.32,1104.19 1097.96,1089.3 1101.04,1074.41 1103.63,1059.53 1105.74,1044.64 1107.43,1029.75 
  1108.71,1014.87 1109.59,999.98 1110.1,985.094 1110.11,984.836 1110.24,970.207 1110.11,961.963 1110,955.321 1109.38,940.434 1108.37,925.548 1106.96,910.661 
  1105.12,895.775 1102.82,880.888 1100.03,866.002 1096.71,851.115 1092.81,836.229 1089.64,825.697 1088.11,821.342 1082.26,806.456 1075.51,791.569 1069.18,779.298 
  1067.26,776.683 1055.32,761.796 1048.72,754.349 1034.72,746.91 1028.26,743.617 1007.79,745.027 1004.86,746.91 987.332,758.791 984.948,761.796 974.029,776.683 
  966.869,787.698 965.011,791.569 958.492,806.456 952.834,821.342 947.945,836.229 946.407,841.53 943.935,851.115 940.61,866.002 937.815,880.888 935.506,895.775 
  933.65,910.661 932.219,925.548 931.191,940.434 930.552,955.321 930.29,970.207 930.4,985.094 930.884,999.98 931.747,1014.87 933,1029.75 934.662,1044.64 
  936.757,1059.53 939.317,1074.41 942.382,1089.3 946.003,1104.19 946.407,1105.66 950.45,1119.07 955.64,1133.96 961.643,1148.85 966.869,1160.23 968.999,1163.73 
  978.98,1178.62 
  "/>
<polyline clip-path="url(#clip932)" style="stroke:#e35832; stroke-width:4; stroke-opacity:1; fill:none" points="
  1002.21,1178.62 1007.79,1182.62 1028.26,1184.01 1037.43,1178.62 1048.72,1171.54 1054.78,1163.73 1065.11,1148.85 1069.18,1142.26 1072.9,1133.96 1078.8,1119.07 
  1083.88,1104.19 1088.23,1089.3 1089.64,1083.69 1091.72,1074.41 1094.54,1059.53 1096.85,1044.64 1098.67,1029.75 1100.04,1014.87 1100.97,999.98 1101.48,985.094 
  1101.58,970.207 1101.26,955.321 1100.52,940.434 1099.35,925.548 1097.73,910.661 1095.63,895.775 1093.03,880.888 1089.88,866.002 1089.64,865.037 1085.75,851.115 
  1080.87,836.229 1075.19,821.342 1069.18,807.686 1068.42,806.456 1058.27,791.569 1048.72,779.246 1044.54,776.683 1028.26,767.273 1007.79,768.818 996.959,776.683 
  987.332,784.202 982.218,791.569 972.922,806.456 966.869,817.465 965.281,821.342 959.786,836.229 955.063,851.115 951.038,866.002 947.651,880.888 946.407,887.383 
  944.955,895.775 942.845,910.661 941.208,925.548 940.019,940.434 939.261,955.321 938.924,970.207 939,985.094 939.491,999.98 940.403,1014.87 941.749,1029.75 
  943.55,1044.64 945.831,1059.53 946.407,1062.66 948.757,1074.41 952.305,1089.3 956.497,1104.19 961.403,1119.07 966.869,1133.36 967.17,1133.96 975.437,1148.85 
  984.979,1163.73 987.332,1167.07 1002.21,1178.62 
  "/>
<polyline clip-path="url(#clip932)" style="stroke:#f0701e; stroke-width:4; stroke-opacity:1; fill:none" points="
  1007.79,1161.36 992.857,1148.85 987.332,1143.72 981.526,1133.96 973.742,1119.07 967.05,1104.19 966.869,1103.73 962.457,1089.3 958.609,1074.41 955.406,1059.53 
  952.8,1044.64 950.749,1029.75 949.225,1014.87 948.205,999.98 947.677,985.094 947.633,970.207 948.076,955.321 949.013,940.434 950.459,925.548 952.436,910.661 
  954.974,895.775 958.11,880.888 961.892,866.002 966.375,851.115 966.869,849.656 972.909,836.229 980.662,821.342 987.332,810.107 991.296,806.456 1007.79,792.638 
  1020.36,791.569 1028.26,790.912 1029.32,791.569 1048.72,804.466 1050.15,806.456 1059.93,821.342 1068.38,836.229 1069.18,837.811 1074.01,851.115 1078.64,866.002 
  1082.54,880.888 1085.77,895.775 1088.38,910.661 1089.64,919.873 1090.33,925.548 1091.67,940.434 1092.53,955.321 1092.92,970.207 1092.86,985.094 1092.35,999.98 
  1091.37,1014.87 1089.91,1029.75 1089.64,1031.78 1087.79,1044.64 1085.07,1059.53 1081.75,1074.41 1077.76,1089.3 1073.04,1104.19 1069.18,1114.7 1066.99,1119.07 
  1058.55,1133.96 1048.78,1148.85 1048.72,1148.94 1028.26,1162.95 1007.79,1161.36 
  "/>
<polyline clip-path="url(#clip932)" style="stroke:#f98c09; stroke-width:4; stroke-opacity:1; fill:none" points="
  1028.26,1141.01 1007.79,1139.21 1002.05,1133.96 987.556,1119.07 987.332,1118.81 980.233,1104.19 974.069,1089.3 968.866,1074.41 966.869,1067.63 965.016,1059.53 
  962.222,1044.64 960.035,1029.75 958.422,1014.87 957.359,999.98 956.833,985.094 956.836,970.207 957.369,955.321 958.442,940.434 960.07,925.548 962.277,910.661 
  965.097,895.775 966.869,888.055 969.023,880.888 974.319,866.002 980.593,851.115 987.332,837.41 988.385,836.229 1003.15,821.342 1007.79,817.129 1028.26,815.183 
  1036.75,821.342 1048.72,830.885 1051.95,836.229 1059.96,851.115 1066.78,866.002 1069.18,872.064 1071.7,880.888 1075.28,895.775 1078.18,910.661 1080.45,925.548 
  1082.11,940.434 1083.2,955.321 1083.73,970.207 1083.71,985.094 1083.15,999.98 1082.03,1014.87 1080.34,1029.75 1078.06,1044.64 1075.15,1059.53 1071.58,1074.41 
  1069.18,1082.84 1066.68,1089.3 1059.99,1104.19 1052.15,1119.07 1048.72,1124.82 1037.68,1133.96 1028.26,1141.01 
  "/>
<polyline clip-path="url(#clip932)" style="stroke:#fbaa0e; stroke-width:4; stroke-opacity:1; fill:none" points="
  1028.26,1117.59 1007.79,1115.4 997.814,1104.19 987.332,1090.53 986.804,1089.3 981.233,1074.41 976.614,1059.53 972.873,1044.64 969.954,1029.75 967.813,1014.87 
  966.869,1004.79 966.514,999.98 965.989,985.094 966.039,970.207 966.663,955.321 966.869,952.744 968.135,940.434 970.424,925.548 973.511,910.661 977.441,895.775 
  982.273,880.888 987.332,867.856 988.624,866.002 1000.5,851.115 1007.79,843.132 1028.26,840.824 1040,851.115 1048.72,859.784 1051.77,866.002 1058.08,880.888 
  1063.33,895.775 1067.59,910.661 1069.18,917.666 1070.49,925.548 1072.35,940.434 1073.58,955.321 1074.21,970.207 1074.24,985.094 1073.68,999.98 1072.52,1014.87 
  1070.74,1029.75 1069.18,1039.43 1068.05,1044.64 1063.97,1059.53 1058.95,1074.41 1052.89,1089.3 1048.72,1098.08 1042.9,1104.19 1028.26,1117.59 
  "/>
<polyline clip-path="url(#clip932)" style="stroke:#f8c931; stroke-width:4; stroke-opacity:1; fill:none" points="
  1028.26,1091.14 1013.59,1089.3 1007.79,1088.48 998.139,1074.41 989.669,1059.53 987.332,1054.5 984.719,1044.64 981.636,1029.75 979.393,1014.87 977.955,999.98 
  977.305,985.094 977.433,970.207 978.342,955.321 980.048,940.434 982.575,925.548 985.962,910.661 987.332,905.821 992.391,895.775 1001.5,880.888 1007.79,872.177 
  1028.26,869.274 1038.72,880.888 1048.72,894.069 1049.36,895.775 1054.02,910.661 1057.69,925.548 1060.42,940.434 1062.26,955.321 1063.22,970.207 1063.34,985.094 
  1062.61,999.98 1061.03,1014.87 1058.57,1029.75 1055.21,1044.64 1050.89,1059.53 1048.72,1065.65 1042.55,1074.41 1030.04,1089.3 1028.26,1091.14 
  "/>
<polyline clip-path="url(#clip932)" style="stroke:#f1e864; stroke-width:4; stroke-opacity:1; fill:none" points="
  1028.26,1058.23 1007.79,1054.04 1003.26,1044.64 997.663,1029.75 993.615,1014.87 991.057,999.98 989.953,985.094 990.289,970.207 992.073,955.321 995.331,940.434 
  1000.11,925.548 1006.49,910.661 1007.79,908.194 1028.26,904.196 1032.51,910.661 1040.37,925.548 1046.24,940.434 1048.72,949.629 1049.49,955.321 1050.6,970.207 
  1050.79,985.094 1050.08,999.98 1048.72,1012.45 1048.2,1014.87 1043.21,1029.75 1036.33,1044.64 1028.26,1058.23 
  "/>
<defs>
  <clipPath id="clip933">
    <rect x="2160" y="47" width="73" height="1475"/>
  </clipPath>
</defs>
<polyline clip-path="url(#clip933)" style="stroke:#0a0723; stroke-width:4; stroke-opacity:1; fill:none" points="
  2160.76,1428.9 2232.76,1428.9 
  "/>
<polyline clip-path="url(#clip933)" style="stroke:#200c4a; stroke-width:4; stroke-opacity:1; fill:none" points="
  2160.76,1336.79 2232.76,1336.79 
  "/>
<polyline clip-path="url(#clip933)" style="stroke:#3c0965; stroke-width:4; stroke-opacity:1; fill:none" points="
  2160.76,1244.68 2232.76,1244.68 
  "/>
<polyline clip-path="url(#clip933)" style="stroke:#570f6d; stroke-width:4; stroke-opacity:1; fill:none" points="
  2160.76,1152.57 2232.76,1152.57 
  "/>
<polyline clip-path="url(#clip933)" style="stroke:#70196e; stroke-width:4; stroke-opacity:1; fill:none" points="
  2160.76,1060.46 2232.76,1060.46 
  "/>
<polyline clip-path="url(#clip933)" style="stroke:#892269; stroke-width:4; stroke-opacity:1; fill:none" points="
  2160.76,968.346 2232.76,968.346 
  "/>
<polyline clip-path="url(#clip933)" style="stroke:#a32b61; stroke-width:4; stroke-opacity:1; fill:none" points="
  2160.76,876.236 2232.76,876.236 
  "/>
<polyline clip-path="url(#clip933)" style="stroke:#bb3754; stroke-width:4; stroke-opacity:1; fill:none" points="
  2160.76,784.126 2232.76,784.126 
  "/>
<polyline clip-path="url(#clip933)" style="stroke:#d04544; stroke-width:4; stroke-opacity:1; fill:none" points="
  2160.76,692.016 2232.76,692.016 
  "/>
<polyline clip-path="url(#clip933)" style="stroke:#e35832; stroke-width:4; stroke-opacity:1; fill:none" points="
  2160.76,599.906 2232.76,599.906 
  "/>
<polyline clip-path="url(#clip933)" style="stroke:#f0701e; stroke-width:4; stroke-opacity:1; fill:none" points="
  2160.76,507.795 2232.76,507.795 
  "/>
<polyline clip-path="url(#clip933)" style="stroke:#f98c09; stroke-width:4; stroke-opacity:1; fill:none" points="
  2160.76,415.685 2232.76,415.685 
  "/>
<polyline clip-path="url(#clip933)" style="stroke:#fbaa0e; stroke-width:4; stroke-opacity:1; fill:none" points="
  2160.76,323.575 2232.76,323.575 
  "/>
<polyline clip-path="url(#clip933)" style="stroke:#f8c931; stroke-width:4; stroke-opacity:1; fill:none" points="
  2160.76,231.465 2232.76,231.465 
  "/>
<polyline clip-path="url(#clip933)" style="stroke:#f1e864; stroke-width:4; stroke-opacity:1; fill:none" points="
  2160.76,139.354 2232.76,139.354 
  "/>
<path clip-path="url(#clip930)" d="M 0 0 M2280.7 1355.8 Q2277.09 1355.8 2275.26 1359.37 Q2273.45 1362.91 2273.45 1370.04 Q2273.45 1377.14 2275.26 1380.71 Q2277.09 1384.25 2280.7 1384.25 Q2284.33 1384.25 2286.14 1380.71 Q2287.97 1377.14 2287.97 1370.04 Q2287.97 1362.91 2286.14 1359.37 Q2284.33 1355.8 2280.7 1355.8 M2280.7 1352.1 Q2286.51 1352.1 2289.57 1356.7 Q2292.64 1361.29 2292.64 1370.04 Q2292.64 1378.76 2289.57 1383.37 Q2286.51 1387.95 2280.7 1387.95 Q2274.89 1387.95 2271.81 1383.37 Q2268.76 1378.76 2268.76 1370.04 Q2268.76 1361.29 2271.81 1356.7 Q2274.89 1352.1 2280.7 1352.1 Z" fill="#000000" fill-rule="evenodd" fill-opacity="1" /><path clip-path="url(#clip930)" d="M 0 0 M2297.71 1381.4 L2302.6 1381.4 L2302.6 1387.28 L2297.71 1387.28 L2297.71 1381.4 Z" fill="#000000" fill-rule="evenodd" fill-opacity="1" /><path clip-path="url(#clip930)" d="M 0 0 M2308.48 1383.35 L2316.12 1383.35 L2316.12 1356.98 L2307.81 1358.65 L2307.81 1354.39 L2316.07 1352.72 L2320.75 1352.72 L2320.75 1383.35 L2328.39 1383.35 L2328.39 1387.28 L2308.48 1387.28 L2308.48 1383.35 Z" fill="#000000" fill-rule="evenodd" fill-opacity="1" /><path clip-path="url(#clip930)" d="M 0 0 M2280.7 1208.43 Q2277.09 1208.43 2275.26 1211.99 Q2273.45 1215.53 2273.45 1222.66 Q2273.45 1229.77 2275.26 1233.33 Q2277.09 1236.87 2280.7 1236.87 Q2284.33 1236.87 2286.14 1233.33 Q2287.97 1229.77 2287.97 1222.66 Q2287.97 1215.53 2286.14 1211.99 Q2284.33 1208.43 2280.7 1208.43 M2280.7 1204.72 Q2286.51 1204.72 2289.57 1209.33 Q2292.64 1213.91 2292.64 1222.66 Q2292.64 1231.39 2289.57 1235.99 Q2286.51 1240.58 2280.7 1240.58 Q2274.89 1240.58 2271.81 1235.99 Q2268.76 1231.39 2268.76 1222.66 Q2268.76 1213.91 2271.81 1209.33 Q2274.89 1204.72 2280.7 1204.72 Z" fill="#000000" fill-rule="evenodd" fill-opacity="1" /><path clip-path="url(#clip930)" d="M 0 0 M2297.71 1234.03 L2302.6 1234.03 L2302.6 1239.91 L2297.71 1239.91 L2297.71 1234.03 Z" fill="#000000" fill-rule="evenodd" fill-opacity="1" /><path clip-path="url(#clip930)" d="M 0 0 M2311.7 1235.97 L2328.01 1235.97 L2328.01 1239.91 L2306.07 1239.91 L2306.07 1235.97 Q2308.73 1233.22 2313.32 1228.59 Q2317.92 1223.93 2319.1 1222.59 Q2321.35 1220.07 2322.23 1218.33 Q2323.13 1216.57 2323.13 1214.88 Q2323.13 1212.13 2321.19 1210.39 Q2319.26 1208.66 2316.16 1208.66 Q2313.96 1208.66 2311.51 1209.42 Q2309.08 1210.18 2306.3 1211.74 L2306.3 1207.01 Q2309.13 1205.88 2311.58 1205.3 Q2314.03 1204.72 2316.07 1204.72 Q2321.44 1204.72 2324.64 1207.41 Q2327.83 1210.09 2327.83 1214.58 Q2327.83 1216.71 2327.02 1218.63 Q2326.23 1220.53 2324.13 1223.12 Q2323.55 1223.8 2320.45 1227.01 Q2317.34 1230.21 2311.7 1235.97 Z" fill="#000000" fill-rule="evenodd" fill-opacity="1" /><path clip-path="url(#clip930)" d="M 0 0 M2280.7 1061.05 Q2277.09 1061.05 2275.26 1064.61 Q2273.45 1068.16 2273.45 1075.28 Q2273.45 1082.39 2275.26 1085.96 Q2277.09 1089.5 2280.7 1089.5 Q2284.33 1089.5 2286.14 1085.96 Q2287.97 1082.39 2287.97 1075.28 Q2287.97 1068.16 2286.14 1064.61 Q2284.33 1061.05 2280.7 1061.05 M2280.7 1057.34 Q2286.51 1057.34 2289.57 1061.95 Q2292.64 1066.53 2292.64 1075.28 Q2292.64 1084.01 2289.57 1088.62 Q2286.51 1093.2 2280.7 1093.2 Q2274.89 1093.2 2271.81 1088.62 Q2268.76 1084.01 2268.76 1075.28 Q2268.76 1066.53 2271.81 1061.95 Q2274.89 1057.34 2280.7 1057.34 Z" fill="#000000" fill-rule="evenodd" fill-opacity="1" /><path clip-path="url(#clip930)" d="M 0 0 M2297.71 1086.65 L2302.6 1086.65 L2302.6 1092.53 L2297.71 1092.53 L2297.71 1086.65 Z" fill="#000000" fill-rule="evenodd" fill-opacity="1" /><path clip-path="url(#clip930)" d="M 0 0 M2321.83 1073.9 Q2325.19 1074.61 2327.07 1076.88 Q2328.96 1079.15 2328.96 1082.48 Q2328.96 1087.6 2325.45 1090.4 Q2321.93 1093.2 2315.45 1093.2 Q2313.27 1093.2 2310.95 1092.76 Q2308.66 1092.34 2306.21 1091.49 L2306.21 1086.97 Q2308.15 1088.11 2310.47 1088.69 Q2312.78 1089.27 2315.31 1089.27 Q2319.7 1089.27 2322 1087.53 Q2324.31 1085.79 2324.31 1082.48 Q2324.31 1079.43 2322.16 1077.72 Q2320.03 1075.98 2316.21 1075.98 L2312.18 1075.98 L2312.18 1072.14 L2316.39 1072.14 Q2319.84 1072.14 2321.67 1070.77 Q2323.5 1069.38 2323.5 1066.79 Q2323.5 1064.13 2321.6 1062.72 Q2319.73 1061.28 2316.21 1061.28 Q2314.29 1061.28 2312.09 1061.7 Q2309.89 1062.11 2307.25 1062.99 L2307.25 1058.83 Q2309.91 1058.09 2312.23 1057.72 Q2314.57 1057.34 2316.63 1057.34 Q2321.95 1057.34 2325.05 1059.78 Q2328.15 1062.18 2328.15 1066.3 Q2328.15 1069.17 2326.51 1071.16 Q2324.87 1073.13 2321.83 1073.9 Z" fill="#000000" fill-rule="evenodd" fill-opacity="1" /><path clip-path="url(#clip930)" d="M 0 0 M2280.7 913.672 Q2277.09 913.672 2275.26 917.237 Q2273.45 920.779 2273.45 927.908 Q2273.45 935.015 2275.26 938.58 Q2277.09 942.121 2280.7 942.121 Q2284.33 942.121 2286.14 938.58 Q2287.97 935.015 2287.97 927.908 Q2287.97 920.779 2286.14 917.237 Q2284.33 913.672 2280.7 913.672 M2280.7 909.969 Q2286.51 909.969 2289.57 914.575 Q2292.64 919.158 2292.64 927.908 Q2292.64 936.635 2289.57 941.242 Q2286.51 945.825 2280.7 945.825 Q2274.89 945.825 2271.81 941.242 Q2268.76 936.635 2268.76 927.908 Q2268.76 919.158 2271.81 914.575 Q2274.89 909.969 2280.7 909.969 Z" fill="#000000" fill-rule="evenodd" fill-opacity="1" /><path clip-path="url(#clip930)" d="M 0 0 M2297.71 939.274 L2302.6 939.274 L2302.6 945.154 L2297.71 945.154 L2297.71 939.274 Z" fill="#000000" fill-rule="evenodd" fill-opacity="1" /><path clip-path="url(#clip930)" d="M 0 0 M2320.51 914.668 L2308.71 933.117 L2320.51 933.117 L2320.51 914.668 M2319.29 910.594 L2325.17 910.594 L2325.17 933.117 L2330.1 933.117 L2330.1 937.005 L2325.17 937.005 L2325.17 945.154 L2320.51 945.154 L2320.51 937.005 L2304.91 937.005 L2304.91 932.492 L2319.29 910.594 Z" fill="#000000" fill-rule="evenodd" fill-opacity="1" /><path clip-path="url(#clip930)" d="M 0 0 M2280.7 766.296 Q2277.09 766.296 2275.26 769.861 Q2273.45 773.402 2273.45 780.532 Q2273.45 787.638 2275.26 791.203 Q2277.09 794.745 2280.7 794.745 Q2284.33 794.745 2286.14 791.203 Q2287.97 787.638 2287.97 780.532 Q2287.97 773.402 2286.14 769.861 Q2284.33 766.296 2280.7 766.296 M2280.7 762.592 Q2286.51 762.592 2289.57 767.199 Q2292.64 771.782 2292.64 780.532 Q2292.64 789.259 2289.57 793.865 Q2286.51 798.448 2280.7 798.448 Q2274.89 798.448 2271.81 793.865 Q2268.76 789.259 2268.76 780.532 Q2268.76 771.782 2271.81 767.199 Q2274.89 762.592 2280.7 762.592 Z" fill="#000000" fill-rule="evenodd" fill-opacity="1" /><path clip-path="url(#clip930)" d="M 0 0 M2297.71 791.898 L2302.6 791.898 L2302.6 797.777 L2297.71 797.777 L2297.71 791.898 Z" fill="#000000" fill-rule="evenodd" fill-opacity="1" /><path clip-path="url(#clip930)" d="M 0 0 M2307.71 763.217 L2326.07 763.217 L2326.07 767.152 L2312 767.152 L2312 775.625 Q2313.01 775.277 2314.03 775.115 Q2315.05 774.93 2316.07 774.93 Q2321.86 774.93 2325.24 778.101 Q2328.62 781.273 2328.62 786.689 Q2328.62 792.268 2325.14 795.37 Q2321.67 798.448 2315.35 798.448 Q2313.18 798.448 2310.91 798.078 Q2308.66 797.708 2306.26 796.967 L2306.26 792.268 Q2308.34 793.402 2310.56 793.958 Q2312.78 794.513 2315.26 794.513 Q2319.26 794.513 2321.6 792.407 Q2323.94 790.3 2323.94 786.689 Q2323.94 783.078 2321.6 780.972 Q2319.26 778.865 2315.26 778.865 Q2313.39 778.865 2311.51 779.282 Q2309.66 779.699 2307.71 780.578 L2307.71 763.217 Z" fill="#000000" fill-rule="evenodd" fill-opacity="1" /><path clip-path="url(#clip930)" d="M 0 0 M2280.7 618.919 Q2277.09 618.919 2275.26 622.484 Q2273.45 626.026 2273.45 633.156 Q2273.45 640.262 2275.26 643.827 Q2277.09 647.368 2280.7 647.368 Q2284.33 647.368 2286.14 643.827 Q2287.97 640.262 2287.97 633.156 Q2287.97 626.026 2286.14 622.484 Q2284.33 618.919 2280.7 618.919 M2280.7 615.216 Q2286.51 615.216 2289.57 619.822 Q2292.64 624.406 2292.64 633.156 Q2292.64 641.882 2289.57 646.489 Q2286.51 651.072 2280.7 651.072 Q2274.89 651.072 2271.81 646.489 Q2268.76 641.882 2268.76 633.156 Q2268.76 624.406 2271.81 619.822 Q2274.89 615.216 2280.7 615.216 Z" fill="#000000" fill-rule="evenodd" fill-opacity="1" /><path clip-path="url(#clip930)" d="M 0 0 M2297.71 644.521 L2302.6 644.521 L2302.6 650.401 L2297.71 650.401 L2297.71 644.521 Z" fill="#000000" fill-rule="evenodd" fill-opacity="1" /><path clip-path="url(#clip930)" d="M 0 0 M2318.25 631.257 Q2315.1 631.257 2313.25 633.41 Q2311.42 635.563 2311.42 639.313 Q2311.42 643.04 2313.25 645.216 Q2315.1 647.368 2318.25 647.368 Q2321.39 647.368 2323.22 645.216 Q2325.08 643.04 2325.08 639.313 Q2325.08 635.563 2323.22 633.41 Q2321.39 631.257 2318.25 631.257 M2327.53 616.605 L2327.53 620.864 Q2325.77 620.031 2323.96 619.591 Q2322.18 619.151 2320.42 619.151 Q2315.79 619.151 2313.34 622.276 Q2310.91 625.401 2310.56 631.72 Q2311.93 629.706 2313.99 628.642 Q2316.05 627.554 2318.52 627.554 Q2323.73 627.554 2326.74 630.725 Q2329.77 633.873 2329.77 639.313 Q2329.77 644.637 2326.63 647.855 Q2323.48 651.072 2318.25 651.072 Q2312.25 651.072 2309.08 646.489 Q2305.91 641.882 2305.91 633.156 Q2305.91 624.961 2309.8 620.1 Q2313.69 615.216 2320.24 615.216 Q2322 615.216 2323.78 615.563 Q2325.58 615.91 2327.53 616.605 Z" fill="#000000" fill-rule="evenodd" fill-opacity="1" /><path clip-path="url(#clip930)" d="M 0 0 M2280.7 471.543 Q2277.09 471.543 2275.26 475.108 Q2273.45 478.65 2273.45 485.779 Q2273.45 492.886 2275.26 496.45 Q2277.09 499.992 2280.7 499.992 Q2284.33 499.992 2286.14 496.45 Q2287.97 492.886 2287.97 485.779 Q2287.97 478.65 2286.14 475.108 Q2284.33 471.543 2280.7 471.543 M2280.7 467.839 Q2286.51 467.839 2289.57 472.446 Q2292.64 477.029 2292.64 485.779 Q2292.64 494.506 2289.57 499.112 Q2286.51 503.696 2280.7 503.696 Q2274.89 503.696 2271.81 499.112 Q2268.76 494.506 2268.76 485.779 Q2268.76 477.029 2271.81 472.446 Q2274.89 467.839 2280.7 467.839 Z" fill="#000000" fill-rule="evenodd" fill-opacity="1" /><path clip-path="url(#clip930)" d="M 0 0 M2297.71 497.145 L2302.6 497.145 L2302.6 503.024 L2297.71 503.024 L2297.71 497.145 Z" fill="#000000" fill-rule="evenodd" fill-opacity="1" /><path clip-path="url(#clip930)" d="M 0 0 M2306.49 468.464 L2328.71 468.464 L2328.71 470.455 L2316.16 503.024 L2311.28 503.024 L2323.08 472.4 L2306.49 472.4 L2306.49 468.464 Z" fill="#000000" fill-rule="evenodd" fill-opacity="1" /><path clip-path="url(#clip930)" d="M 0 0 M2280.7 324.167 Q2277.09 324.167 2275.26 327.732 Q2273.45 331.273 2273.45 338.403 Q2273.45 345.509 2275.26 349.074 Q2277.09 352.616 2280.7 352.616 Q2284.33 352.616 2286.14 349.074 Q2287.97 345.509 2287.97 338.403 Q2287.97 331.273 2286.14 327.732 Q2284.33 324.167 2280.7 324.167 M2280.7 320.463 Q2286.51 320.463 2289.57 325.07 Q2292.64 329.653 2292.64 338.403 Q2292.64 347.13 2289.57 351.736 Q2286.51 356.319 2280.7 356.319 Q2274.89 356.319 2271.81 351.736 Q2268.76 347.13 2268.76 338.403 Q2268.76 329.653 2271.81 325.07 Q2274.89 320.463 2280.7 320.463 Z" fill="#000000" fill-rule="evenodd" fill-opacity="1" /><path clip-path="url(#clip930)" d="M 0 0 M2297.71 349.768 L2302.6 349.768 L2302.6 355.648 L2297.71 355.648 L2297.71 349.768 Z" fill="#000000" fill-rule="evenodd" fill-opacity="1" /><path clip-path="url(#clip930)" d="M 0 0 M2317.67 339.236 Q2314.33 339.236 2312.41 341.018 Q2310.51 342.801 2310.51 345.926 Q2310.51 349.051 2312.41 350.833 Q2314.33 352.616 2317.67 352.616 Q2321 352.616 2322.92 350.833 Q2324.84 349.028 2324.84 345.926 Q2324.84 342.801 2322.92 341.018 Q2321.02 339.236 2317.67 339.236 M2312.99 337.245 Q2309.98 336.505 2308.29 334.444 Q2306.63 332.384 2306.63 329.421 Q2306.63 325.278 2309.57 322.87 Q2312.53 320.463 2317.67 320.463 Q2322.83 320.463 2325.77 322.87 Q2328.71 325.278 2328.71 329.421 Q2328.71 332.384 2327.02 334.444 Q2325.35 336.505 2322.37 337.245 Q2325.75 338.032 2327.62 340.324 Q2329.52 342.616 2329.52 345.926 Q2329.52 350.949 2326.44 353.634 Q2323.39 356.319 2317.67 356.319 Q2311.95 356.319 2308.87 353.634 Q2305.82 350.949 2305.82 345.926 Q2305.82 342.616 2307.71 340.324 Q2309.61 338.032 2312.99 337.245 M2311.28 329.861 Q2311.28 332.546 2312.95 334.051 Q2314.64 335.556 2317.67 335.556 Q2320.68 335.556 2322.37 334.051 Q2324.08 332.546 2324.08 329.861 Q2324.08 327.176 2322.37 325.671 Q2320.68 324.167 2317.67 324.167 Q2314.64 324.167 2312.95 325.671 Q2311.28 327.176 2311.28 329.861 Z" fill="#000000" fill-rule="evenodd" fill-opacity="1" /><path clip-path="url(#clip930)" d="M 0 0 M2280.7 176.79 Q2277.09 176.79 2275.26 180.355 Q2273.45 183.897 2273.45 191.026 Q2273.45 198.133 2275.26 201.698 Q2277.09 205.239 2280.7 205.239 Q2284.33 205.239 2286.14 201.698 Q2287.97 198.133 2287.97 191.026 Q2287.97 183.897 2286.14 180.355 Q2284.33 176.79 2280.7 176.79 M2280.7 173.087 Q2286.51 173.087 2289.57 177.693 Q2292.64 182.276 2292.64 191.026 Q2292.64 199.753 2289.57 204.36 Q2286.51 208.943 2280.7 208.943 Q2274.89 208.943 2271.81 204.36 Q2268.76 199.753 2268.76 191.026 Q2268.76 182.276 2271.81 177.693 Q2274.89 173.087 2280.7 173.087 Z" fill="#000000" fill-rule="evenodd" fill-opacity="1" /><path clip-path="url(#clip930)" d="M 0 0 M2297.71 202.392 L2302.6 202.392 L2302.6 208.272 L2297.71 208.272 L2297.71 202.392 Z" fill="#000000" fill-rule="evenodd" fill-opacity="1" /><path clip-path="url(#clip930)" d="M 0 0 M2307.81 207.554 L2307.81 203.295 Q2309.57 204.128 2311.37 204.568 Q2313.18 205.008 2314.91 205.008 Q2319.54 205.008 2321.97 201.906 Q2324.43 198.781 2324.77 192.438 Q2323.43 194.429 2321.37 195.494 Q2319.31 196.559 2316.81 196.559 Q2311.63 196.559 2308.59 193.434 Q2305.58 190.286 2305.58 184.846 Q2305.58 179.522 2308.73 176.304 Q2311.88 173.087 2317.11 173.087 Q2323.11 173.087 2326.26 177.693 Q2329.43 182.276 2329.43 191.026 Q2329.43 199.198 2325.54 204.082 Q2321.67 208.943 2315.12 208.943 Q2313.36 208.943 2311.56 208.596 Q2309.75 208.249 2307.81 207.554 M2317.11 192.901 Q2320.26 192.901 2322.09 190.749 Q2323.94 188.596 2323.94 184.846 Q2323.94 181.119 2322.09 178.966 Q2320.26 176.79 2317.11 176.79 Q2313.96 176.79 2312.11 178.966 Q2310.28 181.119 2310.28 184.846 Q2310.28 188.596 2312.11 190.749 Q2313.96 192.901 2317.11 192.901 Z" fill="#000000" fill-rule="evenodd" fill-opacity="1" /><path clip-path="url(#clip930)" d="M 0 0 M2269.43 56.9601 L2277.07 56.9601 L2277.07 30.5945 L2268.76 32.2612 L2268.76 28.002 L2277.02 26.3353 L2281.7 26.3353 L2281.7 56.9601 L2289.33 56.9601 L2289.33 60.8953 L2269.43 60.8953 L2269.43 56.9601 Z" fill="#000000" fill-rule="evenodd" fill-opacity="1" /><path clip-path="url(#clip930)" d="M 0 0 M2294.4 55.0157 L2299.29 55.0157 L2299.29 60.8953 L2294.4 60.8953 L2294.4 55.0157 Z" fill="#000000" fill-rule="evenodd" fill-opacity="1" /><path clip-path="url(#clip930)" d="M 0 0 M2314.36 29.414 Q2310.75 29.414 2308.92 32.9788 Q2307.11 36.5204 2307.11 43.65 Q2307.11 50.7565 2308.92 54.3213 Q2310.75 57.8629 2314.36 57.8629 Q2317.99 57.8629 2319.8 54.3213 Q2321.63 50.7565 2321.63 43.65 Q2321.63 36.5204 2319.8 32.9788 Q2317.99 29.414 2314.36 29.414 M2314.36 25.7103 Q2320.17 25.7103 2323.22 30.3168 Q2326.3 34.9001 2326.3 43.65 Q2326.3 52.3768 2323.22 56.9833 Q2320.17 61.5666 2314.36 61.5666 Q2308.55 61.5666 2305.47 56.9833 Q2302.41 52.3768 2302.41 43.65 Q2302.41 34.9001 2305.47 30.3168 Q2308.55 25.7103 2314.36 25.7103 Z" fill="#000000" fill-rule="evenodd" fill-opacity="1" /><polyline clip-path="url(#clip930)" style="stroke:#000000; stroke-width:4; stroke-opacity:1; fill:none" points="
  2232.76,1521.01 2232.76,1373.63 2256.76,1373.63 2232.76,1373.63 2232.76,1226.26 2256.76,1226.26 2232.76,1226.26 2232.76,1078.88 2256.76,1078.88 2232.76,1078.88 
  2232.76,931.502 2256.76,931.502 2232.76,931.502 2232.76,784.126 2256.76,784.126 2232.76,784.126 2232.76,636.75 2256.76,636.75 2232.76,636.75 2232.76,489.373 
  2256.76,489.373 2232.76,489.373 2232.76,341.997 2256.76,341.997 2232.76,341.997 2232.76,194.62 2256.76,194.62 2232.76,194.62 2232.76,47.2441 2256.76,47.2441 
  2232.76,47.2441 
  "/>
</svg>
