<?xml version="1.0" encoding="utf-8"?>
<svg xmlns="http://www.w3.org/2000/svg" xmlns:xlink="http://www.w3.org/1999/xlink" width="600" height="400" viewBox="0 0 2400 1600">
<defs>
  <clipPath id="clip500">
    <rect x="0" y="0" width="2400" height="1600"/>
  </clipPath>
</defs>
<path clip-path="url(#clip500)" d="
M0 1600 L2400 1600 L2400 0 L0 0  Z
  " fill="#ffffff" fill-rule="evenodd" fill-opacity="1"/>
<defs>
  <clipPath id="clip501">
    <rect x="480" y="0" width="1681" height="1600"/>
  </clipPath>
</defs>
<path clip-path="url(#clip500)" d="
M102.74 1505.26 L2352.76 1505.26 L2352.76 47.2441 L102.74 47.2441  Z
  " fill="#ffffff" fill-rule="evenodd" fill-opacity="1"/>
<defs>
  <clipPath id="clip502">
    <rect x="102" y="47" width="2251" height="1459"/>
  </clipPath>
</defs>
<polyline clip-path="url(#clip502)" style="stroke:#000000; stroke-width:2; stroke-opacity:0.1; fill:none" points="
  363.363,1505.26 363.363,47.2441 
  "/>
<polyline clip-path="url(#clip502)" style="stroke:#000000; stroke-width:2; stroke-opacity:0.1; fill:none" points="
  724.567,1505.26 724.567,47.2441 
  "/>
<polyline clip-path="url(#clip502)" style="stroke:#000000; stroke-width:2; stroke-opacity:0.1; fill:none" points="
  1085.77,1505.26 1085.77,47.2441 
  "/>
<polyline clip-path="url(#clip502)" style="stroke:#000000; stroke-width:2; stroke-opacity:0.1; fill:none" points="
  1446.97,1505.26 1446.97,47.2441 
  "/>
<polyline clip-path="url(#clip502)" style="stroke:#000000; stroke-width:2; stroke-opacity:0.1; fill:none" points="
  1808.18,1505.26 1808.18,47.2441 
  "/>
<polyline clip-path="url(#clip502)" style="stroke:#000000; stroke-width:2; stroke-opacity:0.1; fill:none" points="
  2169.38,1505.26 2169.38,47.2441 
  "/>
<polyline clip-path="url(#clip500)" style="stroke:#000000; stroke-width:4; stroke-opacity:1; fill:none" points="
  102.74,1505.26 2352.76,1505.26 
  "/>
<polyline clip-path="url(#clip500)" style="stroke:#000000; stroke-width:4; stroke-opacity:1; fill:none" points="
  363.363,1505.26 363.363,1487.76 
  "/>
<polyline clip-path="url(#clip500)" style="stroke:#000000; stroke-width:4; stroke-opacity:1; fill:none" points="
  724.567,1505.26 724.567,1487.76 
  "/>
<polyline clip-path="url(#clip500)" style="stroke:#000000; stroke-width:4; stroke-opacity:1; fill:none" points="
  1085.77,1505.26 1085.77,1487.76 
  "/>
<polyline clip-path="url(#clip500)" style="stroke:#000000; stroke-width:4; stroke-opacity:1; fill:none" points="
  1446.97,1505.26 1446.97,1487.76 
  "/>
<polyline clip-path="url(#clip500)" style="stroke:#000000; stroke-width:4; stroke-opacity:1; fill:none" points="
  1808.18,1505.26 1808.18,1487.76 
  "/>
<polyline clip-path="url(#clip500)" style="stroke:#000000; stroke-width:4; stroke-opacity:1; fill:none" points="
  2169.38,1505.26 2169.38,1487.76 
  "/>
<path clip-path="url(#clip500)" d="M 0 0 M308.791 1562 L316.43 1562 L316.43 1535.63 L308.12 1537.3 L308.12 1533.04 L316.384 1531.37 L321.06 1531.37 L321.06 1562 L328.698 1562 L328.698 1565.93 L308.791 1565.93 L308.791 1562 Z" fill="#000000" fill-rule="evenodd" fill-opacity="1" /><path clip-path="url(#clip500)" d="M 0 0 M333.814 1531.37 L352.171 1531.37 L352.171 1535.31 L338.097 1535.31 L338.097 1543.78 Q339.115 1543.43 340.134 1543.27 Q341.152 1543.08 342.171 1543.08 Q347.958 1543.08 351.337 1546.26 Q354.717 1549.43 354.717 1554.84 Q354.717 1560.42 351.245 1563.52 Q347.772 1566.6 341.453 1566.6 Q339.277 1566.6 337.009 1566.23 Q334.763 1565.86 332.356 1565.12 L332.356 1560.42 Q334.439 1561.56 336.661 1562.11 Q338.884 1562.67 341.36 1562.67 Q345.365 1562.67 347.703 1560.56 Q350.041 1558.46 350.041 1554.84 Q350.041 1551.23 347.703 1549.13 Q345.365 1547.02 341.36 1547.02 Q339.485 1547.02 337.61 1547.44 Q335.759 1547.85 333.814 1548.73 L333.814 1531.37 Z" fill="#000000" fill-rule="evenodd" fill-opacity="1" /><path clip-path="url(#clip500)" d="M 0 0 M369.786 1549.52 Q366.453 1549.52 364.532 1551.3 Q362.633 1553.08 362.633 1556.21 Q362.633 1559.33 364.532 1561.12 Q366.453 1562.9 369.786 1562.9 Q373.119 1562.9 375.041 1561.12 Q376.962 1559.31 376.962 1556.21 Q376.962 1553.08 375.041 1551.3 Q373.143 1549.52 369.786 1549.52 M365.11 1547.53 Q362.101 1546.79 360.411 1544.73 Q358.745 1542.67 358.745 1539.71 Q358.745 1535.56 361.684 1533.15 Q364.647 1530.75 369.786 1530.75 Q374.948 1530.75 377.888 1533.15 Q380.828 1535.56 380.828 1539.71 Q380.828 1542.67 379.138 1544.73 Q377.471 1546.79 374.485 1547.53 Q377.865 1548.32 379.74 1550.61 Q381.638 1552.9 381.638 1556.21 Q381.638 1561.23 378.559 1563.92 Q375.504 1566.6 369.786 1566.6 Q364.069 1566.6 360.99 1563.92 Q357.934 1561.23 357.934 1556.21 Q357.934 1552.9 359.833 1550.61 Q361.731 1548.32 365.11 1547.53 M363.397 1540.14 Q363.397 1542.83 365.064 1544.33 Q366.754 1545.84 369.786 1545.84 Q372.795 1545.84 374.485 1544.33 Q376.198 1542.83 376.198 1540.14 Q376.198 1537.46 374.485 1535.96 Q372.795 1534.45 369.786 1534.45 Q366.754 1534.45 365.064 1535.96 Q363.397 1537.46 363.397 1540.14 Z" fill="#000000" fill-rule="evenodd" fill-opacity="1" /><path clip-path="url(#clip500)" d="M 0 0 M386.707 1560.05 L391.592 1560.05 L391.592 1565.93 L386.707 1565.93 L386.707 1560.05 Z" fill="#000000" fill-rule="evenodd" fill-opacity="1" /><path clip-path="url(#clip500)" d="M 0 0 M406.661 1534.45 Q403.05 1534.45 401.221 1538.02 Q399.416 1541.56 399.416 1548.69 Q399.416 1555.79 401.221 1559.36 Q403.05 1562.9 406.661 1562.9 Q410.295 1562.9 412.101 1559.36 Q413.929 1555.79 413.929 1548.69 Q413.929 1541.56 412.101 1538.02 Q410.295 1534.45 406.661 1534.45 M406.661 1530.75 Q412.471 1530.75 415.527 1535.35 Q418.605 1539.94 418.605 1548.69 Q418.605 1557.41 415.527 1562.02 Q412.471 1566.6 406.661 1566.6 Q400.851 1566.6 397.772 1562.02 Q394.717 1557.41 394.717 1548.69 Q394.717 1539.94 397.772 1535.35 Q400.851 1530.75 406.661 1530.75 Z" fill="#000000" fill-rule="evenodd" fill-opacity="1" /><path clip-path="url(#clip500)" d="M 0 0 M670.493 1562 L678.132 1562 L678.132 1535.63 L669.822 1537.3 L669.822 1533.04 L678.085 1531.37 L682.761 1531.37 L682.761 1562 L690.4 1562 L690.4 1565.93 L670.493 1565.93 L670.493 1562 Z" fill="#000000" fill-rule="evenodd" fill-opacity="1" /><path clip-path="url(#clip500)" d="M 0 0 M695.516 1531.37 L713.872 1531.37 L713.872 1535.31 L699.798 1535.31 L699.798 1543.78 Q700.817 1543.43 701.835 1543.27 Q702.854 1543.08 703.872 1543.08 Q709.659 1543.08 713.039 1546.26 Q716.419 1549.43 716.419 1554.84 Q716.419 1560.42 712.946 1563.52 Q709.474 1566.6 703.155 1566.6 Q700.979 1566.6 698.71 1566.23 Q696.465 1565.86 694.058 1565.12 L694.058 1560.42 Q696.141 1561.56 698.363 1562.11 Q700.585 1562.67 703.062 1562.67 Q707.067 1562.67 709.405 1560.56 Q711.743 1558.46 711.743 1554.84 Q711.743 1551.23 709.405 1549.13 Q707.067 1547.02 703.062 1547.02 Q701.187 1547.02 699.312 1547.44 Q697.46 1547.85 695.516 1548.73 L695.516 1531.37 Z" fill="#000000" fill-rule="evenodd" fill-opacity="1" /><path clip-path="url(#clip500)" d="M 0 0 M731.488 1549.52 Q728.155 1549.52 726.233 1551.3 Q724.335 1553.08 724.335 1556.21 Q724.335 1559.33 726.233 1561.12 Q728.155 1562.9 731.488 1562.9 Q734.821 1562.9 736.742 1561.12 Q738.664 1559.31 738.664 1556.21 Q738.664 1553.08 736.742 1551.3 Q734.844 1549.52 731.488 1549.52 M726.812 1547.53 Q723.803 1546.79 722.113 1544.73 Q720.446 1542.67 720.446 1539.71 Q720.446 1535.56 723.386 1533.15 Q726.349 1530.75 731.488 1530.75 Q736.65 1530.75 739.59 1533.15 Q742.529 1535.56 742.529 1539.71 Q742.529 1542.67 740.84 1544.73 Q739.173 1546.79 736.187 1547.53 Q739.567 1548.32 741.442 1550.61 Q743.34 1552.9 743.34 1556.21 Q743.34 1561.23 740.261 1563.92 Q737.205 1566.6 731.488 1566.6 Q725.77 1566.6 722.692 1563.92 Q719.636 1561.23 719.636 1556.21 Q719.636 1552.9 721.534 1550.61 Q723.432 1548.32 726.812 1547.53 M725.099 1540.14 Q725.099 1542.83 726.766 1544.33 Q728.455 1545.84 731.488 1545.84 Q734.497 1545.84 736.187 1544.33 Q737.9 1542.83 737.9 1540.14 Q737.9 1537.46 736.187 1535.96 Q734.497 1534.45 731.488 1534.45 Q728.455 1534.45 726.766 1535.96 Q725.099 1537.46 725.099 1540.14 Z" fill="#000000" fill-rule="evenodd" fill-opacity="1" /><path clip-path="url(#clip500)" d="M 0 0 M748.409 1560.05 L753.293 1560.05 L753.293 1565.93 L748.409 1565.93 L748.409 1560.05 Z" fill="#000000" fill-rule="evenodd" fill-opacity="1" /><path clip-path="url(#clip500)" d="M 0 0 M758.409 1531.37 L776.765 1531.37 L776.765 1535.31 L762.691 1535.31 L762.691 1543.78 Q763.71 1543.43 764.728 1543.27 Q765.747 1543.08 766.765 1543.08 Q772.552 1543.08 775.932 1546.26 Q779.312 1549.43 779.312 1554.84 Q779.312 1560.42 775.839 1563.52 Q772.367 1566.6 766.048 1566.6 Q763.872 1566.6 761.603 1566.23 Q759.358 1565.86 756.951 1565.12 L756.951 1560.42 Q759.034 1561.56 761.256 1562.11 Q763.478 1562.67 765.955 1562.67 Q769.96 1562.67 772.298 1560.56 Q774.636 1558.46 774.636 1554.84 Q774.636 1551.23 772.298 1549.13 Q769.96 1547.02 765.955 1547.02 Q764.08 1547.02 762.205 1547.44 Q760.353 1547.85 758.409 1548.73 L758.409 1531.37 Z" fill="#000000" fill-rule="evenodd" fill-opacity="1" /><path clip-path="url(#clip500)" d="M 0 0 M1031.25 1562 L1038.88 1562 L1038.88 1535.63 L1030.57 1537.3 L1030.57 1533.04 L1038.84 1531.37 L1043.51 1531.37 L1043.51 1562 L1051.15 1562 L1051.15 1565.93 L1031.25 1565.93 L1031.25 1562 Z" fill="#000000" fill-rule="evenodd" fill-opacity="1" /><path clip-path="url(#clip500)" d="M 0 0 M1056.27 1531.37 L1074.62 1531.37 L1074.62 1535.31 L1060.55 1535.31 L1060.55 1543.78 Q1061.57 1543.43 1062.59 1543.27 Q1063.61 1543.08 1064.62 1543.08 Q1070.41 1543.08 1073.79 1546.26 Q1077.17 1549.43 1077.17 1554.84 Q1077.17 1560.42 1073.7 1563.52 Q1070.23 1566.6 1063.91 1566.6 Q1061.73 1566.6 1059.46 1566.23 Q1057.22 1565.86 1054.81 1565.12 L1054.81 1560.42 Q1056.89 1561.56 1059.12 1562.11 Q1061.34 1562.67 1063.81 1562.67 Q1067.82 1562.67 1070.16 1560.56 Q1072.5 1558.46 1072.5 1554.84 Q1072.5 1551.23 1070.16 1549.13 Q1067.82 1547.02 1063.81 1547.02 Q1061.94 1547.02 1060.06 1547.44 Q1058.21 1547.85 1056.27 1548.73 L1056.27 1531.37 Z" fill="#000000" fill-rule="evenodd" fill-opacity="1" /><path clip-path="url(#clip500)" d="M 0 0 M1082.38 1565.21 L1082.38 1560.96 Q1084.14 1561.79 1085.94 1562.23 Q1087.75 1562.67 1089.49 1562.67 Q1094.12 1562.67 1096.55 1559.57 Q1099 1556.44 1099.35 1550.1 Q1098 1552.09 1095.94 1553.15 Q1093.88 1554.22 1091.38 1554.22 Q1086.2 1554.22 1083.17 1551.09 Q1080.16 1547.95 1080.16 1542.51 Q1080.16 1537.18 1083.31 1533.96 Q1086.45 1530.75 1091.68 1530.75 Q1097.68 1530.75 1100.83 1535.35 Q1104 1539.94 1104 1548.69 Q1104 1556.86 1100.11 1561.74 Q1096.25 1566.6 1089.69 1566.6 Q1087.93 1566.6 1086.13 1566.26 Q1084.32 1565.91 1082.38 1565.21 M1091.68 1550.56 Q1094.83 1550.56 1096.66 1548.41 Q1098.51 1546.26 1098.51 1542.51 Q1098.51 1538.78 1096.66 1536.63 Q1094.83 1534.45 1091.68 1534.45 Q1088.54 1534.45 1086.68 1536.63 Q1084.86 1538.78 1084.86 1542.51 Q1084.86 1546.26 1086.68 1548.41 Q1088.54 1550.56 1091.68 1550.56 Z" fill="#000000" fill-rule="evenodd" fill-opacity="1" /><path clip-path="url(#clip500)" d="M 0 0 M1109.07 1560.05 L1113.95 1560.05 L1113.95 1565.93 L1109.07 1565.93 L1109.07 1560.05 Z" fill="#000000" fill-rule="evenodd" fill-opacity="1" /><path clip-path="url(#clip500)" d="M 0 0 M1129.02 1534.45 Q1125.41 1534.45 1123.58 1538.02 Q1121.78 1541.56 1121.78 1548.69 Q1121.78 1555.79 1123.58 1559.36 Q1125.41 1562.9 1129.02 1562.9 Q1132.66 1562.9 1134.46 1559.36 Q1136.29 1555.79 1136.29 1548.69 Q1136.29 1541.56 1134.46 1538.02 Q1132.66 1534.45 1129.02 1534.45 M1129.02 1530.75 Q1134.83 1530.75 1137.89 1535.35 Q1140.97 1539.94 1140.97 1548.69 Q1140.97 1557.41 1137.89 1562.02 Q1134.83 1566.6 1129.02 1566.6 Q1123.21 1566.6 1120.13 1562.02 Q1117.08 1557.41 1117.08 1548.69 Q1117.08 1539.94 1120.13 1535.35 Q1123.21 1530.75 1129.02 1530.75 Z" fill="#000000" fill-rule="evenodd" fill-opacity="1" /><path clip-path="url(#clip500)" d="M 0 0 M1392.95 1562 L1400.59 1562 L1400.59 1535.63 L1392.28 1537.3 L1392.28 1533.04 L1400.54 1531.37 L1405.22 1531.37 L1405.22 1562 L1412.85 1562 L1412.85 1565.93 L1392.95 1565.93 L1392.95 1562 Z" fill="#000000" fill-rule="evenodd" fill-opacity="1" /><path clip-path="url(#clip500)" d="M 0 0 M1417.97 1531.37 L1436.33 1531.37 L1436.33 1535.31 L1422.25 1535.31 L1422.25 1543.78 Q1423.27 1543.43 1424.29 1543.27 Q1425.31 1543.08 1426.33 1543.08 Q1432.11 1543.08 1435.49 1546.26 Q1438.87 1549.43 1438.87 1554.84 Q1438.87 1560.42 1435.4 1563.52 Q1431.93 1566.6 1425.61 1566.6 Q1423.43 1566.6 1421.16 1566.23 Q1418.92 1565.86 1416.51 1565.12 L1416.51 1560.42 Q1418.6 1561.56 1420.82 1562.11 Q1423.04 1562.67 1425.52 1562.67 Q1429.52 1562.67 1431.86 1560.56 Q1434.2 1558.46 1434.2 1554.84 Q1434.2 1551.23 1431.86 1549.13 Q1429.52 1547.02 1425.52 1547.02 Q1423.64 1547.02 1421.77 1547.44 Q1419.91 1547.85 1417.97 1548.73 L1417.97 1531.37 Z" fill="#000000" fill-rule="evenodd" fill-opacity="1" /><path clip-path="url(#clip500)" d="M 0 0 M1444.08 1565.21 L1444.08 1560.96 Q1445.84 1561.79 1447.65 1562.23 Q1449.45 1562.67 1451.19 1562.67 Q1455.82 1562.67 1458.25 1559.57 Q1460.7 1556.44 1461.05 1550.1 Q1459.71 1552.09 1457.65 1553.15 Q1455.59 1554.22 1453.09 1554.22 Q1447.9 1554.22 1444.87 1551.09 Q1441.86 1547.95 1441.86 1542.51 Q1441.86 1537.18 1445.01 1533.96 Q1448.16 1530.75 1453.39 1530.75 Q1459.38 1530.75 1462.53 1535.35 Q1465.7 1539.94 1465.7 1548.69 Q1465.7 1556.86 1461.81 1561.74 Q1457.95 1566.6 1451.4 1566.6 Q1449.64 1566.6 1447.83 1566.26 Q1446.03 1565.91 1444.08 1565.21 M1453.39 1550.56 Q1456.53 1550.56 1458.36 1548.41 Q1460.22 1546.26 1460.22 1542.51 Q1460.22 1538.78 1458.36 1536.63 Q1456.53 1534.45 1453.39 1534.45 Q1450.24 1534.45 1448.39 1536.63 Q1446.56 1538.78 1446.56 1542.51 Q1446.56 1546.26 1448.39 1548.41 Q1450.24 1550.56 1453.39 1550.56 Z" fill="#000000" fill-rule="evenodd" fill-opacity="1" /><path clip-path="url(#clip500)" d="M 0 0 M1470.77 1560.05 L1475.66 1560.05 L1475.66 1565.93 L1470.77 1565.93 L1470.77 1560.05 Z" fill="#000000" fill-rule="evenodd" fill-opacity="1" /><path clip-path="url(#clip500)" d="M 0 0 M1480.77 1531.37 L1499.13 1531.37 L1499.13 1535.31 L1485.05 1535.31 L1485.05 1543.78 Q1486.07 1543.43 1487.09 1543.27 Q1488.11 1543.08 1489.13 1543.08 Q1494.91 1543.08 1498.29 1546.26 Q1501.67 1549.43 1501.67 1554.84 Q1501.67 1560.42 1498.2 1563.52 Q1494.73 1566.6 1488.41 1566.6 Q1486.23 1566.6 1483.97 1566.23 Q1481.72 1565.86 1479.31 1565.12 L1479.31 1560.42 Q1481.4 1561.56 1483.62 1562.11 Q1485.84 1562.67 1488.32 1562.67 Q1492.32 1562.67 1494.66 1560.56 Q1497 1558.46 1497 1554.84 Q1497 1551.23 1494.66 1549.13 Q1492.32 1547.02 1488.32 1547.02 Q1486.44 1547.02 1484.57 1547.44 Q1482.72 1547.85 1480.77 1548.73 L1480.77 1531.37 Z" fill="#000000" fill-rule="evenodd" fill-opacity="1" /><path clip-path="url(#clip500)" d="M 0 0 M1752.98 1562 L1760.62 1562 L1760.62 1535.63 L1752.31 1537.3 L1752.31 1533.04 L1760.57 1531.37 L1765.25 1531.37 L1765.25 1562 L1772.89 1562 L1772.89 1565.93 L1752.98 1565.93 L1752.98 1562 Z" fill="#000000" fill-rule="evenodd" fill-opacity="1" /><path clip-path="url(#clip500)" d="M 0 0 M1788.54 1546.79 Q1785.39 1546.79 1783.54 1548.94 Q1781.71 1551.09 1781.71 1554.84 Q1781.71 1558.57 1783.54 1560.75 Q1785.39 1562.9 1788.54 1562.9 Q1791.69 1562.9 1793.51 1560.75 Q1795.37 1558.57 1795.37 1554.84 Q1795.37 1551.09 1793.51 1548.94 Q1791.69 1546.79 1788.54 1546.79 M1797.82 1532.14 L1797.82 1536.39 Q1796.06 1535.56 1794.26 1535.12 Q1792.47 1534.68 1790.71 1534.68 Q1786.08 1534.68 1783.63 1537.81 Q1781.2 1540.93 1780.85 1547.25 Q1782.22 1545.24 1784.28 1544.17 Q1786.34 1543.08 1788.82 1543.08 Q1794.02 1543.08 1797.03 1546.26 Q1800.07 1549.4 1800.07 1554.84 Q1800.07 1560.17 1796.92 1563.39 Q1793.77 1566.6 1788.54 1566.6 Q1782.54 1566.6 1779.37 1562.02 Q1776.2 1557.41 1776.2 1548.69 Q1776.2 1540.49 1780.09 1535.63 Q1783.98 1530.75 1790.53 1530.75 Q1792.29 1530.75 1794.07 1531.09 Q1795.88 1531.44 1797.82 1532.14 Z" fill="#000000" fill-rule="evenodd" fill-opacity="1" /><path clip-path="url(#clip500)" d="M 0 0 M1815.13 1534.45 Q1811.52 1534.45 1809.69 1538.02 Q1807.89 1541.56 1807.89 1548.69 Q1807.89 1555.79 1809.69 1559.36 Q1811.52 1562.9 1815.13 1562.9 Q1818.77 1562.9 1820.57 1559.36 Q1822.4 1555.79 1822.4 1548.69 Q1822.4 1541.56 1820.57 1538.02 Q1818.77 1534.45 1815.13 1534.45 M1815.13 1530.75 Q1820.94 1530.75 1824 1535.35 Q1827.08 1539.94 1827.08 1548.69 Q1827.08 1557.41 1824 1562.02 Q1820.94 1566.6 1815.13 1566.6 Q1809.32 1566.6 1806.25 1562.02 Q1803.19 1557.41 1803.19 1548.69 Q1803.19 1539.94 1806.25 1535.35 Q1809.32 1530.75 1815.13 1530.75 Z" fill="#000000" fill-rule="evenodd" fill-opacity="1" /><path clip-path="url(#clip500)" d="M 0 0 M1832.15 1560.05 L1837.03 1560.05 L1837.03 1565.93 L1832.15 1565.93 L1832.15 1560.05 Z" fill="#000000" fill-rule="evenodd" fill-opacity="1" /><path clip-path="url(#clip500)" d="M 0 0 M1852.1 1534.45 Q1848.49 1534.45 1846.66 1538.02 Q1844.86 1541.56 1844.86 1548.69 Q1844.86 1555.79 1846.66 1559.36 Q1848.49 1562.9 1852.1 1562.9 Q1855.74 1562.9 1857.54 1559.36 Q1859.37 1555.79 1859.37 1548.69 Q1859.37 1541.56 1857.54 1538.02 Q1855.74 1534.45 1852.1 1534.45 M1852.1 1530.75 Q1857.91 1530.75 1860.97 1535.35 Q1864.05 1539.94 1864.05 1548.69 Q1864.05 1557.41 1860.97 1562.02 Q1857.91 1566.6 1852.1 1566.6 Q1846.29 1566.6 1843.21 1562.02 Q1840.16 1557.41 1840.16 1548.69 Q1840.16 1539.94 1843.21 1535.35 Q1846.29 1530.75 1852.1 1530.75 Z" fill="#000000" fill-rule="evenodd" fill-opacity="1" /><path clip-path="url(#clip500)" d="M 0 0 M2114.68 1562 L2122.32 1562 L2122.32 1535.63 L2114.01 1537.3 L2114.01 1533.04 L2122.28 1531.37 L2126.95 1531.37 L2126.95 1562 L2134.59 1562 L2134.59 1565.93 L2114.68 1565.93 L2114.68 1562 Z" fill="#000000" fill-rule="evenodd" fill-opacity="1" /><path clip-path="url(#clip500)" d="M 0 0 M2150.24 1546.79 Q2147.09 1546.79 2145.24 1548.94 Q2143.41 1551.09 2143.41 1554.84 Q2143.41 1558.57 2145.24 1560.75 Q2147.09 1562.9 2150.24 1562.9 Q2153.39 1562.9 2155.22 1560.75 Q2157.07 1558.57 2157.07 1554.84 Q2157.07 1551.09 2155.22 1548.94 Q2153.39 1546.79 2150.24 1546.79 M2159.52 1532.14 L2159.52 1536.39 Q2157.76 1535.56 2155.96 1535.12 Q2154.17 1534.68 2152.42 1534.68 Q2147.79 1534.68 2145.33 1537.81 Q2142.9 1540.93 2142.55 1547.25 Q2143.92 1545.24 2145.98 1544.17 Q2148.04 1543.08 2150.52 1543.08 Q2155.73 1543.08 2158.73 1546.26 Q2161.77 1549.4 2161.77 1554.84 Q2161.77 1560.17 2158.62 1563.39 Q2155.47 1566.6 2150.24 1566.6 Q2144.24 1566.6 2141.07 1562.02 Q2137.9 1557.41 2137.9 1548.69 Q2137.9 1540.49 2141.79 1535.63 Q2145.68 1530.75 2152.23 1530.75 Q2153.99 1530.75 2155.77 1531.09 Q2157.58 1531.44 2159.52 1532.14 Z" fill="#000000" fill-rule="evenodd" fill-opacity="1" /><path clip-path="url(#clip500)" d="M 0 0 M2176.84 1534.45 Q2173.23 1534.45 2171.4 1538.02 Q2169.59 1541.56 2169.59 1548.69 Q2169.59 1555.79 2171.4 1559.36 Q2173.23 1562.9 2176.84 1562.9 Q2180.47 1562.9 2182.28 1559.36 Q2184.1 1555.79 2184.1 1548.69 Q2184.1 1541.56 2182.28 1538.02 Q2180.47 1534.45 2176.84 1534.45 M2176.84 1530.75 Q2182.65 1530.75 2185.7 1535.35 Q2188.78 1539.94 2188.78 1548.69 Q2188.78 1557.41 2185.7 1562.02 Q2182.65 1566.6 2176.84 1566.6 Q2171.03 1566.6 2167.95 1562.02 Q2164.89 1557.41 2164.89 1548.69 Q2164.89 1539.94 2167.95 1535.35 Q2171.03 1530.75 2176.84 1530.75 Z" fill="#000000" fill-rule="evenodd" fill-opacity="1" /><path clip-path="url(#clip500)" d="M 0 0 M2193.85 1560.05 L2198.73 1560.05 L2198.73 1565.93 L2193.85 1565.93 L2193.85 1560.05 Z" fill="#000000" fill-rule="evenodd" fill-opacity="1" /><path clip-path="url(#clip500)" d="M 0 0 M2203.85 1531.37 L2222.21 1531.37 L2222.21 1535.31 L2208.13 1535.31 L2208.13 1543.78 Q2209.15 1543.43 2210.17 1543.27 Q2211.19 1543.08 2212.21 1543.08 Q2217.99 1543.08 2221.37 1546.26 Q2224.75 1549.43 2224.75 1554.84 Q2224.75 1560.42 2221.28 1563.52 Q2217.81 1566.6 2211.49 1566.6 Q2209.31 1566.6 2207.04 1566.23 Q2204.8 1565.86 2202.39 1565.12 L2202.39 1560.42 Q2204.48 1561.56 2206.7 1562.11 Q2208.92 1562.67 2211.4 1562.67 Q2215.4 1562.67 2217.74 1560.56 Q2220.08 1558.46 2220.08 1554.84 Q2220.08 1551.23 2217.74 1549.13 Q2215.4 1547.02 2211.4 1547.02 Q2209.52 1547.02 2207.65 1547.44 Q2205.79 1547.85 2203.85 1548.73 L2203.85 1531.37 Z" fill="#000000" fill-rule="evenodd" fill-opacity="1" /><path clip-path="url(#clip500)" d="M 0 0 M1004.76 1663.68 L1004.76 1614.48 L1010.61 1614.48 L1010.61 1636.63 Q1010.61 1641.24 1012.81 1643.6 Q1015.01 1645.95 1019.3 1645.95 Q1024.01 1645.95 1026.37 1643.28 Q1028.76 1640.61 1028.76 1635.26 L1028.76 1614.48 L1034.61 1614.48 L1034.61 1641.91 Q1034.61 1643.82 1035.15 1644.74 Q1035.73 1645.64 1036.9 1645.64 Q1037.19 1645.64 1037.7 1645.48 Q1038.21 1645.29 1039.1 1644.9 L1039.1 1649.61 Q1037.8 1650.35 1036.62 1650.7 Q1035.47 1651.05 1034.36 1651.05 Q1032.16 1651.05 1030.86 1649.81 Q1029.55 1648.56 1029.07 1646.02 Q1027.48 1648.53 1025.16 1649.81 Q1022.87 1651.05 1019.75 1651.05 Q1016.5 1651.05 1014.21 1649.81 Q1011.95 1648.56 1010.61 1646.08 L1010.61 1663.68 L1004.76 1663.68 Z" fill="#000000" fill-rule="evenodd" fill-opacity="1" /><path clip-path="url(#clip500)" d="M 0 0 M1073.51 1600.31 L1073.51 1665.5 L1068.1 1665.5 L1068.1 1600.31 L1073.51 1600.31 Z" fill="#000000" fill-rule="evenodd" fill-opacity="1" /><path clip-path="url(#clip500)" d="M 0 0 M1096.96 1614.48 L1102.82 1614.48 L1110.14 1642.29 L1117.43 1614.48 L1124.34 1614.48 L1131.66 1642.29 L1138.95 1614.48 L1144.8 1614.48 L1135.48 1650.12 L1128.57 1650.12 L1120.9 1620.91 L1113.2 1650.12 L1106.29 1650.12 L1096.96 1614.48 Z" fill="#000000" fill-rule="evenodd" fill-opacity="1" /><path clip-path="url(#clip500)" d="M 0 0 M1181.44 1630.84 L1181.44 1633.7 L1154.51 1633.7 Q1154.89 1639.75 1158.14 1642.93 Q1161.42 1646.08 1167.24 1646.08 Q1170.62 1646.08 1173.77 1645.25 Q1176.95 1644.43 1180.07 1642.77 L1180.07 1648.31 Q1176.92 1649.65 1173.61 1650.35 Q1170.3 1651.05 1166.89 1651.05 Q1158.36 1651.05 1153.36 1646.08 Q1148.4 1641.12 1148.4 1632.65 Q1148.4 1623.9 1153.11 1618.77 Q1157.85 1613.62 1165.87 1613.62 Q1173.07 1613.62 1177.24 1618.26 Q1181.44 1622.88 1181.44 1630.84 M1175.58 1629.12 Q1175.52 1624.31 1172.88 1621.45 Q1170.27 1618.58 1165.94 1618.58 Q1161.04 1618.58 1158.08 1621.35 Q1155.15 1624.12 1154.7 1629.15 L1175.58 1629.12 Z" fill="#000000" fill-rule="evenodd" fill-opacity="1" /><path clip-path="url(#clip500)" d="M 0 0 M1187.58 1614.48 L1193.44 1614.48 L1193.44 1650.12 L1187.58 1650.12 L1187.58 1614.48 M1187.58 1600.6 L1193.44 1600.6 L1193.44 1608.01 L1187.58 1608.01 L1187.58 1600.6 Z" fill="#000000" fill-rule="evenodd" fill-opacity="1" /><path clip-path="url(#clip500)" d="M 0 0 M1223.04 1631.89 Q1223.04 1625.52 1220.4 1622.02 Q1217.79 1618.52 1213.04 1618.52 Q1208.33 1618.52 1205.69 1622.02 Q1203.08 1625.52 1203.08 1631.89 Q1203.08 1638.22 1205.69 1641.72 Q1208.33 1645.22 1213.04 1645.22 Q1217.79 1645.22 1220.4 1641.72 Q1223.04 1638.22 1223.04 1631.89 M1228.89 1645.7 Q1228.89 1654.8 1224.85 1659.23 Q1220.81 1663.68 1212.47 1663.68 Q1209.38 1663.68 1206.65 1663.21 Q1203.91 1662.76 1201.33 1661.8 L1201.33 1656.11 Q1203.91 1657.51 1206.42 1658.18 Q1208.94 1658.84 1211.55 1658.84 Q1217.31 1658.84 1220.17 1655.82 Q1223.04 1652.83 1223.04 1646.75 L1223.04 1643.85 Q1221.22 1647 1218.39 1648.56 Q1215.56 1650.12 1211.61 1650.12 Q1205.05 1650.12 1201.04 1645.13 Q1197.03 1640.13 1197.03 1631.89 Q1197.03 1623.61 1201.04 1618.61 Q1205.05 1613.62 1211.61 1613.62 Q1215.56 1613.62 1218.39 1615.18 Q1221.22 1616.74 1223.04 1619.89 L1223.04 1614.48 L1228.89 1614.48 L1228.89 1645.7 Z" fill="#000000" fill-rule="evenodd" fill-opacity="1" /><path clip-path="url(#clip500)" d="M 0 0 M1264.67 1628.61 L1264.67 1650.12 L1258.81 1650.12 L1258.81 1628.8 Q1258.81 1623.74 1256.84 1621.22 Q1254.87 1618.71 1250.92 1618.71 Q1246.18 1618.71 1243.44 1621.73 Q1240.7 1624.76 1240.7 1629.98 L1240.7 1650.12 L1234.81 1650.12 L1234.81 1600.6 L1240.7 1600.6 L1240.7 1620.01 Q1242.8 1616.8 1245.64 1615.21 Q1248.5 1613.62 1252.22 1613.62 Q1258.37 1613.62 1261.52 1617.44 Q1264.67 1621.22 1264.67 1628.61 Z" fill="#000000" fill-rule="evenodd" fill-opacity="1" /><path clip-path="url(#clip500)" d="M 0 0 M1276.6 1604.35 L1276.6 1614.48 L1288.67 1614.48 L1288.67 1619.03 L1276.6 1619.03 L1276.6 1638.38 Q1276.6 1642.74 1277.78 1643.98 Q1278.99 1645.22 1282.65 1645.22 L1288.67 1645.22 L1288.67 1650.12 L1282.65 1650.12 Q1275.87 1650.12 1273.29 1647.61 Q1270.72 1645.06 1270.72 1638.38 L1270.72 1619.03 L1266.42 1619.03 L1266.42 1614.48 L1270.72 1614.48 L1270.72 1604.35 L1276.6 1604.35 Z" fill="#000000" fill-rule="evenodd" fill-opacity="1" /><path clip-path="url(#clip500)" d="M 0 0 M1316.3 1620.52 L1357.1 1620.52 L1357.1 1625.87 L1316.3 1625.87 L1316.3 1620.52 M1316.3 1633.51 L1357.1 1633.51 L1357.1 1638.92 L1316.3 1638.92 L1316.3 1633.51 Z" fill="#000000" fill-rule="evenodd" fill-opacity="1" /><path clip-path="url(#clip500)" d="M 0 0 M1384.85 1602.6 L1410.09 1602.6 L1410.09 1608.01 L1390.74 1608.01 L1390.74 1619.66 Q1392.14 1619.19 1393.54 1618.96 Q1394.94 1618.71 1396.34 1618.71 Q1404.3 1618.71 1408.95 1623.07 Q1413.59 1627.43 1413.59 1634.88 Q1413.59 1642.55 1408.82 1646.81 Q1404.05 1651.05 1395.36 1651.05 Q1392.37 1651.05 1389.25 1650.54 Q1386.16 1650.03 1382.85 1649.01 L1382.85 1642.55 Q1385.71 1644.11 1388.77 1644.87 Q1391.82 1645.64 1395.23 1645.64 Q1400.74 1645.64 1403.95 1642.74 Q1407.17 1639.84 1407.17 1634.88 Q1407.17 1629.91 1403.95 1627.02 Q1400.74 1624.12 1395.23 1624.12 Q1392.65 1624.12 1390.07 1624.69 Q1387.53 1625.27 1384.85 1626.48 L1384.85 1602.6 Z" fill="#000000" fill-rule="evenodd" fill-opacity="1" /><path clip-path="url(#clip500)" d="M 0 0 M1434.32 1606.84 Q1429.35 1606.84 1426.84 1611.74 Q1424.35 1616.61 1424.35 1626.41 Q1424.35 1636.18 1426.84 1641.08 Q1429.35 1645.95 1434.32 1645.95 Q1439.31 1645.95 1441.79 1641.08 Q1444.31 1636.18 1444.31 1626.41 Q1444.31 1616.61 1441.79 1611.74 Q1439.31 1606.84 1434.32 1606.84 M1434.32 1601.74 Q1442.3 1601.74 1446.51 1608.08 Q1450.74 1614.38 1450.74 1626.41 Q1450.74 1638.41 1446.51 1644.74 Q1442.3 1651.05 1434.32 1651.05 Q1426.33 1651.05 1422.09 1644.74 Q1417.89 1638.41 1417.89 1626.41 Q1417.89 1614.38 1422.09 1608.08 Q1426.33 1601.74 1434.32 1601.74 Z" fill="#000000" fill-rule="evenodd" fill-opacity="1" /><polyline clip-path="url(#clip502)" style="stroke:#000000; stroke-width:2; stroke-opacity:0.1; fill:none" points="
  102.74,1464.08 2352.76,1464.08 
  "/>
<polyline clip-path="url(#clip502)" style="stroke:#000000; stroke-width:2; stroke-opacity:0.1; fill:none" points="
  102.74,1165.86 2352.76,1165.86 
  "/>
<polyline clip-path="url(#clip502)" style="stroke:#000000; stroke-width:2; stroke-opacity:0.1; fill:none" points="
  102.74,867.641 2352.76,867.641 
  "/>
<polyline clip-path="url(#clip502)" style="stroke:#000000; stroke-width:2; stroke-opacity:0.1; fill:none" points="
  102.74,569.422 2352.76,569.422 
  "/>
<polyline clip-path="url(#clip502)" style="stroke:#000000; stroke-width:2; stroke-opacity:0.1; fill:none" points="
  102.74,271.202 2352.76,271.202 
  "/>
<polyline clip-path="url(#clip500)" style="stroke:#000000; stroke-width:4; stroke-opacity:1; fill:none" points="
  102.74,1505.26 102.74,47.2441 
  "/>
<polyline clip-path="url(#clip500)" style="stroke:#000000; stroke-width:4; stroke-opacity:1; fill:none" points="
  102.74,1464.08 129.74,1464.08 
  "/>
<polyline clip-path="url(#clip500)" style="stroke:#000000; stroke-width:4; stroke-opacity:1; fill:none" points="
  102.74,1165.86 129.74,1165.86 
  "/>
<polyline clip-path="url(#clip500)" style="stroke:#000000; stroke-width:4; stroke-opacity:1; fill:none" points="
  102.74,867.641 129.74,867.641 
  "/>
<polyline clip-path="url(#clip500)" style="stroke:#000000; stroke-width:4; stroke-opacity:1; fill:none" points="
  102.74,569.422 129.74,569.422 
  "/>
<polyline clip-path="url(#clip500)" style="stroke:#000000; stroke-width:4; stroke-opacity:1; fill:none" points="
  102.74,271.202 129.74,271.202 
  "/>
<path clip-path="url(#clip500)" d="M 0 0 M-9.18536 1449.88 Q-12.7965 1449.88 -14.6251 1453.44 Q-16.4307 1456.99 -16.4307 1464.12 Q-16.4307 1471.22 -14.6251 1474.79 Q-12.7965 1478.33 -9.18536 1478.33 Q-5.55112 1478.33 -3.74558 1474.79 Q-1.91688 1471.22 -1.91688 1464.12 Q-1.91688 1456.99 -3.74558 1453.44 Q-5.55112 1449.88 -9.18536 1449.88 M-9.18536 1446.18 Q-3.37521 1446.18 -0.319668 1450.78 Q2.75902 1455.37 2.75902 1464.12 Q2.75902 1472.84 -0.319668 1477.45 Q-3.37521 1482.03 -9.18536 1482.03 Q-14.9955 1482.03 -18.0742 1477.45 Q-21.1297 1472.84 -21.1297 1464.12 Q-21.1297 1455.37 -18.0742 1450.78 Q-14.9955 1446.18 -9.18536 1446.18 Z" fill="#000000" fill-rule="evenodd" fill-opacity="1" /><path clip-path="url(#clip500)" d="M 0 0 M7.82844 1475.48 L12.7127 1475.48 L12.7127 1481.36 L7.82844 1481.36 L7.82844 1475.48 Z" fill="#000000" fill-rule="evenodd" fill-opacity="1" /><path clip-path="url(#clip500)" d="M 0 0 M27.782 1449.88 Q24.1709 1449.88 22.3422 1453.44 Q20.5367 1456.99 20.5367 1464.12 Q20.5367 1471.22 22.3422 1474.79 Q24.1709 1478.33 27.782 1478.33 Q31.4163 1478.33 33.2218 1474.79 Q35.0505 1471.22 35.0505 1464.12 Q35.0505 1456.99 33.2218 1453.44 Q31.4163 1449.88 27.782 1449.88 M27.782 1446.18 Q33.5922 1446.18 36.6477 1450.78 Q39.7264 1455.37 39.7264 1464.12 Q39.7264 1472.84 36.6477 1477.45 Q33.5922 1482.03 27.782 1482.03 Q21.9719 1482.03 18.8932 1477.45 Q15.8377 1472.84 15.8377 1464.12 Q15.8377 1455.37 18.8932 1450.78 Q21.9719 1446.18 27.782 1446.18 Z" fill="#000000" fill-rule="evenodd" fill-opacity="1" /><path clip-path="url(#clip500)" d="M 0 0 M54.7958 1449.88 Q51.1847 1449.88 49.356 1453.44 Q47.5504 1456.99 47.5504 1464.12 Q47.5504 1471.22 49.356 1474.79 Q51.1847 1478.33 54.7958 1478.33 Q58.43 1478.33 60.2356 1474.79 Q62.0643 1471.22 62.0643 1464.12 Q62.0643 1456.99 60.2356 1453.44 Q58.43 1449.88 54.7958 1449.88 M54.7958 1446.18 Q60.6059 1446.18 63.6615 1450.78 Q66.7402 1455.37 66.7402 1464.12 Q66.7402 1472.84 63.6615 1477.45 Q60.6059 1482.03 54.7958 1482.03 Q48.9856 1482.03 45.9069 1477.45 Q42.8514 1472.84 42.8514 1464.12 Q42.8514 1455.37 45.9069 1450.78 Q48.9856 1446.18 54.7958 1446.18 Z" fill="#000000" fill-rule="evenodd" fill-opacity="1" /><path clip-path="url(#clip500)" d="M 0 0 M-6.59278 1151.66 Q-10.2039 1151.66 -12.0326 1155.22 Q-13.8381 1158.77 -13.8381 1165.9 Q-13.8381 1173 -12.0326 1176.57 Q-10.2039 1180.11 -6.59278 1180.11 Q-2.95854 1180.11 -1.153 1176.57 Q0.675697 1173 0.675697 1165.9 Q0.675697 1158.77 -1.153 1155.22 Q-2.95854 1151.66 -6.59278 1151.66 M-6.59278 1147.96 Q-0.782629 1147.96 2.27291 1152.56 Q5.3516 1157.15 5.3516 1165.9 Q5.3516 1174.62 2.27291 1179.23 Q-0.782629 1183.81 -6.59278 1183.81 Q-12.4029 1183.81 -15.4816 1179.23 Q-18.5372 1174.62 -18.5372 1165.9 Q-18.5372 1157.15 -15.4816 1152.56 Q-12.4029 1147.96 -6.59278 1147.96 Z" fill="#000000" fill-rule="evenodd" fill-opacity="1" /><path clip-path="url(#clip500)" d="M 0 0 M10.421 1177.26 L15.3052 1177.26 L15.3052 1183.14 L10.421 1183.14 L10.421 1177.26 Z" fill="#000000" fill-rule="evenodd" fill-opacity="1" /><path clip-path="url(#clip500)" d="M 0 0 M24.4024 1179.21 L40.7218 1179.21 L40.7218 1183.14 L18.7775 1183.14 L18.7775 1179.21 Q21.4395 1176.45 26.0228 1171.82 Q30.6292 1167.17 31.8098 1165.83 Q34.0551 1163.3 34.9348 1161.57 Q35.8375 1159.81 35.8375 1158.12 Q35.8375 1155.36 33.8931 1153.63 Q31.9718 1151.89 28.87 1151.89 Q26.6709 1151.89 24.2172 1152.66 Q21.7867 1153.42 19.0089 1154.97 L19.0089 1150.25 Q21.833 1149.11 24.2867 1148.53 Q26.7404 1147.96 28.7774 1147.96 Q34.1477 1147.96 37.3422 1150.64 Q40.5366 1153.33 40.5366 1157.82 Q40.5366 1159.95 39.7264 1161.87 Q38.9394 1163.77 36.8329 1166.36 Q36.2542 1167.03 33.1524 1170.25 Q30.0505 1173.44 24.4024 1179.21 Z" fill="#000000" fill-rule="evenodd" fill-opacity="1" /><path clip-path="url(#clip500)" d="M 0 0 M45.8375 1148.58 L64.1939 1148.58 L64.1939 1152.52 L50.1199 1152.52 L50.1199 1160.99 Q51.1384 1160.64 52.1569 1160.48 Q53.1754 1160.29 54.1939 1160.29 Q59.9809 1160.29 63.3605 1163.47 Q66.7402 1166.64 66.7402 1172.05 Q66.7402 1177.63 63.268 1180.73 Q59.7958 1183.81 53.4763 1183.81 Q51.3004 1183.81 49.0319 1183.44 Q46.7866 1183.07 44.3792 1182.33 L44.3792 1177.63 Q46.4625 1178.77 48.6847 1179.32 Q50.9069 1179.88 53.3837 1179.88 Q57.3884 1179.88 59.7263 1177.77 Q62.0643 1175.66 62.0643 1172.05 Q62.0643 1168.44 59.7263 1166.34 Q57.3884 1164.23 53.3837 1164.23 Q51.5088 1164.23 49.6338 1164.65 Q47.7819 1165.06 45.8375 1165.94 L45.8375 1148.58 Z" fill="#000000" fill-rule="evenodd" fill-opacity="1" /><path clip-path="url(#clip500)" d="M 0 0 M-8.19 853.44 Q-11.8011 853.44 -13.6298 857.005 Q-15.4353 860.546 -15.4353 867.676 Q-15.4353 874.782 -13.6298 878.347 Q-11.8011 881.889 -8.19 881.889 Q-4.55576 881.889 -2.75021 878.347 Q-0.921517 874.782 -0.921517 867.676 Q-0.921517 860.546 -2.75021 857.005 Q-4.55576 853.44 -8.19 853.44 M-8.19 849.736 Q-2.37984 849.736 0.675697 854.343 Q3.75438 858.926 3.75438 867.676 Q3.75438 876.403 0.675697 881.009 Q-2.37984 885.593 -8.19 885.593 Q-14.0002 885.593 -17.0788 881.009 Q-20.1344 876.403 -20.1344 867.676 Q-20.1344 858.926 -17.0788 854.343 Q-14.0002 849.736 -8.19 849.736 Z" fill="#000000" fill-rule="evenodd" fill-opacity="1" /><path clip-path="url(#clip500)" d="M 0 0 M8.8238 879.042 L13.708 879.042 L13.708 884.921 L8.8238 884.921 L8.8238 879.042 Z" fill="#000000" fill-rule="evenodd" fill-opacity="1" /><path clip-path="url(#clip500)" d="M 0 0 M18.8237 850.361 L37.1801 850.361 L37.1801 854.296 L23.1061 854.296 L23.1061 862.769 Q24.1246 862.421 25.1432 862.259 Q26.1617 862.074 27.1802 862.074 Q32.9672 862.074 36.3468 865.245 Q39.7264 868.417 39.7264 873.833 Q39.7264 879.412 36.2542 882.514 Q32.782 885.593 26.4626 885.593 Q24.2867 885.593 22.0182 885.222 Q19.7728 884.852 17.3654 884.111 L17.3654 879.412 Q19.4487 880.546 21.671 881.102 Q23.8932 881.657 26.37 881.657 Q30.3746 881.657 32.7126 879.551 Q35.0505 877.445 35.0505 873.833 Q35.0505 870.222 32.7126 868.116 Q30.3746 866.009 26.37 866.009 Q24.495 866.009 22.62 866.426 Q20.7682 866.843 18.8237 867.722 L18.8237 850.361 Z" fill="#000000" fill-rule="evenodd" fill-opacity="1" /><path clip-path="url(#clip500)" d="M 0 0 M54.7958 853.44 Q51.1847 853.44 49.356 857.005 Q47.5504 860.546 47.5504 867.676 Q47.5504 874.782 49.356 878.347 Q51.1847 881.889 54.7958 881.889 Q58.43 881.889 60.2356 878.347 Q62.0643 874.782 62.0643 867.676 Q62.0643 860.546 60.2356 857.005 Q58.43 853.44 54.7958 853.44 M54.7958 849.736 Q60.6059 849.736 63.6615 854.343 Q66.7402 858.926 66.7402 867.676 Q66.7402 876.403 63.6615 881.009 Q60.6059 885.593 54.7958 885.593 Q48.9856 885.593 45.9069 881.009 Q42.8514 876.403 42.8514 867.676 Q42.8514 858.926 45.9069 854.343 Q48.9856 849.736 54.7958 849.736 Z" fill="#000000" fill-rule="evenodd" fill-opacity="1" /><path clip-path="url(#clip500)" d="M 0 0 M-7.28722 555.22 Q-10.8983 555.22 -12.727 558.785 Q-14.5326 562.327 -14.5326 569.456 Q-14.5326 576.563 -12.727 580.127 Q-10.8983 583.669 -7.28722 583.669 Q-3.65298 583.669 -1.84744 580.127 Q-0.0187441 576.563 -0.0187441 569.456 Q-0.0187441 562.327 -1.84744 558.785 Q-3.65298 555.22 -7.28722 555.22 M-7.28722 551.517 Q-1.47707 551.517 1.57847 556.123 Q4.65716 560.706 4.65716 569.456 Q4.65716 578.183 1.57847 582.79 Q-1.47707 587.373 -7.28722 587.373 Q-13.0974 587.373 -16.1761 582.79 Q-19.2316 578.183 -19.2316 569.456 Q-19.2316 560.706 -16.1761 556.123 Q-13.0974 551.517 -7.28722 551.517 Z" fill="#000000" fill-rule="evenodd" fill-opacity="1" /><path clip-path="url(#clip500)" d="M 0 0 M9.72657 580.822 L14.6108 580.822 L14.6108 586.702 L9.72657 586.702 L9.72657 580.822 Z" fill="#000000" fill-rule="evenodd" fill-opacity="1" /><path clip-path="url(#clip500)" d="M 0 0 M18.4997 552.142 L40.7218 552.142 L40.7218 554.132 L28.1755 586.702 L23.2913 586.702 L35.0968 556.077 L18.4997 556.077 L18.4997 552.142 Z" fill="#000000" fill-rule="evenodd" fill-opacity="1" /><path clip-path="url(#clip500)" d="M 0 0 M45.8375 552.142 L64.1939 552.142 L64.1939 556.077 L50.1199 556.077 L50.1199 564.549 Q51.1384 564.202 52.1569 564.04 Q53.1754 563.854 54.1939 563.854 Q59.9809 563.854 63.3605 567.026 Q66.7402 570.197 66.7402 575.614 Q66.7402 581.192 63.268 584.294 Q59.7958 587.373 53.4763 587.373 Q51.3004 587.373 49.0319 587.002 Q46.7866 586.632 44.3792 585.891 L44.3792 581.192 Q46.4625 582.327 48.6847 582.882 Q50.9069 583.438 53.3837 583.438 Q57.3884 583.438 59.7263 581.331 Q62.0643 579.225 62.0643 575.614 Q62.0643 572.003 59.7263 569.896 Q57.3884 567.79 53.3837 567.79 Q51.5088 567.79 49.6338 568.206 Q47.7819 568.623 45.8375 569.503 L45.8375 552.142 Z" fill="#000000" fill-rule="evenodd" fill-opacity="1" /><path clip-path="url(#clip500)" d="M 0 0 M-17.1483 284.547 L-9.50943 284.547 L-9.50943 258.181 L-17.8196 259.848 L-17.8196 255.588 L-9.55573 253.922 L-4.87983 253.922 L-4.87983 284.547 L2.75902 284.547 L2.75902 288.482 L-17.1483 288.482 L-17.1483 284.547 Z" fill="#000000" fill-rule="evenodd" fill-opacity="1" /><path clip-path="url(#clip500)" d="M 0 0 M7.82844 282.602 L12.7127 282.602 L12.7127 288.482 L7.82844 288.482 L7.82844 282.602 Z" fill="#000000" fill-rule="evenodd" fill-opacity="1" /><path clip-path="url(#clip500)" d="M 0 0 M27.782 257 Q24.1709 257 22.3422 260.565 Q20.5367 264.107 20.5367 271.236 Q20.5367 278.343 22.3422 281.908 Q24.1709 285.449 27.782 285.449 Q31.4163 285.449 33.2218 281.908 Q35.0505 278.343 35.0505 271.236 Q35.0505 264.107 33.2218 260.565 Q31.4163 257 27.782 257 M27.782 253.297 Q33.5922 253.297 36.6477 257.903 Q39.7264 262.486 39.7264 271.236 Q39.7264 279.963 36.6477 284.57 Q33.5922 289.153 27.782 289.153 Q21.9719 289.153 18.8932 284.57 Q15.8377 279.963 15.8377 271.236 Q15.8377 262.486 18.8932 257.903 Q21.9719 253.297 27.782 253.297 Z" fill="#000000" fill-rule="evenodd" fill-opacity="1" /><path clip-path="url(#clip500)" d="M 0 0 M54.7958 257 Q51.1847 257 49.356 260.565 Q47.5504 264.107 47.5504 271.236 Q47.5504 278.343 49.356 281.908 Q51.1847 285.449 54.7958 285.449 Q58.43 285.449 60.2356 281.908 Q62.0643 278.343 62.0643 271.236 Q62.0643 264.107 60.2356 260.565 Q58.43 257 54.7958 257 M54.7958 253.297 Q60.6059 253.297 63.6615 257.903 Q66.7402 262.486 66.7402 271.236 Q66.7402 279.963 63.6615 284.57 Q60.6059 289.153 54.7958 289.153 Q48.9856 289.153 45.9069 284.57 Q42.8514 279.963 42.8514 271.236 Q42.8514 262.486 45.9069 257.903 Q48.9856 253.297 54.7958 253.297 Z" fill="#000000" fill-rule="evenodd" fill-opacity="1" /><path clip-path="url(#clip500)" d="M 0 0 M-113.622 877.705 L-76.6693 877.705 L-76.6693 869.939 Q-76.6693 860.104 -81.1253 855.553 Q-85.5813 850.969 -95.1935 850.969 Q-104.742 850.969 -109.166 855.553 Q-113.622 860.104 -113.622 869.939 L-113.622 877.705 M-118.906 884.135 L-118.906 870.926 Q-118.906 857.112 -113.145 850.651 Q-107.416 844.19 -95.1935 844.19 Q-82.9077 844.19 -77.1467 850.683 Q-71.3857 857.176 -71.3857 870.926 L-71.3857 884.135 L-118.906 884.135 Z" fill="#000000" fill-rule="evenodd" fill-opacity="1" /><path clip-path="url(#clip500)" d="M 0 0 M-90.6738 807.555 L-87.8093 807.555 L-87.8093 834.482 Q-81.7618 834.1 -78.579 830.854 Q-75.428 827.575 -75.428 821.751 Q-75.428 818.377 -76.2555 815.226 Q-77.083 812.043 -78.7381 808.924 L-73.2 808.924 Q-71.8632 812.075 -71.1629 815.385 Q-70.4627 818.695 -70.4627 822.101 Q-70.4627 830.631 -75.428 835.628 Q-80.3932 840.593 -88.8596 840.593 Q-97.6125 840.593 -102.737 835.883 Q-107.893 831.14 -107.893 823.119 Q-107.893 815.926 -103.246 811.757 Q-98.631 807.555 -90.6738 807.555 M-92.3926 813.412 Q-97.1987 813.475 -100.063 816.117 Q-102.928 818.727 -102.928 823.056 Q-102.928 827.957 -100.159 830.917 Q-97.3897 833.846 -92.3607 834.291 L-92.3926 813.412 Z" fill="#000000" fill-rule="evenodd" fill-opacity="1" /><path clip-path="url(#clip500)" d="M 0 0 M-92.9018 771.78 L-71.3857 771.78 L-71.3857 777.637 L-92.7109 777.637 Q-97.7716 777.637 -100.286 779.61 Q-102.801 781.583 -102.801 785.53 Q-102.801 790.272 -99.7768 793.01 Q-96.7531 795.747 -91.5332 795.747 L-71.3857 795.747 L-71.3857 801.635 L-107.034 801.635 L-107.034 795.747 L-101.496 795.747 Q-104.71 793.646 -106.302 790.814 Q-107.893 787.949 -107.893 784.225 Q-107.893 778.082 -104.074 774.931 Q-100.286 771.78 -92.9018 771.78 Z" fill="#000000" fill-rule="evenodd" fill-opacity="1" /><path clip-path="url(#clip500)" d="M 0 0 M-105.983 742.912 L-100.445 742.912 Q-101.718 745.394 -102.355 748.068 Q-102.991 750.741 -102.991 753.606 Q-102.991 757.966 -101.655 760.163 Q-100.318 762.327 -97.6443 762.327 Q-95.6073 762.327 -94.4296 760.767 Q-93.2838 759.208 -92.2334 754.497 L-91.7878 752.492 Q-90.451 746.254 -88.0002 743.644 Q-85.5813 741.002 -81.2208 741.002 Q-76.2555 741.002 -73.3591 744.949 Q-70.4627 748.864 -70.4627 755.738 Q-70.4627 758.603 -71.0356 761.722 Q-71.5767 764.81 -72.6907 768.247 L-78.7381 768.247 Q-77.0512 765.001 -76.1919 761.85 Q-75.3643 758.699 -75.3643 755.611 Q-75.3643 751.473 -76.7648 749.245 Q-78.197 747.017 -80.7752 747.017 Q-83.1623 747.017 -84.4354 748.641 Q-85.7086 750.232 -86.8862 755.675 L-87.3637 757.712 Q-88.5095 763.155 -90.8648 765.573 Q-93.2519 767.992 -97.3897 767.992 Q-102.419 767.992 -105.156 764.428 Q-107.893 760.863 -107.893 754.306 Q-107.893 751.06 -107.416 748.195 Q-106.938 745.331 -105.983 742.912 Z" fill="#000000" fill-rule="evenodd" fill-opacity="1" /><path clip-path="url(#clip500)" d="M 0 0 M-107.034 734.859 L-107.034 729.003 L-71.3857 729.003 L-71.3857 734.859 L-107.034 734.859 M-120.911 734.859 L-120.911 729.003 L-113.495 729.003 L-113.495 734.859 L-120.911 734.859 Z" fill="#000000" fill-rule="evenodd" fill-opacity="1" /><path clip-path="url(#clip500)" d="M 0 0 M-117.155 717.067 L-107.034 717.067 L-107.034 705.004 L-102.482 705.004 L-102.482 717.067 L-83.1305 717.067 Q-78.77 717.067 -77.5286 715.889 Q-76.2873 714.68 -76.2873 711.019 L-76.2873 705.004 L-71.3857 705.004 L-71.3857 711.019 Q-71.3857 717.799 -73.9002 720.377 Q-76.4465 722.955 -83.1305 722.955 L-102.482 722.955 L-102.482 727.252 L-107.034 727.252 L-107.034 722.955 L-117.155 722.955 L-117.155 717.067 Z" fill="#000000" fill-rule="evenodd" fill-opacity="1" /><path clip-path="url(#clip500)" d="M 0 0 M-68.0756 684.029 Q-61.7099 686.511 -59.7683 688.867 Q-57.8268 691.222 -57.8268 695.169 L-57.8268 699.848 L-62.7284 699.848 L-62.7284 696.41 Q-62.7284 693.991 -63.8742 692.654 Q-65.02 691.318 -69.2851 689.694 L-71.9587 688.644 L-107.034 703.062 L-107.034 696.856 L-79.1519 685.716 L-107.034 674.576 L-107.034 668.369 L-68.0756 684.029 Z" fill="#000000" fill-rule="evenodd" fill-opacity="1" /><polyline clip-path="url(#clip502)" style="stroke:#009af9; stroke-width:4; stroke-opacity:1; fill:none" points="
  166.42,1464 177.086,1463.98 187.753,1463.96 198.42,1463.92 209.086,1463.87 219.753,1463.79 230.42,1463.68 241.086,1463.53 251.753,1463.33 262.419,1463.07 
  273.086,1462.74 283.753,1462.3 294.419,1461.74 305.086,1461.03 315.752,1460.14 326.419,1459.03 337.086,1457.65 347.752,1455.97 358.419,1453.94 369.086,1451.49 
  379.752,1448.58 390.419,1445.15 401.085,1441.14 411.752,1436.49 422.419,1431.16 433.085,1425.1 443.752,1418.26 454.418,1410.63 465.085,1402.18 475.752,1392.91 
  486.418,1382.82 497.085,1371.93 507.752,1360.29 518.418,1347.93 529.085,1334.91 539.751,1321.31 550.418,1307.18 561.085,1292.62 571.751,1277.68 582.418,1262.45 
  593.084,1246.98 603.751,1231.34 614.418,1215.56 625.084,1199.68 635.751,1183.73 646.418,1167.7 657.084,1151.61 667.751,1135.44 678.417,1119.2 689.084,1102.89 
  699.751,1086.52 710.417,1070.1 721.084,1053.69 731.75,1037.33 742.417,1021.13 753.084,1005.2 763.75,989.658 774.417,974.679 785.084,960.433 795.75,947.103 
  806.417,934.873 817.083,923.919 827.75,914.392 838.417,906.415 849.083,900.067 859.75,895.373 870.416,892.298 881.083,890.737 891.75,890.519 902.416,891.401 
  913.083,893.071 923.75,895.164 934.416,897.26 945.083,898.91 955.749,899.642 966.416,898.983 977.083,896.479 987.749,891.707 998.416,884.296 1009.08,873.942 
  1019.75,860.417 1030.42,843.577 1041.08,823.371 1051.75,799.839 1062.42,773.108 1073.08,743.385 1083.75,710.953 1094.42,676.151 1105.08,639.369 1115.75,601.027 
  1126.42,561.565 1137.08,521.432 1147.75,481.068 1158.42,440.905 1169.08,401.351 1179.75,362.792 1190.41,325.587 1201.08,290.07 1211.75,256.553 1222.41,225.326 
  1233.08,196.664 1243.75,170.827 1254.41,148.067 1265.08,128.624 1275.75,112.731 1286.41,100.613 1297.08,92.4752 1307.75,88.5087 1318.41,88.8771 1329.08,93.7118 
  1339.75,103.105 1350.41,117.1 1361.08,135.689 1371.75,158.805 1382.41,186.319 1393.08,218.04 1403.75,253.716 1414.41,293.037 1425.08,335.639 1435.75,381.114 
  1446.41,429.017 1457.08,478.876 1467.75,530.203 1478.41,582.501 1489.08,635.278 1499.75,688.052 1510.41,740.362 1521.08,791.773 1531.75,841.881 1542.41,890.319 
  1553.08,936.757 1563.75,980.908 1574.41,1022.52 1585.08,1061.4 1595.75,1097.38 1606.41,1130.35 1617.08,1160.23 1627.75,1186.98 1638.41,1210.62 1649.08,1231.19 
  1659.75,1248.8 1670.41,1263.56 1681.08,1275.65 1691.75,1285.26 1702.41,1292.64 1713.08,1298.03 1723.75,1301.72 1734.41,1304 1745.08,1305.18 1755.75,1305.55 
  1766.41,1305.41 1777.08,1305.06 1787.75,1304.74 1798.41,1304.71 1809.08,1305.15 1819.75,1306.23 1830.41,1308.09 1841.08,1310.8 1851.75,1314.41 1862.41,1318.91 
  1873.08,1324.28 1883.74,1330.44 1894.41,1337.31 1905.08,1344.76 1915.74,1352.67 1926.41,1360.89 1937.08,1369.28 1947.74,1377.71 1958.41,1386.03 1969.08,1394.15 
  1979.74,1401.94 1990.41,1409.32 2001.08,1416.23 2011.74,1422.63 2022.41,1428.47 2033.08,1433.74 2043.74,1438.45 2054.41,1442.62 2065.08,1446.26 2075.74,1449.4 
  2086.41,1452.1 2097.08,1454.38 2107.74,1456.29 2118.41,1457.88 2129.08,1459.19 2139.74,1460.25 2150.41,1461.11 2161.08,1461.8 2171.74,1462.34 2182.41,1462.76 
  2193.08,1463.09 2203.74,1463.34 2214.41,1463.54 2225.08,1463.68 2235.74,1463.79 2246.41,1463.87 2257.08,1463.92 2267.74,1463.96 2278.41,1463.98 2289.08,1464 
  
  "/>
</svg>
