<?xml version="1.0" encoding="utf-8"?>
<svg xmlns="http://www.w3.org/2000/svg" xmlns:xlink="http://www.w3.org/1999/xlink" width="600" height="400" viewBox="0 0 2400 1600">
<defs>
  <clipPath id="clip210">
    <rect x="0" y="0" width="2400" height="1600"/>
  </clipPath>
</defs>
<path clip-path="url(#clip210)" d="
M0 1600 L2400 1600 L2400 0 L0 0  Z
  " fill="#ffffff" fill-rule="evenodd" fill-opacity="1"/>
<defs>
  <clipPath id="clip211">
    <rect x="480" y="0" width="1681" height="1600"/>
  </clipPath>
</defs>
<path clip-path="url(#clip210)" d="
M102.74 1505.26 L2352.76 1505.26 L2352.76 47.2441 L102.74 47.2441  Z
  " fill="#ffffff" fill-rule="evenodd" fill-opacity="1"/>
<defs>
  <clipPath id="clip212">
    <rect x="102" y="47" width="2251" height="1459"/>
  </clipPath>
</defs>
<polyline clip-path="url(#clip212)" style="stroke:#000000; stroke-width:2; stroke-opacity:0.1; fill:none" points="
  166.42,1505.26 166.42,47.2441 
  "/>
<polyline clip-path="url(#clip212)" style="stroke:#000000; stroke-width:2; stroke-opacity:0.1; fill:none" points="
  723.548,1505.26 723.548,47.2441 
  "/>
<polyline clip-path="url(#clip212)" style="stroke:#000000; stroke-width:2; stroke-opacity:0.1; fill:none" points="
  1280.68,1505.26 1280.68,47.2441 
  "/>
<polyline clip-path="url(#clip212)" style="stroke:#000000; stroke-width:2; stroke-opacity:0.1; fill:none" points="
  1837.8,1505.26 1837.8,47.2441 
  "/>
<polyline clip-path="url(#clip210)" style="stroke:#000000; stroke-width:4; stroke-opacity:1; fill:none" points="
  102.74,1505.26 2352.76,1505.26 
  "/>
<polyline clip-path="url(#clip210)" style="stroke:#000000; stroke-width:4; stroke-opacity:1; fill:none" points="
  166.42,1505.26 166.42,1487.76 
  "/>
<polyline clip-path="url(#clip210)" style="stroke:#000000; stroke-width:4; stroke-opacity:1; fill:none" points="
  723.548,1505.26 723.548,1487.76 
  "/>
<polyline clip-path="url(#clip210)" style="stroke:#000000; stroke-width:4; stroke-opacity:1; fill:none" points="
  1280.68,1505.26 1280.68,1487.76 
  "/>
<polyline clip-path="url(#clip210)" style="stroke:#000000; stroke-width:4; stroke-opacity:1; fill:none" points="
  1837.8,1505.26 1837.8,1487.76 
  "/>
<path clip-path="url(#clip210)" d="M 0 0 M166.42 1534.45 Q162.809 1534.45 160.98 1538.02 Q159.175 1541.56 159.175 1548.69 Q159.175 1555.79 160.98 1559.36 Q162.809 1562.9 166.42 1562.9 Q170.054 1562.9 171.86 1559.36 Q173.688 1555.79 173.688 1548.69 Q173.688 1541.56 171.86 1538.02 Q170.054 1534.45 166.42 1534.45 M166.42 1530.75 Q172.23 1530.75 175.286 1535.35 Q178.364 1539.94 178.364 1548.69 Q178.364 1557.41 175.286 1562.02 Q172.23 1566.6 166.42 1566.6 Q160.61 1566.6 157.531 1562.02 Q154.475 1557.41 154.475 1548.69 Q154.475 1539.94 157.531 1535.35 Q160.61 1530.75 166.42 1530.75 Z" fill="#000000" fill-rule="evenodd" fill-opacity="1" /><path clip-path="url(#clip210)" d="M 0 0 M686.916 1562 L694.555 1562 L694.555 1535.63 L686.244 1537.3 L686.244 1533.04 L694.508 1531.37 L699.184 1531.37 L699.184 1562 L706.823 1562 L706.823 1565.93 L686.916 1565.93 L686.916 1562 Z" fill="#000000" fill-rule="evenodd" fill-opacity="1" /><path clip-path="url(#clip210)" d="M 0 0 M721.892 1534.45 Q718.281 1534.45 716.453 1538.02 Q714.647 1541.56 714.647 1548.69 Q714.647 1555.79 716.453 1559.36 Q718.281 1562.9 721.892 1562.9 Q725.527 1562.9 727.332 1559.36 Q729.161 1555.79 729.161 1548.69 Q729.161 1541.56 727.332 1538.02 Q725.527 1534.45 721.892 1534.45 M721.892 1530.75 Q727.703 1530.75 730.758 1535.35 Q733.837 1539.94 733.837 1548.69 Q733.837 1557.41 730.758 1562.02 Q727.703 1566.6 721.892 1566.6 Q716.082 1566.6 713.004 1562.02 Q709.948 1557.41 709.948 1548.69 Q709.948 1539.94 713.004 1535.35 Q716.082 1530.75 721.892 1530.75 Z" fill="#000000" fill-rule="evenodd" fill-opacity="1" /><path clip-path="url(#clip210)" d="M 0 0 M748.906 1534.45 Q745.295 1534.45 743.466 1538.02 Q741.661 1541.56 741.661 1548.69 Q741.661 1555.79 743.466 1559.36 Q745.295 1562.9 748.906 1562.9 Q752.54 1562.9 754.346 1559.36 Q756.175 1555.79 756.175 1548.69 Q756.175 1541.56 754.346 1538.02 Q752.54 1534.45 748.906 1534.45 M748.906 1530.75 Q754.716 1530.75 757.772 1535.35 Q760.851 1539.94 760.851 1548.69 Q760.851 1557.41 757.772 1562.02 Q754.716 1566.6 748.906 1566.6 Q743.096 1566.6 740.017 1562.02 Q736.962 1557.41 736.962 1548.69 Q736.962 1539.94 740.017 1535.35 Q743.096 1530.75 748.906 1530.75 Z" fill="#000000" fill-rule="evenodd" fill-opacity="1" /><path clip-path="url(#clip210)" d="M 0 0 M1248.31 1562 L1264.63 1562 L1264.63 1565.93 L1242.69 1565.93 L1242.69 1562 Q1245.35 1559.24 1249.93 1554.61 Q1254.54 1549.96 1255.72 1548.62 Q1257.97 1546.09 1258.85 1544.36 Q1259.75 1542.6 1259.75 1540.91 Q1259.75 1538.15 1257.8 1536.42 Q1255.88 1534.68 1252.78 1534.68 Q1250.58 1534.68 1248.13 1535.45 Q1245.7 1536.21 1242.92 1537.76 L1242.92 1533.04 Q1245.74 1531.9 1248.2 1531.33 Q1250.65 1530.75 1252.69 1530.75 Q1258.06 1530.75 1261.25 1533.43 Q1264.45 1536.12 1264.45 1540.61 Q1264.45 1542.74 1263.64 1544.66 Q1262.85 1546.56 1260.74 1549.15 Q1260.17 1549.82 1257.06 1553.04 Q1253.96 1556.23 1248.31 1562 Z" fill="#000000" fill-rule="evenodd" fill-opacity="1" /><path clip-path="url(#clip210)" d="M 0 0 M1279.7 1534.45 Q1276.09 1534.45 1274.26 1538.02 Q1272.46 1541.56 1272.46 1548.69 Q1272.46 1555.79 1274.26 1559.36 Q1276.09 1562.9 1279.7 1562.9 Q1283.34 1562.9 1285.14 1559.36 Q1286.97 1555.79 1286.97 1548.69 Q1286.97 1541.56 1285.14 1538.02 Q1283.34 1534.45 1279.7 1534.45 M1279.7 1530.75 Q1285.51 1530.75 1288.57 1535.35 Q1291.65 1539.94 1291.65 1548.69 Q1291.65 1557.41 1288.57 1562.02 Q1285.51 1566.6 1279.7 1566.6 Q1273.89 1566.6 1270.81 1562.02 Q1267.76 1557.41 1267.76 1548.69 Q1267.76 1539.94 1270.81 1535.35 Q1273.89 1530.75 1279.7 1530.75 Z" fill="#000000" fill-rule="evenodd" fill-opacity="1" /><path clip-path="url(#clip210)" d="M 0 0 M1306.72 1534.45 Q1303.11 1534.45 1301.28 1538.02 Q1299.47 1541.56 1299.47 1548.69 Q1299.47 1555.79 1301.28 1559.36 Q1303.11 1562.9 1306.72 1562.9 Q1310.35 1562.9 1312.16 1559.36 Q1313.99 1555.79 1313.99 1548.69 Q1313.99 1541.56 1312.16 1538.02 Q1310.35 1534.45 1306.72 1534.45 M1306.72 1530.75 Q1312.53 1530.75 1315.58 1535.35 Q1318.66 1539.94 1318.66 1548.69 Q1318.66 1557.41 1315.58 1562.02 Q1312.53 1566.6 1306.72 1566.6 Q1300.91 1566.6 1297.83 1562.02 Q1294.77 1557.41 1294.77 1548.69 Q1294.77 1539.94 1297.83 1535.35 Q1300.91 1530.75 1306.72 1530.75 Z" fill="#000000" fill-rule="evenodd" fill-opacity="1" /><path clip-path="url(#clip210)" d="M 0 0 M1815.04 1547.3 Q1818.39 1548.02 1820.27 1550.28 Q1822.17 1552.55 1822.17 1555.89 Q1822.17 1561 1818.65 1563.8 Q1815.13 1566.6 1808.65 1566.6 Q1806.47 1566.6 1804.16 1566.16 Q1801.87 1565.75 1799.41 1564.89 L1799.41 1560.38 Q1801.36 1561.51 1803.67 1562.09 Q1805.99 1562.67 1808.51 1562.67 Q1812.91 1562.67 1815.2 1560.93 Q1817.51 1559.2 1817.51 1555.89 Q1817.51 1552.83 1815.36 1551.12 Q1813.23 1549.38 1809.41 1549.38 L1805.38 1549.38 L1805.38 1545.54 L1809.6 1545.54 Q1813.05 1545.54 1814.87 1544.17 Q1816.7 1542.78 1816.7 1540.19 Q1816.7 1537.53 1814.81 1536.12 Q1812.93 1534.68 1809.41 1534.68 Q1807.49 1534.68 1805.29 1535.1 Q1803.09 1535.52 1800.45 1536.39 L1800.45 1532.23 Q1803.12 1531.49 1805.43 1531.12 Q1807.77 1530.75 1809.83 1530.75 Q1815.15 1530.75 1818.25 1533.18 Q1821.36 1535.58 1821.36 1539.71 Q1821.36 1542.58 1819.71 1544.57 Q1818.07 1546.53 1815.04 1547.3 Z" fill="#000000" fill-rule="evenodd" fill-opacity="1" /><path clip-path="url(#clip210)" d="M 0 0 M1837.24 1534.45 Q1833.62 1534.45 1831.8 1538.02 Q1829.99 1541.56 1829.99 1548.69 Q1829.99 1555.79 1831.8 1559.36 Q1833.62 1562.9 1837.24 1562.9 Q1840.87 1562.9 1842.68 1559.36 Q1844.5 1555.79 1844.5 1548.69 Q1844.5 1541.56 1842.68 1538.02 Q1840.87 1534.45 1837.24 1534.45 M1837.24 1530.75 Q1843.05 1530.75 1846.1 1535.35 Q1849.18 1539.94 1849.18 1548.69 Q1849.18 1557.41 1846.1 1562.02 Q1843.05 1566.6 1837.24 1566.6 Q1831.43 1566.6 1828.35 1562.02 Q1825.29 1557.41 1825.29 1548.69 Q1825.29 1539.94 1828.35 1535.35 Q1831.43 1530.75 1837.24 1530.75 Z" fill="#000000" fill-rule="evenodd" fill-opacity="1" /><path clip-path="url(#clip210)" d="M 0 0 M1864.25 1534.45 Q1860.64 1534.45 1858.81 1538.02 Q1857 1541.56 1857 1548.69 Q1857 1555.79 1858.81 1559.36 Q1860.64 1562.9 1864.25 1562.9 Q1867.88 1562.9 1869.69 1559.36 Q1871.52 1555.79 1871.52 1548.69 Q1871.52 1541.56 1869.69 1538.02 Q1867.88 1534.45 1864.25 1534.45 M1864.25 1530.75 Q1870.06 1530.75 1873.12 1535.35 Q1876.19 1539.94 1876.19 1548.69 Q1876.19 1557.41 1873.12 1562.02 Q1870.06 1566.6 1864.25 1566.6 Q1858.44 1566.6 1855.36 1562.02 Q1852.31 1557.41 1852.31 1548.69 Q1852.31 1539.94 1855.36 1535.35 Q1858.44 1530.75 1864.25 1530.75 Z" fill="#000000" fill-rule="evenodd" fill-opacity="1" /><path clip-path="url(#clip210)" d="M 0 0 M860.67 1602.6 L867.163 1602.6 L877.157 1642.77 L887.119 1602.6 L894.344 1602.6 L904.338 1642.77 L914.301 1602.6 L920.825 1602.6 L908.89 1650.12 L900.805 1650.12 L890.779 1608.87 L880.658 1650.12 L872.573 1650.12 L860.67 1602.6 Z" fill="#000000" fill-rule="evenodd" fill-opacity="1" /><path clip-path="url(#clip210)" d="M 0 0 M939 1632.2 Q931.902 1632.2 929.165 1633.83 Q926.427 1635.45 926.427 1639.37 Q926.427 1642.48 928.464 1644.33 Q930.533 1646.15 934.066 1646.15 Q938.936 1646.15 941.864 1642.71 Q944.824 1639.24 944.824 1633.51 L944.824 1632.2 L939 1632.2 M950.681 1629.79 L950.681 1650.12 L944.824 1650.12 L944.824 1644.71 Q942.819 1647.96 939.827 1649.52 Q936.835 1651.05 932.507 1651.05 Q927.032 1651.05 923.786 1647.99 Q920.571 1644.9 920.571 1639.75 Q920.571 1633.73 924.581 1630.68 Q928.623 1627.62 936.612 1627.62 L944.824 1627.62 L944.824 1627.05 Q944.824 1623.01 942.151 1620.81 Q939.509 1618.58 934.703 1618.58 Q931.647 1618.58 928.751 1619.31 Q925.854 1620.05 923.181 1621.51 L923.181 1616.1 Q926.395 1614.86 929.419 1614.25 Q932.443 1613.62 935.307 1613.62 Q943.042 1613.62 946.861 1617.63 Q950.681 1621.64 950.681 1629.79 Z" fill="#000000" fill-rule="evenodd" fill-opacity="1" /><path clip-path="url(#clip210)" d="M 0 0 M974.87 1600.6 L974.87 1605.47 L969.269 1605.47 Q966.117 1605.47 964.876 1606.74 Q963.667 1608.01 963.667 1611.32 L963.667 1614.48 L973.311 1614.48 L973.311 1619.03 L963.667 1619.03 L963.667 1650.12 L957.778 1650.12 L957.778 1619.03 L952.177 1619.03 L952.177 1614.48 L957.778 1614.48 L957.778 1611.99 Q957.778 1606.04 960.547 1603.34 Q963.317 1600.6 969.332 1600.6 L974.87 1600.6 Z" fill="#000000" fill-rule="evenodd" fill-opacity="1" /><path clip-path="url(#clip210)" d="M 0 0 M999.06 1600.6 L999.06 1605.47 L993.458 1605.47 Q990.307 1605.47 989.066 1606.74 Q987.856 1608.01 987.856 1611.32 L987.856 1614.48 L997.5 1614.48 L997.5 1619.03 L987.856 1619.03 L987.856 1650.12 L981.968 1650.12 L981.968 1619.03 L976.366 1619.03 L976.366 1614.48 L981.968 1614.48 L981.968 1611.99 Q981.968 1606.04 984.737 1603.34 Q987.506 1600.6 993.522 1600.6 L999.06 1600.6 Z" fill="#000000" fill-rule="evenodd" fill-opacity="1" /><path clip-path="url(#clip210)" d="M 0 0 M1005.2 1600.6 L1011.06 1600.6 L1011.06 1650.12 L1005.2 1650.12 L1005.2 1600.6 Z" fill="#000000" fill-rule="evenodd" fill-opacity="1" /><path clip-path="url(#clip210)" d="M 0 0 M1047.69 1630.84 L1047.69 1633.7 L1020.77 1633.7 Q1021.15 1639.75 1024.4 1642.93 Q1027.67 1646.08 1033.5 1646.08 Q1036.87 1646.08 1040.02 1645.25 Q1043.21 1644.43 1046.33 1642.77 L1046.33 1648.31 Q1043.17 1649.65 1039.86 1650.35 Q1036.55 1651.05 1033.15 1651.05 Q1024.62 1651.05 1019.62 1646.08 Q1014.66 1641.12 1014.66 1632.65 Q1014.66 1623.9 1019.37 1618.77 Q1024.11 1613.62 1032.13 1613.62 Q1039.32 1613.62 1043.49 1618.26 Q1047.69 1622.88 1047.69 1630.84 M1041.84 1629.12 Q1041.77 1624.31 1039.13 1621.45 Q1036.52 1618.58 1032.19 1618.58 Q1027.29 1618.58 1024.33 1621.35 Q1021.4 1624.12 1020.96 1629.15 L1041.84 1629.12 Z" fill="#000000" fill-rule="evenodd" fill-opacity="1" /><path clip-path="url(#clip210)" d="M 0 0 M1104.19 1628.61 L1104.19 1650.12 L1098.33 1650.12 L1098.33 1628.8 Q1098.33 1623.74 1096.36 1621.22 Q1094.39 1618.71 1090.44 1618.71 Q1085.7 1618.71 1082.96 1621.73 Q1080.22 1624.76 1080.22 1629.98 L1080.22 1650.12 L1074.33 1650.12 L1074.33 1600.6 L1080.22 1600.6 L1080.22 1620.01 Q1082.32 1616.8 1085.16 1615.21 Q1088.02 1613.62 1091.74 1613.62 Q1097.89 1613.62 1101.04 1617.44 Q1104.19 1621.22 1104.19 1628.61 Z" fill="#000000" fill-rule="evenodd" fill-opacity="1" /><path clip-path="url(#clip210)" d="M 0 0 M1124.15 1618.58 Q1119.44 1618.58 1116.7 1622.27 Q1113.96 1625.93 1113.96 1632.33 Q1113.96 1638.73 1116.67 1642.42 Q1119.4 1646.08 1124.15 1646.08 Q1128.82 1646.08 1131.56 1642.39 Q1134.3 1638.7 1134.3 1632.33 Q1134.3 1626 1131.56 1622.31 Q1128.82 1618.58 1124.15 1618.58 M1124.15 1613.62 Q1131.79 1613.62 1136.15 1618.58 Q1140.51 1623.55 1140.51 1632.33 Q1140.51 1641.08 1136.15 1646.08 Q1131.79 1651.05 1124.15 1651.05 Q1116.48 1651.05 1112.11 1646.08 Q1107.79 1641.08 1107.79 1632.33 Q1107.79 1623.55 1112.11 1618.58 Q1116.48 1613.62 1124.15 1613.62 Z" fill="#000000" fill-rule="evenodd" fill-opacity="1" /><path clip-path="url(#clip210)" d="M 0 0 M1146.04 1636.06 L1146.04 1614.48 L1151.9 1614.48 L1151.9 1635.83 Q1151.9 1640.89 1153.87 1643.44 Q1155.85 1645.95 1159.79 1645.95 Q1164.54 1645.95 1167.27 1642.93 Q1170.04 1639.91 1170.04 1634.69 L1170.04 1614.48 L1175.9 1614.48 L1175.9 1650.12 L1170.04 1650.12 L1170.04 1644.65 Q1167.91 1647.9 1165.08 1649.49 Q1162.28 1651.05 1158.55 1651.05 Q1152.41 1651.05 1149.23 1647.23 Q1146.04 1643.41 1146.04 1636.06 M1160.78 1613.62 L1160.78 1613.62 Z" fill="#000000" fill-rule="evenodd" fill-opacity="1" /><path clip-path="url(#clip210)" d="M 0 0 M1204.77 1615.53 L1204.77 1621.06 Q1202.29 1619.79 1199.61 1619.15 Q1196.94 1618.52 1194.07 1618.52 Q1189.71 1618.52 1187.52 1619.85 Q1185.35 1621.19 1185.35 1623.87 Q1185.35 1625.9 1186.91 1627.08 Q1188.47 1628.23 1193.18 1629.28 L1195.19 1629.72 Q1201.43 1631.06 1204.04 1633.51 Q1206.68 1635.93 1206.68 1640.29 Q1206.68 1645.25 1202.73 1648.15 Q1198.82 1651.05 1191.94 1651.05 Q1189.08 1651.05 1185.96 1650.47 Q1182.87 1649.93 1179.43 1648.82 L1179.43 1642.77 Q1182.68 1644.46 1185.83 1645.32 Q1188.98 1646.15 1192.07 1646.15 Q1196.21 1646.15 1198.43 1644.74 Q1200.66 1643.31 1200.66 1640.73 Q1200.66 1638.35 1199.04 1637.07 Q1197.45 1635.8 1192 1634.62 L1189.97 1634.15 Q1184.52 1633 1182.11 1630.64 Q1179.69 1628.26 1179.69 1624.12 Q1179.69 1619.09 1183.25 1616.35 Q1186.82 1613.62 1193.37 1613.62 Q1196.62 1613.62 1199.48 1614.09 Q1202.35 1614.57 1204.77 1615.53 Z" fill="#000000" fill-rule="evenodd" fill-opacity="1" /><path clip-path="url(#clip210)" d="M 0 0 M1243.31 1630.84 L1243.31 1633.7 L1216.39 1633.7 Q1216.77 1639.75 1220.01 1642.93 Q1223.29 1646.08 1229.12 1646.08 Q1232.49 1646.08 1235.64 1645.25 Q1238.82 1644.43 1241.94 1642.77 L1241.94 1648.31 Q1238.79 1649.65 1235.48 1650.35 Q1232.17 1651.05 1228.77 1651.05 Q1220.24 1651.05 1215.24 1646.08 Q1210.27 1641.12 1210.27 1632.65 Q1210.27 1623.9 1214.98 1618.77 Q1219.73 1613.62 1227.75 1613.62 Q1234.94 1613.62 1239.11 1618.26 Q1243.31 1622.88 1243.31 1630.84 M1237.46 1629.12 Q1237.39 1624.31 1234.75 1621.45 Q1232.14 1618.58 1227.81 1618.58 Q1222.91 1618.58 1219.95 1621.35 Q1217.02 1624.12 1216.58 1629.15 L1237.46 1629.12 Z" fill="#000000" fill-rule="evenodd" fill-opacity="1" /><path clip-path="url(#clip210)" d="M 0 0 M1272.18 1615.53 L1272.18 1621.06 Q1269.7 1619.79 1267.02 1619.15 Q1264.35 1618.52 1261.49 1618.52 Q1257.13 1618.52 1254.93 1619.85 Q1252.77 1621.19 1252.77 1623.87 Q1252.77 1625.9 1254.32 1627.08 Q1255.88 1628.23 1260.6 1629.28 L1262.6 1629.72 Q1268.84 1631.06 1271.45 1633.51 Q1274.09 1635.93 1274.09 1640.29 Q1274.09 1645.25 1270.14 1648.15 Q1266.23 1651.05 1259.35 1651.05 Q1256.49 1651.05 1253.37 1650.47 Q1250.28 1649.93 1246.85 1648.82 L1246.85 1642.77 Q1250.09 1644.46 1253.24 1645.32 Q1256.39 1646.15 1259.48 1646.15 Q1263.62 1646.15 1265.85 1644.74 Q1268.07 1643.31 1268.07 1640.73 Q1268.07 1638.35 1266.45 1637.07 Q1264.86 1635.8 1259.42 1634.62 L1257.38 1634.15 Q1251.94 1633 1249.52 1630.64 Q1247.1 1628.26 1247.1 1624.12 Q1247.1 1619.09 1250.66 1616.35 Q1254.23 1613.62 1260.79 1613.62 Q1264.03 1613.62 1266.9 1614.09 Q1269.76 1614.57 1272.18 1615.53 Z" fill="#000000" fill-rule="evenodd" fill-opacity="1" /><path clip-path="url(#clip210)" d="M 0 0 M1306.62 1644.78 L1306.62 1663.68 L1300.73 1663.68 L1300.73 1614.48 L1306.62 1614.48 L1306.62 1619.89 Q1308.47 1616.7 1311.27 1615.18 Q1314.1 1613.62 1318.01 1613.62 Q1324.51 1613.62 1328.55 1618.77 Q1332.62 1623.93 1332.62 1632.33 Q1332.62 1640.73 1328.55 1645.89 Q1324.51 1651.05 1318.01 1651.05 Q1314.1 1651.05 1311.27 1649.52 Q1308.47 1647.96 1306.62 1644.78 M1326.54 1632.33 Q1326.54 1625.87 1323.87 1622.21 Q1321.23 1618.52 1316.58 1618.52 Q1311.93 1618.52 1309.26 1622.21 Q1306.62 1625.87 1306.62 1632.33 Q1306.62 1638.79 1309.26 1642.48 Q1311.93 1646.15 1316.58 1646.15 Q1321.23 1646.15 1323.87 1642.48 Q1326.54 1638.79 1326.54 1632.33 Z" fill="#000000" fill-rule="evenodd" fill-opacity="1" /><path clip-path="url(#clip210)" d="M 0 0 M1369.26 1630.84 L1369.26 1633.7 L1342.33 1633.7 Q1342.71 1639.75 1345.96 1642.93 Q1349.24 1646.08 1355.06 1646.08 Q1358.44 1646.08 1361.59 1645.25 Q1364.77 1644.43 1367.89 1642.77 L1367.89 1648.31 Q1364.74 1649.65 1361.43 1650.35 Q1358.12 1651.05 1354.71 1651.05 Q1346.18 1651.05 1341.18 1646.08 Q1336.22 1641.12 1336.22 1632.65 Q1336.22 1623.9 1340.93 1618.77 Q1345.67 1613.62 1353.69 1613.62 Q1360.89 1613.62 1365.06 1618.26 Q1369.26 1622.88 1369.26 1630.84 M1363.4 1629.12 Q1363.34 1624.31 1360.7 1621.45 Q1358.09 1618.58 1353.76 1618.58 Q1348.86 1618.58 1345.9 1621.35 Q1342.97 1624.12 1342.52 1629.15 L1363.4 1629.12 Z" fill="#000000" fill-rule="evenodd" fill-opacity="1" /><path clip-path="url(#clip210)" d="M 0 0 M1396.06 1619.95 Q1395.07 1619.38 1393.89 1619.12 Q1392.75 1618.84 1391.35 1618.84 Q1386.38 1618.84 1383.71 1622.08 Q1381.07 1625.3 1381.07 1631.35 L1381.07 1650.12 L1375.18 1650.12 L1375.18 1614.48 L1381.07 1614.48 L1381.07 1620.01 Q1382.91 1616.77 1385.87 1615.21 Q1388.83 1613.62 1393.07 1613.62 Q1393.67 1613.62 1394.4 1613.71 Q1395.13 1613.78 1396.03 1613.93 L1396.06 1619.95 Z" fill="#000000" fill-rule="evenodd" fill-opacity="1" /><path clip-path="url(#clip210)" d="M 0 0 M1450.68 1621.32 Q1452.87 1617.37 1455.93 1615.49 Q1458.98 1613.62 1463.12 1613.62 Q1468.69 1613.62 1471.71 1617.53 Q1474.74 1621.41 1474.74 1628.61 L1474.74 1650.12 L1468.85 1650.12 L1468.85 1628.8 Q1468.85 1623.67 1467.03 1621.19 Q1465.22 1618.71 1461.5 1618.71 Q1456.95 1618.71 1454.3 1621.73 Q1451.66 1624.76 1451.66 1629.98 L1451.66 1650.12 L1445.77 1650.12 L1445.77 1628.8 Q1445.77 1623.64 1443.96 1621.19 Q1442.15 1618.71 1438.36 1618.71 Q1433.87 1618.71 1431.23 1621.76 Q1428.59 1624.79 1428.59 1629.98 L1428.59 1650.12 L1422.7 1650.12 L1422.7 1614.48 L1428.59 1614.48 L1428.59 1620.01 Q1430.59 1616.74 1433.39 1615.18 Q1436.19 1613.62 1440.04 1613.62 Q1443.93 1613.62 1446.63 1615.59 Q1449.37 1617.56 1450.68 1621.32 Z" fill="#000000" fill-rule="evenodd" fill-opacity="1" /><path clip-path="url(#clip210)" d="M 0 0 M1480.88 1614.48 L1486.74 1614.48 L1486.74 1650.12 L1480.88 1650.12 L1480.88 1614.48 M1480.88 1600.6 L1486.74 1600.6 L1486.74 1608.01 L1480.88 1608.01 L1480.88 1600.6 Z" fill="#000000" fill-rule="evenodd" fill-opacity="1" /><path clip-path="url(#clip210)" d="M 0 0 M1492.88 1600.6 L1498.74 1600.6 L1498.74 1650.12 L1492.88 1650.12 L1492.88 1600.6 Z" fill="#000000" fill-rule="evenodd" fill-opacity="1" /><path clip-path="url(#clip210)" d="M 0 0 M1504.88 1600.6 L1510.74 1600.6 L1510.74 1650.12 L1504.88 1650.12 L1504.88 1600.6 Z" fill="#000000" fill-rule="evenodd" fill-opacity="1" /><path clip-path="url(#clip210)" d="M 0 0 M1516.88 1614.48 L1522.73 1614.48 L1522.73 1650.12 L1516.88 1650.12 L1516.88 1614.48 M1516.88 1600.6 L1522.73 1600.6 L1522.73 1608.01 L1516.88 1608.01 L1516.88 1600.6 Z" fill="#000000" fill-rule="evenodd" fill-opacity="1" /><path clip-path="url(#clip210)" d="M 0 0 M1542.69 1618.58 Q1537.98 1618.58 1535.24 1622.27 Q1532.51 1625.93 1532.51 1632.33 Q1532.51 1638.73 1535.21 1642.42 Q1537.95 1646.08 1542.69 1646.08 Q1547.37 1646.08 1550.11 1642.39 Q1552.84 1638.7 1552.84 1632.33 Q1552.84 1626 1550.11 1622.31 Q1547.37 1618.58 1542.69 1618.58 M1542.69 1613.62 Q1550.33 1613.62 1554.69 1618.58 Q1559.05 1623.55 1559.05 1632.33 Q1559.05 1641.08 1554.69 1646.08 Q1550.33 1651.05 1542.69 1651.05 Q1535.02 1651.05 1530.66 1646.08 Q1526.33 1641.08 1526.33 1632.33 Q1526.33 1623.55 1530.66 1618.58 Q1535.02 1613.62 1542.69 1613.62 Z" fill="#000000" fill-rule="evenodd" fill-opacity="1" /><path clip-path="url(#clip210)" d="M 0 0 M1594.83 1628.61 L1594.83 1650.12 L1588.97 1650.12 L1588.97 1628.8 Q1588.97 1623.74 1587 1621.22 Q1585.02 1618.71 1581.08 1618.71 Q1576.33 1618.71 1573.6 1621.73 Q1570.86 1624.76 1570.86 1629.98 L1570.86 1650.12 L1564.97 1650.12 L1564.97 1614.48 L1570.86 1614.48 L1570.86 1620.01 Q1572.96 1616.8 1575.79 1615.21 Q1578.66 1613.62 1582.38 1613.62 Q1588.52 1613.62 1591.68 1617.44 Q1594.83 1621.22 1594.83 1628.61 Z" fill="#000000" fill-rule="evenodd" fill-opacity="1" /><polyline clip-path="url(#clip212)" style="stroke:#000000; stroke-width:2; stroke-opacity:0.1; fill:none" points="
  102.74,1482.58 2352.76,1482.58 
  "/>
<polyline clip-path="url(#clip212)" style="stroke:#000000; stroke-width:2; stroke-opacity:0.1; fill:none" points="
  102.74,1110.83 2352.76,1110.83 
  "/>
<polyline clip-path="url(#clip212)" style="stroke:#000000; stroke-width:2; stroke-opacity:0.1; fill:none" points="
  102.74,739.077 2352.76,739.077 
  "/>
<polyline clip-path="url(#clip212)" style="stroke:#000000; stroke-width:2; stroke-opacity:0.1; fill:none" points="
  102.74,367.324 2352.76,367.324 
  "/>
<polyline clip-path="url(#clip210)" style="stroke:#000000; stroke-width:4; stroke-opacity:1; fill:none" points="
  102.74,1505.26 102.74,47.2441 
  "/>
<polyline clip-path="url(#clip210)" style="stroke:#000000; stroke-width:4; stroke-opacity:1; fill:none" points="
  102.74,1482.58 129.74,1482.58 
  "/>
<polyline clip-path="url(#clip210)" style="stroke:#000000; stroke-width:4; stroke-opacity:1; fill:none" points="
  102.74,1110.83 129.74,1110.83 
  "/>
<polyline clip-path="url(#clip210)" style="stroke:#000000; stroke-width:4; stroke-opacity:1; fill:none" points="
  102.74,739.077 129.74,739.077 
  "/>
<polyline clip-path="url(#clip210)" style="stroke:#000000; stroke-width:4; stroke-opacity:1; fill:none" points="
  102.74,367.324 129.74,367.324 
  "/>
<path clip-path="url(#clip210)" d="M 0 0 M55.2124 1480.72 Q52.0643 1480.72 50.2125 1482.87 Q48.3838 1485.03 48.3838 1488.77 Q48.3838 1492.5 50.2125 1494.68 Q52.0643 1496.83 55.2124 1496.83 Q58.3606 1496.83 60.1893 1494.68 Q62.0411 1492.5 62.0411 1488.77 Q62.0411 1485.03 60.1893 1482.87 Q58.3606 1480.72 55.2124 1480.72 M64.4948 1466.07 L64.4948 1470.33 Q62.7355 1469.49 60.93 1469.05 Q59.1476 1468.61 57.3884 1468.61 Q52.7588 1468.61 50.3051 1471.74 Q47.8745 1474.86 47.5273 1481.18 Q48.893 1479.17 50.9532 1478.1 Q53.0134 1477.02 55.4902 1477.02 Q60.6985 1477.02 63.7078 1480.19 Q66.7402 1483.34 66.7402 1488.77 Q66.7402 1494.1 63.592 1497.32 Q60.4439 1500.53 55.2124 1500.53 Q49.2171 1500.53 46.0458 1495.95 Q42.8745 1491.34 42.8745 1482.62 Q42.8745 1474.42 46.7634 1469.56 Q50.6523 1464.68 57.2032 1464.68 Q58.9624 1464.68 60.7448 1465.03 Q62.5504 1465.37 64.4948 1466.07 Z" fill="#000000" fill-rule="evenodd" fill-opacity="1" /><path clip-path="url(#clip210)" d="M 0 0 M54.8884 1111.7 Q51.5551 1111.7 49.6338 1113.48 Q47.7356 1115.26 47.7356 1118.39 Q47.7356 1121.51 49.6338 1123.29 Q51.5551 1125.08 54.8884 1125.08 Q58.2217 1125.08 60.143 1123.29 Q62.0643 1121.49 62.0643 1118.39 Q62.0643 1115.26 60.143 1113.48 Q58.2448 1111.7 54.8884 1111.7 M50.2125 1109.71 Q47.2032 1108.97 45.5134 1106.91 Q43.8468 1104.85 43.8468 1101.88 Q43.8468 1097.74 46.7866 1095.33 Q49.7495 1092.92 54.8884 1092.92 Q60.0504 1092.92 62.9902 1095.33 Q65.93 1097.74 65.93 1101.88 Q65.93 1104.85 64.2402 1106.91 Q62.5735 1108.97 59.5874 1109.71 Q62.967 1110.49 64.842 1112.79 Q66.7402 1115.08 66.7402 1118.39 Q66.7402 1123.41 63.6615 1126.1 Q60.6059 1128.78 54.8884 1128.78 Q49.1708 1128.78 46.0921 1126.1 Q43.0366 1123.41 43.0366 1118.39 Q43.0366 1115.08 44.9347 1112.79 Q46.8329 1110.49 50.2125 1109.71 M48.4995 1102.32 Q48.4995 1105.01 50.1662 1106.51 Q51.856 1108.02 54.8884 1108.02 Q57.8976 1108.02 59.5874 1106.51 Q61.3004 1105.01 61.3004 1102.32 Q61.3004 1099.64 59.5874 1098.13 Q57.8976 1096.63 54.8884 1096.63 Q51.856 1096.63 50.1662 1098.13 Q48.4995 1099.64 48.4995 1102.32 Z" fill="#000000" fill-rule="evenodd" fill-opacity="1" /><path clip-path="url(#clip210)" d="M 0 0 M19.8191 752.421 L27.458 752.421 L27.458 726.056 L19.1478 727.723 L19.1478 723.463 L27.4117 721.797 L32.0876 721.797 L32.0876 752.421 L39.7264 752.421 L39.7264 756.357 L19.8191 756.357 L19.8191 752.421 Z" fill="#000000" fill-rule="evenodd" fill-opacity="1" /><path clip-path="url(#clip210)" d="M 0 0 M54.7958 724.875 Q51.1847 724.875 49.356 728.44 Q47.5504 731.982 47.5504 739.111 Q47.5504 746.218 49.356 749.783 Q51.1847 753.324 54.7958 753.324 Q58.43 753.324 60.2356 749.783 Q62.0643 746.218 62.0643 739.111 Q62.0643 731.982 60.2356 728.44 Q58.43 724.875 54.7958 724.875 M54.7958 721.172 Q60.6059 721.172 63.6615 725.778 Q66.7402 730.361 66.7402 739.111 Q66.7402 747.838 63.6615 752.445 Q60.6059 757.028 54.7958 757.028 Q48.9856 757.028 45.9069 752.445 Q42.8514 747.838 42.8514 739.111 Q42.8514 730.361 45.9069 725.778 Q48.9856 721.172 54.7958 721.172 Z" fill="#000000" fill-rule="evenodd" fill-opacity="1" /><path clip-path="url(#clip210)" d="M 0 0 M21.4163 380.668 L29.0552 380.668 L29.0552 354.303 L20.745 355.969 L20.745 351.71 L29.0089 350.044 L33.6848 350.044 L33.6848 380.668 L41.3236 380.668 L41.3236 384.604 L21.4163 384.604 L21.4163 380.668 Z" fill="#000000" fill-rule="evenodd" fill-opacity="1" /><path clip-path="url(#clip210)" d="M 0 0 M50.4208 380.668 L66.7402 380.668 L66.7402 384.604 L44.7958 384.604 L44.7958 380.668 Q47.4579 377.914 52.0412 373.284 Q56.6476 368.631 57.8282 367.289 Q60.0735 364.766 60.9532 363.03 Q61.8559 361.27 61.8559 359.581 Q61.8559 356.826 59.9115 355.09 Q57.9902 353.354 54.8884 353.354 Q52.6893 353.354 50.2356 354.118 Q47.8051 354.881 45.0273 356.432 L45.0273 351.71 Q47.8514 350.576 50.3051 349.997 Q52.7588 349.419 54.7958 349.419 Q60.1661 349.419 63.3605 352.104 Q66.555 354.789 66.555 359.28 Q66.555 361.409 65.7448 363.33 Q64.9578 365.229 62.8513 367.821 Q62.2726 368.493 59.1708 371.71 Q56.0689 374.905 50.4208 380.668 Z" fill="#000000" fill-rule="evenodd" fill-opacity="1" /><path clip-path="url(#clip210)" d="M 0 0 M-73.3446 957.85 L-36.3917 957.85 L-36.3917 950.084 Q-36.3917 940.248 -40.8477 935.697 Q-45.3037 931.114 -54.9159 931.114 Q-64.4645 931.114 -68.8886 935.697 Q-73.3446 940.248 -73.3446 950.084 L-73.3446 957.85 M-78.6282 964.279 L-78.6282 951.07 Q-78.6282 937.257 -72.8672 930.795 Q-67.1381 924.334 -54.9159 924.334 Q-42.6301 924.334 -36.8691 930.827 Q-31.1082 937.32 -31.1082 951.07 L-31.1082 964.279 L-78.6282 964.279 Z" fill="#000000" fill-rule="evenodd" fill-opacity="1" /><path clip-path="url(#clip210)" d="M 0 0 M-66.7561 918.191 L-66.7561 912.335 L-31.1082 912.335 L-31.1082 918.191 L-66.7561 918.191 M-80.6334 918.191 L-80.6334 912.335 L-73.2173 912.335 L-73.2173 918.191 L-80.6334 918.191 Z" fill="#000000" fill-rule="evenodd" fill-opacity="1" /><path clip-path="url(#clip210)" d="M 0 0 M-66.7561 910.393 L-66.7561 904.187 L-36.8373 893.047 L-66.7561 881.907 L-66.7561 875.7 L-31.1082 889.068 L-31.1082 897.025 L-66.7561 910.393 Z" fill="#000000" fill-rule="evenodd" fill-opacity="1" /><path clip-path="url(#clip210)" d="M 0 0 M-62.6503 855.744 Q-62.6503 860.454 -58.9581 863.192 Q-55.2979 865.929 -48.9003 865.929 Q-42.5028 865.929 -38.8107 863.223 Q-35.1504 860.486 -35.1504 855.744 Q-35.1504 851.065 -38.8425 848.328 Q-42.5346 845.59 -48.9003 845.59 Q-55.2342 845.59 -58.9263 848.328 Q-62.6503 851.065 -62.6503 855.744 M-67.6155 855.744 Q-67.6155 848.105 -62.6503 843.744 Q-57.685 839.384 -48.9003 839.384 Q-40.1475 839.384 -35.1504 843.744 Q-30.1852 848.105 -30.1852 855.744 Q-30.1852 863.414 -35.1504 867.775 Q-40.1475 872.104 -48.9003 872.104 Q-57.685 872.104 -62.6503 867.775 Q-67.6155 863.414 -67.6155 855.744 Z" fill="#000000" fill-rule="evenodd" fill-opacity="1" /><path clip-path="url(#clip210)" d="M 0 0 M-61.2816 812.584 Q-61.8545 813.571 -62.1092 814.749 Q-62.3956 815.894 -62.3956 817.295 Q-62.3956 822.26 -59.1491 824.934 Q-55.9344 827.575 -49.887 827.575 L-31.1082 827.575 L-31.1082 833.464 L-66.7561 833.464 L-66.7561 827.575 L-61.218 827.575 Q-64.4645 825.729 -66.0241 822.769 Q-67.6155 819.809 -67.6155 815.576 Q-67.6155 814.971 -67.52 814.239 Q-67.4564 813.507 -67.2972 812.616 L-61.2816 812.584 Z" fill="#000000" fill-rule="evenodd" fill-opacity="1" /><path clip-path="url(#clip210)" d="M 0 0 M-65.3875 782.22 L-59.913 782.22 Q-61.2816 784.702 -61.95 787.217 Q-62.6503 789.7 -62.6503 792.246 Q-62.6503 797.943 -59.0218 801.094 Q-55.4252 804.245 -48.9003 804.245 Q-42.3755 804.245 -38.747 801.094 Q-35.1504 797.943 -35.1504 792.246 Q-35.1504 789.7 -35.8188 787.217 Q-36.519 784.702 -37.8877 782.22 L-32.4768 782.22 Q-31.331 784.671 -30.7581 787.312 Q-30.1852 789.922 -30.1852 792.882 Q-30.1852 800.935 -35.2459 805.677 Q-40.3066 810.42 -48.9003 810.42 Q-57.6213 810.42 -62.6184 805.646 Q-67.6155 800.84 -67.6155 792.5 Q-67.6155 789.795 -67.0426 787.217 Q-66.5015 784.639 -65.3875 782.22 Z" fill="#000000" fill-rule="evenodd" fill-opacity="1" /><path clip-path="url(#clip210)" d="M 0 0 M-50.3963 745.585 L-47.5317 745.585 L-47.5317 772.512 Q-41.4843 772.13 -38.3014 768.884 Q-35.1504 765.605 -35.1504 759.781 Q-35.1504 756.407 -35.9779 753.256 Q-36.8055 750.073 -38.4606 746.954 L-32.9224 746.954 Q-31.5856 750.105 -30.8854 753.415 Q-30.1852 756.725 -30.1852 760.131 Q-30.1852 768.661 -35.1504 773.658 Q-40.1157 778.623 -48.582 778.623 Q-57.3349 778.623 -62.4593 773.913 Q-67.6155 769.17 -67.6155 761.149 Q-67.6155 753.956 -62.9685 749.787 Q-58.3534 745.585 -50.3963 745.585 M-52.115 751.442 Q-56.9211 751.505 -59.7857 754.147 Q-62.6503 756.757 -62.6503 761.086 Q-62.6503 765.987 -59.8812 768.947 Q-57.1121 771.876 -52.0832 772.321 L-52.115 751.442 Z" fill="#000000" fill-rule="evenodd" fill-opacity="1" /><path clip-path="url(#clip210)" d="M 0 0 M-53.3882 695.933 Q-52.6879 693.864 -50.3963 691.922 Q-48.1046 689.949 -44.0942 687.976 L-31.1082 681.451 L-31.1082 688.357 L-43.2985 694.437 Q-48.0728 696.792 -49.6324 699.02 Q-51.192 701.216 -51.192 705.036 L-51.192 712.038 L-31.1082 712.038 L-31.1082 718.467 L-78.6282 718.467 L-78.6282 703.953 Q-78.6282 695.805 -75.2225 691.795 Q-71.8169 687.785 -64.9419 687.785 Q-60.4541 687.785 -57.494 689.885 Q-54.534 691.954 -53.3882 695.933 M-73.3446 712.038 L-56.4755 712.038 L-56.4755 703.953 Q-56.4755 699.306 -58.608 696.951 Q-60.7724 694.564 -64.9419 694.564 Q-69.1114 694.564 -71.2121 696.951 Q-73.3446 699.306 -73.3446 703.953 L-73.3446 712.038 Z" fill="#000000" fill-rule="evenodd" fill-opacity="1" /><path clip-path="url(#clip210)" d="M 0 0 M-49.0276 660.539 Q-49.0276 667.637 -47.4044 670.374 Q-45.7811 673.112 -41.8662 673.112 Q-38.747 673.112 -36.901 671.075 Q-35.0867 669.006 -35.0867 665.473 Q-35.0867 660.603 -38.5242 657.675 Q-41.9935 654.715 -47.7227 654.715 L-49.0276 654.715 L-49.0276 660.539 M-51.4466 648.858 L-31.1082 648.858 L-31.1082 654.715 L-36.519 654.715 Q-33.2725 656.72 -31.7129 659.712 Q-30.1852 662.704 -30.1852 667.032 Q-30.1852 672.507 -33.2407 675.753 Q-36.3281 678.968 -41.4843 678.968 Q-47.4999 678.968 -50.5554 674.958 Q-53.611 670.915 -53.611 662.926 L-53.611 654.715 L-54.1839 654.715 Q-58.2261 654.715 -60.4223 657.388 Q-62.6503 660.03 -62.6503 664.836 Q-62.6503 667.892 -61.9182 670.788 Q-61.1861 673.685 -59.722 676.358 L-65.1329 676.358 Q-66.3742 673.143 -66.9789 670.12 Q-67.6155 667.096 -67.6155 664.231 Q-67.6155 656.497 -63.6051 652.678 Q-59.5947 648.858 -51.4466 648.858 Z" fill="#000000" fill-rule="evenodd" fill-opacity="1" /><path clip-path="url(#clip210)" d="M 0 0 M-76.8776 636.923 L-66.7561 636.923 L-66.7561 624.86 L-62.2047 624.86 L-62.2047 636.923 L-42.8529 636.923 Q-38.4924 636.923 -37.2511 635.745 Q-36.0098 634.535 -36.0098 630.875 L-36.0098 624.86 L-31.1082 624.86 L-31.1082 630.875 Q-31.1082 637.655 -33.6226 640.233 Q-36.1689 642.811 -42.8529 642.811 L-62.2047 642.811 L-62.2047 647.108 L-66.7561 647.108 L-66.7561 642.811 L-76.8776 642.811 L-76.8776 636.923 Z" fill="#000000" fill-rule="evenodd" fill-opacity="1" /><path clip-path="url(#clip210)" d="M 0 0 M-50.3963 588.225 L-47.5317 588.225 L-47.5317 615.152 Q-41.4843 614.77 -38.3014 611.523 Q-35.1504 608.245 -35.1504 602.42 Q-35.1504 599.047 -35.9779 595.896 Q-36.8055 592.713 -38.4606 589.594 L-32.9224 589.594 Q-31.5856 592.745 -30.8854 596.055 Q-30.1852 599.365 -30.1852 602.771 Q-30.1852 611.301 -35.1504 616.298 Q-40.1157 621.263 -48.582 621.263 Q-57.3349 621.263 -62.4593 616.552 Q-67.6155 611.81 -67.6155 603.789 Q-67.6155 596.596 -62.9685 592.426 Q-58.3534 588.225 -50.3963 588.225 M-52.115 594.081 Q-56.9211 594.145 -59.7857 596.787 Q-62.6503 599.397 -62.6503 603.725 Q-62.6503 608.627 -59.8812 611.587 Q-57.1121 614.515 -52.0832 614.961 L-52.115 594.081 Z" fill="#000000" fill-rule="evenodd" fill-opacity="1" /><circle clip-path="url(#clip212)" cx="879.543" cy="237.21" r="14" fill="#009af9" fill-rule="evenodd" fill-opacity="1" stroke="#000000" stroke-opacity="1" stroke-width="3.2"/>
<circle clip-path="url(#clip212)" cx="166.42" cy="274.385" r="14" fill="#009af9" fill-rule="evenodd" fill-opacity="1" stroke="#000000" stroke-opacity="1" stroke-width="3.2"/>
<circle clip-path="url(#clip212)" cx="266.703" cy="590.375" r="14" fill="#009af9" fill-rule="evenodd" fill-opacity="1" stroke="#000000" stroke-opacity="1" stroke-width="3.2"/>
<circle clip-path="url(#clip212)" cx="394.842" cy="88.5087" r="14" fill="#009af9" fill-rule="evenodd" fill-opacity="1" stroke="#000000" stroke-opacity="1" stroke-width="3.2"/>
<circle clip-path="url(#clip212)" cx="166.42" cy="1110.83" r="14" fill="#009af9" fill-rule="evenodd" fill-opacity="1" stroke="#000000" stroke-opacity="1" stroke-width="3.2"/>
<circle clip-path="url(#clip212)" cx="227.704" cy="441.674" r="14" fill="#009af9" fill-rule="evenodd" fill-opacity="1" stroke="#000000" stroke-opacity="1" stroke-width="3.2"/>
<circle clip-path="url(#clip212)" cx="166.42" cy="1352.47" r="14" fill="#009af9" fill-rule="evenodd" fill-opacity="1" stroke="#000000" stroke-opacity="1" stroke-width="3.2"/>
<circle clip-path="url(#clip212)" cx="183.134" cy="943.541" r="14" fill="#009af9" fill-rule="evenodd" fill-opacity="1" stroke="#000000" stroke-opacity="1" stroke-width="3.2"/>
<circle clip-path="url(#clip212)" cx="166.42" cy="1426.82" r="14" fill="#009af9" fill-rule="evenodd" fill-opacity="1" stroke="#000000" stroke-opacity="1" stroke-width="3.2"/>
<circle clip-path="url(#clip212)" cx="907.4" cy="1017.89" r="14" fill="#009af9" fill-rule="evenodd" fill-opacity="1" stroke="#000000" stroke-opacity="1" stroke-width="3.2"/>
<circle clip-path="url(#clip212)" cx="2289.08" cy="460.262" r="14" fill="#009af9" fill-rule="evenodd" fill-opacity="1" stroke="#000000" stroke-opacity="1" stroke-width="3.2"/>
<circle clip-path="url(#clip212)" cx="166.42" cy="1055.07" r="14" fill="#009af9" fill-rule="evenodd" fill-opacity="1" stroke="#000000" stroke-opacity="1" stroke-width="3.2"/>
<circle clip-path="url(#clip212)" cx="166.42" cy="1166.59" r="14" fill="#009af9" fill-rule="evenodd" fill-opacity="1" stroke="#000000" stroke-opacity="1" stroke-width="3.2"/>
<circle clip-path="url(#clip212)" cx="177.562" cy="1110.83" r="14" fill="#009af9" fill-rule="evenodd" fill-opacity="1" stroke="#000000" stroke-opacity="1" stroke-width="3.2"/>
<circle clip-path="url(#clip212)" cx="261.132" cy="553.2" r="14" fill="#009af9" fill-rule="evenodd" fill-opacity="1" stroke="#000000" stroke-opacity="1" stroke-width="3.2"/>
<circle clip-path="url(#clip212)" cx="166.42" cy="701.901" r="14" fill="#009af9" fill-rule="evenodd" fill-opacity="1" stroke="#000000" stroke-opacity="1" stroke-width="3.2"/>
<circle clip-path="url(#clip212)" cx="199.848" cy="627.551" r="14" fill="#009af9" fill-rule="evenodd" fill-opacity="1" stroke="#000000" stroke-opacity="1" stroke-width="3.2"/>
<circle clip-path="url(#clip212)" cx="522.982" cy="255.798" r="14" fill="#009af9" fill-rule="evenodd" fill-opacity="1" stroke="#000000" stroke-opacity="1" stroke-width="3.2"/>
<circle clip-path="url(#clip212)" cx="534.124" cy="553.2" r="14" fill="#009af9" fill-rule="evenodd" fill-opacity="1" stroke="#000000" stroke-opacity="1" stroke-width="3.2"/>
<circle clip-path="url(#clip212)" cx="166.42" cy="181.447" r="14" fill="#009af9" fill-rule="evenodd" fill-opacity="1" stroke="#000000" stroke-opacity="1" stroke-width="3.2"/>
<circle clip-path="url(#clip212)" cx="227.704" cy="962.129" r="14" fill="#009af9" fill-rule="evenodd" fill-opacity="1" stroke="#000000" stroke-opacity="1" stroke-width="3.2"/>
<circle clip-path="url(#clip212)" cx="166.42" cy="1148.01" r="14" fill="#009af9" fill-rule="evenodd" fill-opacity="1" stroke="#000000" stroke-opacity="1" stroke-width="3.2"/>
<circle clip-path="url(#clip212)" cx="166.42" cy="887.778" r="14" fill="#009af9" fill-rule="evenodd" fill-opacity="1" stroke="#000000" stroke-opacity="1" stroke-width="3.2"/>
<circle clip-path="url(#clip212)" cx="166.42" cy="1222.36" r="14" fill="#009af9" fill-rule="evenodd" fill-opacity="1" stroke="#000000" stroke-opacity="1" stroke-width="3.2"/>
<circle clip-path="url(#clip212)" cx="567.552" cy="534.612" r="14" fill="#009af9" fill-rule="evenodd" fill-opacity="1" stroke="#000000" stroke-opacity="1" stroke-width="3.2"/>
<circle clip-path="url(#clip212)" cx="383.7" cy="832.015" r="14" fill="#009af9" fill-rule="evenodd" fill-opacity="1" stroke="#000000" stroke-opacity="1" stroke-width="3.2"/>
<circle clip-path="url(#clip212)" cx="166.42" cy="906.366" r="14" fill="#009af9" fill-rule="evenodd" fill-opacity="1" stroke="#000000" stroke-opacity="1" stroke-width="3.2"/>
<circle clip-path="url(#clip212)" cx="166.42" cy="962.129" r="14" fill="#009af9" fill-rule="evenodd" fill-opacity="1" stroke="#000000" stroke-opacity="1" stroke-width="3.2"/>
<circle clip-path="url(#clip212)" cx="166.42" cy="720.489" r="14" fill="#009af9" fill-rule="evenodd" fill-opacity="1" stroke="#000000" stroke-opacity="1" stroke-width="3.2"/>
<circle clip-path="url(#clip212)" cx="166.42" cy="1464" r="14" fill="#009af9" fill-rule="evenodd" fill-opacity="1" stroke="#000000" stroke-opacity="1" stroke-width="3.2"/>
<circle clip-path="url(#clip212)" cx="177.562" cy="701.901" r="14" fill="#009af9" fill-rule="evenodd" fill-opacity="1" stroke="#000000" stroke-opacity="1" stroke-width="3.2"/>
<circle clip-path="url(#clip212)" cx="166.42" cy="1371.06" r="14" fill="#009af9" fill-rule="evenodd" fill-opacity="1" stroke="#000000" stroke-opacity="1" stroke-width="3.2"/>
<circle clip-path="url(#clip212)" cx="957.541" cy="757.664" r="14" fill="#009af9" fill-rule="evenodd" fill-opacity="1" stroke="#000000" stroke-opacity="1" stroke-width="3.2"/>
<circle clip-path="url(#clip212)" cx="166.42" cy="1110.83" r="14" fill="#009af9" fill-rule="evenodd" fill-opacity="1" stroke="#000000" stroke-opacity="1" stroke-width="3.2"/>
<circle clip-path="url(#clip212)" cx="522.982" cy="832.015" r="14" fill="#009af9" fill-rule="evenodd" fill-opacity="1" stroke="#000000" stroke-opacity="1" stroke-width="3.2"/>
<circle clip-path="url(#clip212)" cx="255.56" cy="218.622" r="14" fill="#009af9" fill-rule="evenodd" fill-opacity="1" stroke="#000000" stroke-opacity="1" stroke-width="3.2"/>
<circle clip-path="url(#clip212)" cx="166.42" cy="664.726" r="14" fill="#009af9" fill-rule="evenodd" fill-opacity="1" stroke="#000000" stroke-opacity="1" stroke-width="3.2"/>
<circle clip-path="url(#clip212)" cx="227.704" cy="1166.59" r="14" fill="#009af9" fill-rule="evenodd" fill-opacity="1" stroke="#000000" stroke-opacity="1" stroke-width="3.2"/>
<circle clip-path="url(#clip212)" cx="166.42" cy="850.603" r="14" fill="#009af9" fill-rule="evenodd" fill-opacity="1" stroke="#000000" stroke-opacity="1" stroke-width="3.2"/>
<circle clip-path="url(#clip212)" cx="968.684" cy="1092.24" r="14" fill="#009af9" fill-rule="evenodd" fill-opacity="1" stroke="#000000" stroke-opacity="1" stroke-width="3.2"/>
<circle clip-path="url(#clip212)" cx="166.42" cy="571.788" r="14" fill="#009af9" fill-rule="evenodd" fill-opacity="1" stroke="#000000" stroke-opacity="1" stroke-width="3.2"/>
<circle clip-path="url(#clip212)" cx="740.261" cy="478.849" r="14" fill="#009af9" fill-rule="evenodd" fill-opacity="1" stroke="#000000" stroke-opacity="1" stroke-width="3.2"/>
<circle clip-path="url(#clip212)" cx="717.976" cy="739.077" r="14" fill="#009af9" fill-rule="evenodd" fill-opacity="1" stroke="#000000" stroke-opacity="1" stroke-width="3.2"/>
<circle clip-path="url(#clip212)" cx="166.42" cy="701.901" r="14" fill="#009af9" fill-rule="evenodd" fill-opacity="1" stroke="#000000" stroke-opacity="1" stroke-width="3.2"/>
<circle clip-path="url(#clip212)" cx="166.42" cy="813.427" r="14" fill="#009af9" fill-rule="evenodd" fill-opacity="1" stroke="#000000" stroke-opacity="1" stroke-width="3.2"/>
<circle clip-path="url(#clip212)" cx="389.271" cy="943.541" r="14" fill="#009af9" fill-rule="evenodd" fill-opacity="1" stroke="#000000" stroke-opacity="1" stroke-width="3.2"/>
<circle clip-path="url(#clip212)" cx="166.42" cy="739.077" r="14" fill="#009af9" fill-rule="evenodd" fill-opacity="1" stroke="#000000" stroke-opacity="1" stroke-width="3.2"/>
<circle clip-path="url(#clip212)" cx="188.705" cy="571.788" r="14" fill="#009af9" fill-rule="evenodd" fill-opacity="1" stroke="#000000" stroke-opacity="1" stroke-width="3.2"/>
<circle clip-path="url(#clip212)" cx="166.42" cy="1055.07" r="14" fill="#009af9" fill-rule="evenodd" fill-opacity="1" stroke="#000000" stroke-opacity="1" stroke-width="3.2"/>
<circle clip-path="url(#clip212)" cx="166.42" cy="683.314" r="14" fill="#009af9" fill-rule="evenodd" fill-opacity="1" stroke="#000000" stroke-opacity="1" stroke-width="3.2"/>
<path clip-path="url(#clip210)" d="M 0 0 M907.4 217.77 L915.238 217.77 L925.16 244.228 L935.134 217.77 L942.972 217.77 L942.972 256.65 L937.842 256.65 L937.842 222.509 L927.816 249.176 L922.53 249.176 L912.504 222.509 L912.504 256.65 L907.4 256.65 L907.4 217.77 Z" fill="#000000" fill-rule="evenodd" fill-opacity="1" /><path clip-path="url(#clip210)" d="M 0 0 M948.207 217.77 L972.79 217.77 L972.79 222.197 L953.467 222.197 L953.467 233.707 L971.983 233.707 L971.983 238.134 L953.467 238.134 L953.467 252.223 L973.259 252.223 L973.259 256.65 L948.207 256.65 L948.207 217.77 Z" fill="#000000" fill-rule="evenodd" fill-opacity="1" /><path clip-path="url(#clip210)" d="M 0 0 M440.719 72.6364 Q434.99 72.6364 431.605 76.9072 Q428.245 81.178 428.245 88.5478 Q428.245 95.8915 431.605 100.162 Q434.99 104.433 440.719 104.433 Q446.448 104.433 449.782 100.162 Q453.141 95.8915 453.141 88.5478 Q453.141 81.178 449.782 76.9072 Q446.448 72.6364 440.719 72.6364 M440.719 68.3656 Q448.896 68.3656 453.792 73.8603 Q458.688 79.3291 458.688 88.5478 Q458.688 97.7404 453.792 103.235 Q448.896 108.704 440.719 108.704 Q432.516 108.704 427.594 103.235 Q422.699 97.7665 422.699 88.5478 Q422.699 79.3291 427.594 73.8603 Q432.516 68.3656 440.719 68.3656 Z" fill="#000000" fill-rule="evenodd" fill-opacity="1" /><path clip-path="url(#clip210)" d="M 0 0 M463.922 69.0687 L469.183 69.0687 L469.183 85.5009 L486.631 69.0687 L493.401 69.0687 L474.105 87.1936 L494.782 107.949 L487.854 107.949 L469.183 89.2248 L469.183 107.949 L463.922 107.949 L463.922 69.0687 Z" fill="#000000" fill-rule="evenodd" fill-opacity="1" /><path clip-path="url(#clip210)" d="M 0 0 M2334.75 446.004 L2327.61 465.353 L2341.91 465.353 L2334.75 446.004 M2331.78 440.822 L2337.74 440.822 L2352.56 479.702 L2347.09 479.702 L2343.55 469.728 L2326.02 469.728 L2322.48 479.702 L2316.93 479.702 L2331.78 440.822 Z" fill="#000000" fill-rule="evenodd" fill-opacity="1" /><path clip-path="url(#clip210)" d="M 0 0 M2376.23 461.473 Q2377.92 462.046 2379.51 463.921 Q2381.12 465.796 2382.74 469.077 L2388.08 479.702 L2382.43 479.702 L2377.45 469.728 Q2375.53 465.822 2373.7 464.546 Q2371.91 463.27 2368.78 463.27 L2363.05 463.27 L2363.05 479.702 L2357.79 479.702 L2357.79 440.822 L2369.67 440.822 Q2376.33 440.822 2379.61 443.608 Q2382.9 446.395 2382.9 452.02 Q2382.9 455.692 2381.18 458.113 Q2379.48 460.535 2376.23 461.473 M2363.05 445.145 L2363.05 458.947 L2369.67 458.947 Q2373.47 458.947 2375.4 457.202 Q2377.35 455.431 2377.35 452.02 Q2377.35 448.608 2375.4 446.889 Q2373.47 445.145 2369.67 445.145 L2363.05 445.145 Z" fill="#000000" fill-rule="evenodd" fill-opacity="1" /><path clip-path="url(#clip210)" d="M 0 0 M212.089 167.189 L204.953 186.538 L219.25 186.538 L212.089 167.189 M209.12 162.007 L215.083 162.007 L229.901 200.887 L224.432 200.887 L220.891 190.913 L203.365 190.913 L199.823 200.887 L194.276 200.887 L209.12 162.007 Z" fill="#000000" fill-rule="evenodd" fill-opacity="1" /><path clip-path="url(#clip210)" d="M 0 0 M235.135 162.007 L240.396 162.007 L240.396 196.46 L259.328 196.46 L259.328 200.887 L235.135 200.887 L235.135 162.007 Z" fill="#000000" fill-rule="evenodd" fill-opacity="1" /><path clip-path="url(#clip210)" d="M 0 0 M219.302 1445.83 L219.302 1450.96 Q216.307 1449.53 213.651 1448.83 Q210.995 1448.12 208.521 1448.12 Q204.224 1448.12 201.88 1449.79 Q199.563 1451.46 199.563 1454.53 Q199.563 1457.11 201.099 1458.44 Q202.662 1459.74 206.984 1460.54 L210.162 1461.2 Q216.047 1462.32 218.833 1465.15 Q221.646 1467.97 221.646 1472.71 Q221.646 1478.36 217.844 1481.27 Q214.068 1484.19 206.75 1484.19 Q203.99 1484.19 200.865 1483.57 Q197.766 1482.94 194.432 1481.72 L194.432 1476.3 Q197.636 1478.1 200.708 1479.01 Q203.781 1479.92 206.75 1479.92 Q211.255 1479.92 213.703 1478.15 Q216.151 1476.38 216.151 1473.1 Q216.151 1470.23 214.38 1468.62 Q212.636 1467 208.625 1466.2 L205.422 1465.57 Q199.537 1464.4 196.906 1461.9 Q194.276 1459.4 194.276 1454.95 Q194.276 1449.79 197.896 1446.82 Q201.542 1443.85 207.922 1443.85 Q210.656 1443.85 213.495 1444.35 Q216.333 1444.84 219.302 1445.83 Z" fill="#000000" fill-rule="evenodd" fill-opacity="1" /><path clip-path="url(#clip210)" d="M 0 0 M255.995 1447.55 L255.995 1453.1 Q253.338 1450.62 250.318 1449.4 Q247.323 1448.18 243.937 1448.18 Q237.271 1448.18 233.729 1452.26 Q230.187 1456.33 230.187 1464.03 Q230.187 1471.72 233.729 1475.81 Q237.271 1479.87 243.937 1479.87 Q247.323 1479.87 250.318 1478.64 Q253.338 1477.42 255.995 1474.95 L255.995 1480.44 Q253.234 1482.32 250.135 1483.25 Q247.062 1484.19 243.625 1484.19 Q234.797 1484.19 229.719 1478.8 Q224.641 1473.38 224.641 1464.03 Q224.641 1454.66 229.719 1449.27 Q234.797 1443.85 243.625 1443.85 Q247.114 1443.85 250.187 1444.79 Q253.286 1445.7 255.995 1447.55 Z" fill="#000000" fill-rule="evenodd" fill-opacity="1" /><path clip-path="url(#clip210)" d="M 0 0 M312.167 232.515 L312.167 222.073 L303.573 222.073 L303.573 217.75 L317.375 217.75 L317.375 234.443 Q314.328 236.604 310.656 237.724 Q306.984 238.817 302.818 238.817 Q293.703 238.817 288.547 233.505 Q283.417 228.167 283.417 218.661 Q283.417 209.13 288.547 203.818 Q293.703 198.479 302.818 198.479 Q306.62 198.479 310.031 199.417 Q313.469 200.354 316.359 202.177 L316.359 207.776 Q313.443 205.302 310.161 204.052 Q306.88 202.802 303.26 202.802 Q296.125 202.802 292.531 206.786 Q288.964 210.771 288.964 218.661 Q288.964 226.526 292.531 230.51 Q296.125 234.495 303.26 234.495 Q306.047 234.495 308.234 234.026 Q310.422 233.531 312.167 232.515 Z" fill="#000000" fill-rule="evenodd" fill-opacity="1" /><path clip-path="url(#clip210)" d="M 0 0 M335.604 204.365 L328.468 223.713 L342.765 223.713 L335.604 204.365 M332.635 199.182 L338.599 199.182 L353.416 238.062 L347.948 238.062 L344.406 228.088 L326.88 228.088 L323.338 238.062 L317.791 238.062 L332.635 199.182 Z" fill="#000000" fill-rule="evenodd" fill-opacity="1" /><path clip-path="url(#clip210)" d="M 0 0 M996.54 1072.8 L1003.62 1072.8 L1020.86 1105.33 L1020.86 1072.8 L1025.97 1072.8 L1025.97 1111.68 L1018.88 1111.68 L1001.64 1079.16 L1001.64 1111.68 L996.54 1111.68 L996.54 1072.8 Z" fill="#000000" fill-rule="evenodd" fill-opacity="1" /><path clip-path="url(#clip210)" d="M 0 0 M1031.2 1072.8 L1036.46 1072.8 L1036.46 1108.97 Q1036.46 1116.01 1033.78 1119.18 Q1031.12 1122.36 1025.21 1122.36 L1023.21 1122.36 L1023.21 1117.93 L1024.85 1117.93 Q1028.34 1117.93 1029.77 1115.98 Q1031.2 1114.03 1031.2 1108.97 L1031.2 1072.8 Z" fill="#000000" fill-rule="evenodd" fill-opacity="1" /></svg>
